<?xml version="1.0" encoding="UTF-8"?>
<svg id="Layer_1" data-name="Layer 1" xmlns="http://www.w3.org/2000/svg" viewBox="0 0 100 100">
  <defs>
    <style>
      .cls-1 {
        fill: #f9bd46;
      }

      .cls-1, .cls-2, .cls-3, .cls-4, .cls-5 {
        stroke-width: 0px;
      }

      .cls-2 {
        fill: #585859;
      }

      .cls-3 {
        fill: #404041;
      }

      .cls-4 {
        fill: #fffbe3;
      }

      .cls-5 {
        fill: #ffe30c;
      }
    </style>
  </defs>
  <g>
    <g>
      <path class="cls-5" d="M74.24,69.04c2.78,4.6,1.16,10.68-3.63,13.58-4.79,2.9-10.93,1.51-13.71-3.09l17.34-10.49Z"/>
      <path class="cls-5" d="M56.41,79.62c-.83,5.32-5.98,8.93-11.51,8.07s-9.34-5.87-8.51-11.18l20.02,3.11Z"/>
      <path class="cls-5" d="M35.96,76.27c-4.05,3.54-10.32,3-14-1.22-3.68-4.21-3.38-10.5.67-14.04l13.34,15.25Z"/>
      <path class="cls-5" d="M22.44,60.55c-5.38.11-9.83-4.34-9.95-9.93-.11-5.59,4.15-10.22,9.53-10.33l.41,20.26Z"/>
      <path class="cls-5" d="M22.19,39.82c-4.19-3.37-4.74-9.64-1.23-14,3.51-4.36,9.75-5.16,13.94-1.78l-12.71,15.78Z"/>
      <path class="cls-5" d="M35.32,23.78c-1.04-5.28,2.56-10.44,8.05-11.52s10.78,2.32,11.83,7.6l-19.88,3.92Z"/>
      <path class="cls-5" d="M55.69,19.94c2.59-4.71,8.67-6.35,13.57-3.65,4.9,2.7,6.77,8.71,4.18,13.42l-17.75-9.77Z"/>
      <path class="cls-5" d="M73.77,30.08c5.02-1.94,10.72.71,12.74,5.93,2.02,5.22-.41,11.02-5.43,12.96l-7.32-18.9Z"/>
      <path class="cls-5" d="M81.09,49.48c5.09,1.74,7.76,7.44,5.95,12.73-1.81,5.3-7.4,8.18-12.49,6.44l6.54-19.18Z"/>
    </g>
    <polygon class="cls-1" points="55.38 19.56 34.87 23.59 21.74 39.86 22.15 60.77 35.89 76.52 56.55 79.75 74.44 68.94 81.21 49.16 73.68 29.66 55.38 19.56"/>
  </g>
  <circle class="cls-4" cx="41.68" cy="43.91" r="6.86"/>
  <circle class="cls-4" cx="59.93" cy="43.91" r="6.86"/>
  <circle class="cls-3" cx="43.16" cy="44.12" r="3.3"/>
  <circle class="cls-3" cx="58.22" cy="44.63" r="3.3"/>
  <g>
    <polygon class="cls-2" points="41.72 58.46 41.75 58.61 41.95 58.45 41.72 58.46"/>
    <path class="cls-2" d="M41.51,59.48l.21.06c.44-.58.4-.32.54-.91-.16,0-.51.02-.67.25.07.03.35-.1.37.05-.18.11-.25.01-.48.17-.02.28.2-.05.27.16l-.24.22Z"/>
    <path class="cls-2" d="M42.17,59.14c-.1.07-.2.14-.27.22.1-.07.28-.11.27-.22Z"/>
    <path class="cls-2" d="M42.31,59.18c.07.11-.2.18-.22.22l.44-.21h-.22Z"/>
    <path class="cls-2" d="M42.64,59.59s.05.01.07.02c.04-.06-.02-.04-.07-.02Z"/>
    <path class="cls-2" d="M42.85,59.75c.09-.14-.02-.13-.14-.15,0,0,0,.01-.02.03-.06.14-.35.3-.36.16-.13-.04.12-.25-.11-.18l-.11.28c.15.11.58-.11.73-.14Z"/>
    <path class="cls-2" d="M42.64,59.59s-.04-.02-.06-.04c-.02.06.02.05.06.04Z"/>
    <polygon class="cls-2" points="42.49 59.36 42.4 59.36 42.31 59.47 42.49 59.36"/>
    <path class="cls-2" d="M43.14,60.08c-.37.25-.15-.27-.45-.08.12.12-.06.43-.28.55l.22.06c.17-.05.39-.32.5-.53Z"/>
    <path class="cls-2" d="M42.44,61.05s.07-.02.09-.01c-.03,0-.05,0-.09.01Z"/>
    <path class="cls-2" d="M43.61,61.36l-.62-.1c.14-.05.25-.15.35-.09-.06-.19-.31-.04-.36-.2.31-.28.19.21.44-.08-.08-.08-.19-.21-.53-.07l.13-.31-.33.32c-.06.13.38-.1.14.12-.15.13-.22.1-.28.09.14.03-.11.46.07.6.18.17.74-.29,1.01-.28Z"/>
    <polygon class="cls-2" points="43.2 61.66 43.07 61.78 43.26 61.63 43.2 61.66"/>
    <path class="cls-2" d="M43.97,61.71l-.37-.02s.09-.11.15-.17c-.08.07-.27.12-.33.18-.28.32.27.15.4.21.03.37-.19.11-.44.44-.04-.08.04-.14-.01-.26-.27.43.22.39.39.43.01-.05.11-.14.04-.17l.19.03c.19-.3.2-.45-.02-.67Z"/>
    <path class="cls-2" d="M43.73,61.38c.07.05.07.1.02.14.08-.08.13-.15-.02-.14Z"/>
    <path class="cls-2" d="M43.8,62.57s0-.04-.05-.05c0,.02,0,.04.05.05Z"/>
    <path class="cls-2" d="M44.14,62.18l.06.16.13-.16s-.1-.05-.18,0Z"/>
    <path class="cls-2" d="M48.61,66.93c.03-.17,0-.26-.15-.28.09-.2.25-.1.37-.21-.13-.19.08-.25.1-.47-.16-.07-.34.17-.51.04.03-.06.07-.15.07-.23-.26.04-.74.04-.84-.26-.15-.19-.34-.19-.6-.26-.58-.57-1.36-1.02-1.74-1.84l-.42.17c.15-.17-.13-.17.11-.32-.01.07.05.08.09.12.19-.38-.32-.37-.34-.64-.05.07-.34.32-.43.3.41-.27-.16-.21.26-.59-.01-.26-.35.24-.42,0-.25.14.01.26-.14.42-.23.07-.04-.23-.28-.05.1.39,1,.63,1.5.97l-.25.12c.34.12.67.46.54.95.13-.22.24.43.61-.03-.04.15,0,.15.05.26l.15-.12c.12.11-.09.31.06.41.07-.27.22-.24.39-.37-.02.34.03.69.06.99.03-.08.07-.16.08-.29.05.15.17-.06.25-.12.1.06-.08.32-.18.45.15.21.55-.26.6,0l.08-.25c.22.05.27.4.54.42-.03.38-.32.19-.49.28.02.09.12.16.1.28.19-.11.46-.26.65-.37-.28.33.06.45.15.49Z"/>
    <path class="cls-2" d="M47.81,66.81c-.06.04-.1.07-.14.09.03,0,.07-.02.1.01.02-.04.03-.08.04-.11Z"/>
    <path class="cls-2" d="M48.61,66.93v.04s.02-.03,0-.04Z"/>
    <path class="cls-2" d="M47.64,65.49s0,.02.01.04l.03.03-.04-.06Z"/>
    <path class="cls-2" d="M46.85,66.38c0-.1,0-.22-.02-.35-.05.11-.09.2.02.35Z"/>
    <path class="cls-2" d="M45.74,65.13c-.07,0-.1.08-.18.11.07.08.15.04.18-.11Z"/>
    <polygon class="cls-2" points="48.07 67 48.3 67 48.4 66.97 48.07 67"/>
    <path class="cls-2" d="M51.99,65.62c-.27-.19-.38.05-.58.06-.27.25.18.65-.16.79l-.1-.63c-.31.12-.74.05-1.04.59-.03-.08-.08-.17,0-.26-.22.02-.17.91-.5.66.36-.36-.06-.38.08-.76l.05-.04c-.19.03-.48.17-.6.12-.05.16,0,.43-.18.4.06.05-.01.22-.06.38.24-.12.33,0,.49-.18.08.23-.09.05,0,.28l.19-.17c.12.06-.16.2.03.26.04-.12.2-.23.35-.2l-.05.07c.12-.08.28.03.23-.33l.13.35-.03-.24c.29.08.5.66.88.28-.11-.05-.05-.2,0-.25-.19-.13-.17.22-.33.28-.05-.23.16-.56-.04-.67.24.25.34-.1.57.46.26-.04.27-.33.55-.3l.03.09c-.11-.39.28.09.27-.37-.05,0-.1-.01-.16-.02-.06-.15,0-.18.05-.25.02.06.02.06.08.12-.1-.27.09-.43.08-.52-.11,0-.11.27-.2.4-.02-.18-.14-.39-.03-.39Z"/>
    <path class="cls-2" d="M49.82,67.12l.09-.13s-.07.06-.09.13Z"/>
    <path class="cls-2" d="M53.1,65.47c.16-.05.13.22.32.22-.02-.25-.4-.19-.48-.52.18.07.08-.25.12-.29.07.17.36.42.44.46-.03-.11.19-.07.27-.14-.34.01.04-.25-.3-.27-.15-.17-.13-.43.05-.38.12.11.05.14.01.19.2.24.23,0,.46.16-.17-.45.25-.99-.43-1.23-.15-.02-.04.12-.06.2.24-.09.3.21.38.3-.14.01-.07.27-.24.09l-.12-.27c-.38.29-.75.76-1.11,1.15l.19-.13c.1.16.02.24,0,.37l.37.29c-.08.02-.1.12-.19-.02.04.21.14.28.28.37-.13.19-.25.05-.23.39.51.11.08-.41.59-.4l-.31-.54Z"/>
    <polygon class="cls-2" points="52.67 66.1 52.61 65.86 52.57 66.02 52.67 66.1"/>
    <path class="cls-2" d="M52.22,65.19c.06.08.05.14.11.22.15-.02.06-.12-.11-.22Z"/>
    <path class="cls-2" d="M54.13,64.75l.06-.2-.15.04c.08.06.09.12.09.16Z"/>
    <path class="cls-2" d="M53.85,63.05c-.07.22.05.42-.28.52.17.28.5.26.69.46.13-.09-.3-.35-.31-.52.25.09.06-.2.17-.29-.1-.04-.2-.1-.28-.17Z"/>
    <path class="cls-2" d="M55.11,62.73c.05-.11-.08-.29.06-.33.14.07.18.16.11.21.36.1,0-.14.27-.18-.04,0-.12.02-.18-.04.2-.27-.21-.27.11-.59-.08-.09-.06-.14-.29-.2.36-.13.32-.02.66-.21-.14-.03-.48-.03-.77-.11.52-.25.04-.39.41-.55,0,.03.08.08.02.14.42.07-.03-.22.09-.33l.35.1c-.02-.14-.21-.4.08-.5l.17.07c-.2-.38,0-.72-.08-1.02l.25-.1c-.2-.42-.2.34-.68-.04.67.09-.18-.23.13-.39.28-.05.09.24.41.19-.33-.11-.07-.13-.15-.26.31.09.09-.22.43-.08l-.51-.51c.19-.02.19-.14.16-.24-.05.21-.46-.16-.66.04.08.38.07.98-.19,1.38.43.14-.06.28.28.42-.14-.01-.27-.02-.41-.03.03.3.25-.01.4.09.03.13-.25.18-.41.13-.06.19.11.05.33.2l-.51.02c.02.63.13,1.55-.4,2.12l.3.06c-.27.23.41.8-.32.78l.19.21c-.11-.12-.43-.16-.58-.33.05.12-.09.15-.05.28l.2-.07c.18.22-.03.26-.24.18.15.36.53.13.79.2-.34-.58.67-.08.6-.52-.07-.27-.27-.09-.41-.17Z"/>
    <path class="cls-2" d="M54.17,62.76s.03.06.05.08c0-.02-.03-.05-.05-.08Z"/>
    <path class="cls-2" d="M56.18,57.74s0-.06,0-.1c-.07-.05-.03.01,0,.1Z"/>
    <polygon class="cls-2" points="54.13 63.22 54.13 63.22 54.13 63.21 54.13 63.22"/>
    <polygon class="cls-2" points="54.69 63.74 54.75 63.66 54.62 63.6 54.69 63.74"/>
    <path class="cls-2" d="M56.82,56.78h-.16s.1.01.16,0Z"/>
    <path class="cls-2" d="M56.63,54.35h.08s-.04-.02-.08,0Z"/>
    <path class="cls-2" d="M49.75,55.83c-.15.13-.36.26-.44.54l-.02-.16c-.08.09-.32.4-.08.65l.02-.15c.17-.27.2.23.39.31.19-.11.19-.73.4-.62.08-.03.09.13.09.25.19.01.17-.46.29-.54.26,1.19.49-.42.89.29.15-.13.39-.06.56-.33-.06.32.21,0,.22.34-.06-.71.66.21.56-.68.33.2,0-.06.37.09.02.1-.04.11-.06.13.16.16.14-.41.32-.02.28.02,0-.25.13-.51.3.06.24.19.45.53-.04-.42.16-.25.26-.49-.04-.01-.24-.07-.14-.25.34.02.22-.32.5-.48.23.44-.3.06.02.39-.16.25-.31.25-.35.6.27-.02.55-.14.81-.38.14.04-.08.24.02.26.09.09.18-.04.32-.19.13-.14.29-.29.35-.19l-.18.27c.14-.18.26-.19.35-.16.1.02.16.07.38-.06.11-.14.17-.23.29-.33-.33.35-.18.26.07.12.12-.07.27-.15.37-.18.05-.01.1-.03.09,0-.03.05-.08.11-.17.21l-.02.02c.65-.55.86-.5.82-.28-.19.19-.42.32-.58.42.47-.55-.49.13-.68.21h-.02s.02,0,.02,0c.18-.05-.15.33.15.24l-.37.19c-.13.18.81-.3.36.14l-.26.09c-.12.48-.62.81-.23,1.35.17.07.63-.02.77,0-.11-.24-.37-.52-.48-.71l.36.02c-.23-.08-.32-.28-.55-.15-.15-.1.36-.14.19-.27.42-.09.42.03.75-.01-.04-.06-.08-.12-.13-.17.14.03.19-.16.33-.14-.19-.14-.08-.27.07-.46.15-.19.37-.44.32-.58l-.19.3c-.28.15-.2,0-.25-.03.46-.36.43-.4.72-.77-.13-.02-.5.21-.61.21-.05.02-.07.02-.07,0,.66-.51-.06-.21.3-.6-.53.47-.65.24-.92.5-.2.11-.31.09-.15-.15.03-.01.1-.06.16-.09h-.13s.07-.08.09-.09c-.13,0-.33.32-.35.13.07-.11.16-.12.26-.18-.15,0-.41.18-.59.32-.19.14-.32.24-.39.07-.12.2-.44.27-.44.68-.04-.14.02-.48-.22-.38-.11.36-.29-.08-.39.16.14-.39-.04-.1.11-.47-.19-.11-.27.37-.5.34-.03-.08-.05-.18-.09-.26-.06.13-.11.42-.23.15l.05.24c-.17-.1-.36.01-.55-.23l-.11.49c-.32-.44-.58.05-.7.49-.09,0-.24-.07-.26-.17.01-.04.04-.11.07-.18-.13,0-.34-.23-.35.16-.12.14-.14-.24-.25-.29-.18.58-.87-.25-.81.57.11-.02.35.11.56.04-.04.11.03.26-.04.29-.21.07-.37-.21-.56-.04l-.07-.52c-.46-.46-.57.83-.99.14Z"/>
    <path class="cls-2" d="M52.48,55.36l-.2-.24.05.22s.09-.05.14.02Z"/>
    <path class="cls-2" d="M52.34,55.35s-.05.07-.07.12c.03,0,.07-.02.09-.06v-.06Z"/>
    <path class="cls-2" d="M49.15,56.03s-.11-.04-.17.03c.06.05.15.06.17-.03Z"/>
    <polygon class="cls-2" points="49 56.22 49.09 56.28 49.09 56.22 49 56.22"/>
    <path class="cls-2" d="M44.58,57.54l-.18.36c-.08-.15-.31.1-.28-.19-.07.4-.46.11-.23.62.68-.33,1.74-.22,2.48-.86l-.09.24c.35-.51.69.35.87-.56l.04.45c.22.08.26-.7.56-.28l-.05-.17c.06-.01.09.07.15.06l-.04-.08c.11-.2.21-.2.37-.1.04.14-.06.07-.09.12.09.13.15-.19.26-.21.11.1.04.2.04.26.3-.26.54.18.65-.52,0-.12-.13-.21-.02-.28-.26-.17-.39.13-.56.34h.06c-.04.65-.15-.13-.36.19.02-.27.13-.29.15-.44-.39-.43-.36.45-.67-.14l.02-.02c-.06-.05-.11.08-.17.15.04.08.11.1.17.16-.06.07-.04.36-.04.48-.13-.26-.07.16-.22.04-.09-.25.06-.26.07-.4l-.11.21c-.13.04-.19-.26-.28-.38-.07.22.09.13.05.42-.2-.29-.8-.08-1.04.22.09-.06-.02-.28.11-.27-.06-.05-.19.11-.15.31-.17.21-.45.14-.67,0l.09.19c-.09.36-.45-.17-.69.08h0c-.08.06-.06.56-.24.5,0-.25.09-.25.03-.48Z"/>
    <path class="cls-2" d="M43.7,58.2l.03-.3c-.11-.04-.16.34-.1.51.05-.07.17.03.15-.13-.02-.04-.04-.14-.08-.09Z"/>
    <path class="cls-2" d="M41.85,58.63c-.02.07,0,.17.01.25.39-.12.85-.33,1.05-.15.15.05.09-.37.23-.5l.13.26c.05-.2.39.05.2-.39-.02-.04-.03.23-.13.17l-.02-.16-.17.09.02-.21c-.3-.23-.05.63-.38.51l-.08-.4c-.2.02-.28.18-.5-.02,0,0,.04.2.06.11.04.01.12.16.12.29-.23.37,0-.25-.25-.36-.2.33-.64.66-.85.37.17.21.05.51-.1.51-.1-.13,0-.25,0-.37-.08-.03-.15-.12-.21-.04.13.2.14.51.02.68.39.17.5-.61.86-.64Z"/>
    <path class="cls-2" d="M41.82,58.99s.04-.06.04-.1c-.05.01-.09.03-.13.04l.09.06Z"/>
  </g>
</svg>