<?xml version="1.0" encoding="UTF-8"?>
<svg id="Layer_1" data-name="Layer 1" xmlns="http://www.w3.org/2000/svg" viewBox="0 0 100 100">
  <defs>
    <style>
      .cls-1 {
        fill: #585859;
      }

      .cls-1, .cls-2, .cls-3, .cls-4, .cls-5 {
        stroke-width: 0px;
      }

      .cls-2 {
        fill: #57b956;
      }

      .cls-3 {
        fill: #404041;
      }

      .cls-4 {
        fill: #b3d34b;
      }

      .cls-5 {
        fill: #fffbe3;
      }
    </style>
  </defs>
  <g>
    <g>
      <path class="cls-2" d="M72.63,69.11c2.78,4.6,1.16,10.68-3.63,13.58-4.79,2.9-10.93,1.51-13.71-3.09l17.34-10.49Z"/>
      <path class="cls-2" d="M54.81,79.69c-.83,5.32-5.98,8.93-11.51,8.07s-9.34-5.87-8.51-11.18l20.02,3.11Z"/>
      <path class="cls-2" d="M34.35,76.34c-4.05,3.54-10.32,3-14-1.22-3.68-4.21-3.38-10.5.67-14.04l13.34,15.25Z"/>
      <path class="cls-2" d="M20.83,60.62c-5.38.11-9.83-4.34-9.95-9.93s4.15-10.22,9.53-10.33l.41,20.26Z"/>
      <path class="cls-2" d="M20.58,39.89c-4.19-3.37-4.74-9.64-1.23-14,3.51-4.36,9.75-5.16,13.94-1.78l-12.71,15.78Z"/>
      <path class="cls-2" d="M33.71,23.85c-1.04-5.28,2.56-10.44,8.05-11.52s10.78,2.32,11.83,7.6l-19.88,3.92Z"/>
      <path class="cls-2" d="M54.08,20c2.59-4.71,8.67-6.35,13.57-3.65,4.9,2.7,6.77,8.71,4.18,13.42l-17.75-9.77Z"/>
      <path class="cls-2" d="M72.16,30.15c5.02-1.94,10.72.71,12.74,5.93,2.02,5.22-.41,11.02-5.43,12.96l-7.32-18.9Z"/>
      <path class="cls-2" d="M79.49,49.54c5.09,1.74,7.76,7.44,5.95,12.73-1.81,5.3-7.4,8.18-12.49,6.44l6.54-19.18Z"/>
    </g>
    <polygon class="cls-4" points="53.77 19.63 33.26 23.66 20.13 39.93 20.54 60.83 34.28 76.58 54.94 79.81 72.84 69.01 79.6 49.23 72.07 29.73 53.77 19.63"/>
  </g>
  <circle class="cls-5" cx="39.51" cy="43.55" r="6.86"/>
  <circle class="cls-5" cx="57.75" cy="43.55" r="6.86"/>
  <circle class="cls-3" cx="41.13" cy="42.47" r="3.3"/>
  <circle class="cls-3" cx="56.18" cy="42.98" r="3.3"/>
  <g>
    <polygon class="cls-1" points="52.29 52.32 52.2 52.31 52.41 52.45 52.29 52.32"/>
    <path class="cls-1" d="M51.44,52.01l.06.11c.64.34.43.27.92.45-.08-.09-.25-.28-.5-.42.01.04.23.21.14.19-.17-.12-.13-.14-.35-.3-.22-.06.13.12.01.13l-.28-.17Z"/>
    <path class="cls-1" d="M52.01,52.44c-.1-.07-.21-.13-.29-.19.1.07.22.17.29.19Z"/>
    <path class="cls-1" d="M52.06,52.52s-.23-.14-.26-.15l.37.28-.11-.12Z"/>
    <path class="cls-1" d="M51.94,52.64s.02.02.03.04c.07.03.02,0-.03-.04Z"/>
    <path class="cls-1" d="M51.95,52.74c.15.07.08,0,.02-.06,0,0-.01,0-.03-.01-.13-.05-.4-.24-.31-.23-.04-.07.23.1.07-.04l-.25-.1c0,.07.39.35.49.44Z"/>
    <path class="cls-1" d="M51.94,52.64s-.01-.02,0-.03c-.05-.02-.03,0,0,.03Z"/>
    <polygon class="cls-1" points="52.02 52.59 51.97 52.54 51.85 52.47 52.02 52.59"/>
    <path class="cls-1" d="M51.9,52.87c-.38-.24.09-.06-.2-.25-.01.06-.31-.08-.52-.22l.09.12c.13.11.44.26.63.34Z"/>
    <path class="cls-1" d="M50.87,52.37s.05.04.06.05c-.01-.01-.03-.03-.06-.05Z"/>
    <path class="cls-1" d="M51.37,53.03l-.31-.35c.12.09.24.16.27.21.08-.02-.16-.18-.09-.2.36.21-.02.09.31.26,0-.04.02-.09-.27-.3l.27.1-.4-.23c-.12-.05.28.23,0,.07-.17-.1-.19-.14-.22-.17.06.08-.36-.11-.34-.01,0,.09.62.46.78.62Z"/>
    <polygon class="cls-1" points="50.94 52.76 50.79 52.68 50.99 52.8 50.94 52.76"/>
    <path class="cls-1" d="M51.37,53.21l-.21-.21s.12.06.2.1c-.09-.06-.24-.16-.31-.21-.37-.19.07.14.11.22-.21-.02-.19-.12-.54-.3.02-.02.11.04.15.02-.43-.2-.11.09-.03.19.04.01.15.08.13.04l.09.11c.3.14.4.16.4.05Z"/>
    <path class="cls-1" d="M51.44,53.1s-.02.03-.07,0c.1.05.17.09.07,0Z"/>
    <path class="cls-1" d="M50.74,53.03s.02,0,0-.02c-.02,0-.02,0,0,.02Z"/>
    <path class="cls-1" d="M51.18,53.27l-.06.02.18.09s-.03-.05-.11-.11Z"/>
    <path class="cls-1" d="M49.59,54.4c.13.1.21.14.21.09.17.15.11.16.19.25.14.05.2.17.38.3.05-.03-.16-.24-.07-.24.05.04.13.1.19.15-.06-.15-.15-.37.04-.31.11,0,.06-.11.02-.23.24-.13.2-.47.53-.58l-.34-.28c.19.11.03-.05.27.11-.05-.02-.02.02-.03.04.35.17.06-.14.21-.12-.07-.04-.39-.24-.44-.29.41.27.04-.07.52.22.15.02-.36-.23-.25-.25-.24-.16-.15-.02-.34-.13-.18-.15.12,0-.14-.16-.18.02.21.51.25.75l-.21-.17c.11.18.04.31-.36.11.22.13-.19.02.3.35-.12-.06-.11-.04-.17-.04l.15.11s-.26-.14-.27-.09c.22.12.26.19.42.33-.26-.11-.5-.21-.71-.31.07.05.14.1.24.15-.09-.03.1.11.17.17-.01.04-.27-.16-.4-.26-.12-.01.36.39.17.3l.22.15c0,.09-.25-.04-.22.07-.3-.19-.2-.24-.31-.35-.07-.03-.1-.02-.2-.09.12.13.28.33.39.46-.3-.29-.34-.2-.37-.2Z"/>
    <path class="cls-1" d="M49.57,54.13s-.07-.07-.1-.1c.01.02.03.04,0,.04.04.03.07.05.09.07Z"/>
    <path class="cls-1" d="M49.59,54.4l-.03-.03s.02.03.03.03Z"/>
    <path class="cls-1" d="M50.56,54.64s-.02,0-.02,0c0,0,0,0-.01,0h.04Z"/>
    <path class="cls-1" d="M49.65,53.88c.08.04.17.09.25.12-.1-.07-.17-.12-.25-.12Z"/>
    <path class="cls-1" d="M50.14,53.72s-.1-.08-.16-.13c-.02.02.04.07.16.13Z"/>
    <polygon class="cls-1" points="49.47 54.15 49.5 54.24 49.54 54.3 49.47 54.15"/>
    <path class="cls-1" d="M49.75,55.85c.25.18.18,0,.26,0-.04-.2-.48-.48-.43-.58l.45.45c.05-.1.25-.13-.11-.57.06.05.15.09.2.18.03-.07-.66-.62-.44-.55.24.32.3.22.59.5l.02.04c0-.07-.1-.27-.05-.28-.12-.11-.34-.24-.32-.29-.04,0-.17-.13-.3-.24.11.15,0,.1.15.27-.18-.12-.04-.06-.22-.17l.12.16c-.06,0-.14-.16-.21-.16.09.08.17.2.12.21l-.05-.06c.05.08-.06.04.21.26l-.29-.21.18.16c-.12,0-.57-.37-.41-.1.07.03.15.14.17.18.15.08-.1-.16-.1-.21.18.16.35.4.49.46-.25-.15-.04.1-.5-.29-.07.02.13.24-.02.19l-.06-.06c.28.29-.16-.09.09.23l.09.04c.11.12.11.13.11.17t-.1-.1c.2.21.17.3.23.36.06.01-.08-.18-.1-.26.11.13.28.3.22.29Z"/>
    <path class="cls-1" d="M49.44,54.64l.09.11s-.04-.05-.09-.11Z"/>
    <path class="cls-1" d="M49.18,55.7c-.08-.02-.16-.19-.27-.26.1.17.31.27.48.52-.14-.11.03.14.02.16-.1-.14-.36-.42-.42-.47.06.09-.09-.03-.12-.02.21.14.05.14.27.3.15.17.2.34.07.23-.1-.13-.07-.11-.06-.13-.19-.24-.14-.1-.33-.31.23.37.04.48.52.98.1.09.01-.05.02-.09-.14-.06-.23-.28-.3-.38.09.07,0-.13.14.06l.13.23c.2,0,.34-.18.4-.38l-.07.04c-.12-.14-.1-.18-.14-.26l-.34-.31s0-.05.12.07c-.11-.16-.2-.23-.32-.34-.02-.09.11.03-.07-.21-.32-.21.16.27-.13.1l.4.47Z"/>
    <polygon class="cls-1" points="49.15 55.38 49.29 55.56 49.24 55.46 49.15 55.38"/>
    <path class="cls-1" d="M49.82,56.13c-.07-.08-.1-.11-.16-.19-.08-.02.02.08.16.19Z"/>
    <path class="cls-1" d="M48.77,55.73v.09s.09.05.09.05c-.07-.08-.08-.12-.09-.14Z"/>
    <path class="cls-1" d="M49.2,56.91c.04-.09-.06-.28.15-.15-.15-.26-.36-.43-.51-.65-.07-.03.24.37.26.47-.17-.19-.02.09-.09.07.07.08.14.18.19.26Z"/>
    <path class="cls-1" d="M48.41,56.26s.05.2-.04.11c-.09-.14-.1-.2-.06-.17-.21-.3,0,.07-.16-.12.02.03.07.08.1.15-.12-.02.12.28-.09.16.04.09.02.1.15.31-.22-.23-.19-.24-.39-.44.07.12.26.39.41.65-.32-.31-.08.12-.3-.13,0-.02-.03-.09,0-.06-.21-.37-.02.1-.09.04l-.16-.32c0,.07.04.31-.11.09l-.07-.17c.04.29-.11.22-.12.37l-.12-.19c0,.29.14.08.28.61-.26-.62.02.22-.14,0-.12-.24.01-.15-.13-.43.11.33,0,.1,0,.21-.1-.31-.08-.02-.18-.37.03.2.06.41.08.61-.07-.17-.1-.13-.11-.08.07-.01.11.47.23.59.08-.18.21-.36.42-.25-.16-.41.09-.03-.04-.37.06.13.12.24.19.36.04-.13-.12-.21-.17-.37,0-.07.15.16.22.3.07,0-.05-.11-.12-.34l.25.42c.14-.23.19-.65.54-.54l-.18-.25c.18.08-.24-.66.2-.17l-.13-.23c.07.13.28.36.38.55-.04-.1.06-.02.03-.12l-.13-.09c-.12-.23,0-.13.15.05-.12-.29-.35-.4-.51-.6.24.52-.4-.4-.34-.15.05.18.16.23.25.37Z"/>
    <path class="cls-1" d="M49,56.88s-.02-.05-.03-.08c0,.02.02.04.03.08Z"/>
    <path class="cls-1" d="M47.17,57.09s-.02,0-.02.02c.01.08.01.02.02-.02Z"/>
    <polygon class="cls-1" points="49.01 56.65 49.01 56.64 49.01 56.65 49.01 56.65"/>
    <polygon class="cls-1" points="48.6 56.02 48.58 56.02 48.66 56.13 48.6 56.02"/>
    <path class="cls-1" d="M46.81,56.79l.03.16s-.02-.1-.03-.16Z"/>
    <path class="cls-1" d="M46.11,56.77h.02s-.01-.01-.02,0Z"/>
    <path class="cls-1" d="M44.35,56.75c-.08.07-.19.14-.34.35l.08-.14c-.06.06-.26.24-.34.52l.08-.12c.17-.18-.07.27-.06.39.11-.04.39-.57.39-.42.03,0-.04.14-.09.25.04.07.24-.35.3-.4-.42,1.15.28-.24.11.51.09-.08.13.05.27-.16-.12.28.06.05-.04.37.19-.68.14.35.35-.51.04.26.01-.06.08.17-.02.1-.04.09-.05.11.01.19.14-.36.1.05.08.08.06-.23.14-.46.07.11.03.23.03.6.06-.42.09-.21.16-.42,0-.02-.06-.11,0-.27.09.08.11-.27.2-.37,0,.47-.09,0-.04.38-.08.21-.12.18-.19.52.08.03.2-.02.3-.22.05.06-.04.22,0,.26.09.21.16-.47.22-.26l-.02.24c.05-.32.17.08.25-.11-.02-.12-.03-.2-.02-.28.03.61.09-.32.2.1-.04-.38.01-.6.05-.65.03.1.04.26.05.37-.1-.22-.03.42-.09.6.04-.2.15,0,.17-.29l.02.3c.09.03-.02-.69.09-.42l.03.22c.15-.05.44.3.44-.23-.04-.18-.2-.58-.24-.72-.02.17.01.5-.01.66l-.07-.34c.04.23,0,.38.07.56-.01.18-.09-.29-.11-.09-.06-.36-.04-.4-.09-.7v.18c-.02-.14-.05-.12-.06-.26,0,.45-.12-.15-.17.06l.05.06c.03.2,0,.18-.01.25-.05-.28-.06-.24-.11-.36-.02.16,0,.52-.06.52-.02-.38-.1-.2-.12-.53.01.38-.08.14-.08.36-.02.08-.06.04-.06-.17,0-.01.01-.05.02-.06h-.02c0-.06,0-.09,0-.1-.02-.01-.02.27-.05.08,0-.1.01-.1.03-.14-.05-.07-.11.58-.15.23-.01.18-.09.19-.09.6-.01-.15,0-.47-.05-.41-.05.34-.05-.13-.1.09.08-.35,0-.1.08-.44-.02-.15-.11.31-.16.24,0-.08.01-.18.02-.27-.03.12-.09.39-.08.11l-.03.24c-.02-.13-.09-.06-.09-.33l-.13.45c.02-.5-.15-.08-.31.31-.02-.03-.05-.12-.02-.22.01-.03.04-.1.07-.16-.04-.03-.01-.29-.13.08-.07.1.04-.27.03-.33-.23.49-.09-.45-.38.33.03.01.04.19.12.18-.05.09-.08.25-.11.26-.08.01-.02-.29-.13-.18l.19-.49c.1-.53-.46.58-.25-.15Z"/>
    <path class="cls-1" d="M45.1,57.01l.02-.27-.05.22s.04-.03.03.05Z"/>
    <path class="cls-1" d="M45.07,56.96s-.03.06-.05.1c0,0,.02,0,.04-.04v-.06Z"/>
    <path class="cls-1" d="M44.15,56.76s0-.07-.04-.03c-.02.06,0,.09.04.03Z"/>
    <polygon class="cls-1" points="44.02 56.87 44.01 56.95 44.04 56.9 44.02 56.87"/>
    <path class="cls-1" d="M42.6,56.26c-.11.04-.21.08-.31.11.12-.11-.1-.09.16-.21-.35.16-.1-.15-.55.17.3.16.34.73.93.59l-.19.12c.41-.21-.13.54.53-.05l-.29.34c0,.15.5-.43.29,0l.1-.15s-.02.08,0,.1l.04-.07c.14-.12.16-.08.13.05-.07.12-.05.04-.09.06-.06.14.14-.09.17-.07-.04.12-.11.17-.14.22.21-.11.03.33.43-.21.06-.1.08-.21.14-.24.04-.22-.14-.01-.29.1h.02c-.38.53.04-.13-.18.06.16-.21.19-.19.28-.3.18-.46-.32.24-.02-.32h.02c.02-.07-.06.02-.11.05-.04.07-.05.12-.07.18-.05.04-.22.26-.3.35.14-.25-.11.09-.06-.05.15-.22.17-.17.27-.28l-.15.12s.14-.26.21-.38c-.15.14-.07.13-.27.33.15-.28-.03-.34-.29-.23.05,0,.2-.19.2-.14.03-.05-.1.01-.24.16-.18.08-.16-.08-.06-.26l-.14.15c-.3.18.1-.28-.12-.22h0c-.05,0-.47.28-.43.16.21-.12.21-.09.41-.23Z"/>
    <path class="cls-1" d="M42,56.19l.26-.11c.04-.06-.31.07-.46.16.07,0-.02.09.12.02.03-.02.12-.07.08-.07Z"/>
    <path class="cls-1" d="M41.66,55.48c-.07,0-.17.04-.24.05.07.17.27.32.09.48-.05.09.34-.07.46-.05l-.24.15c.17-.04-.04.2.35-.05.03-.02-.21.08-.15,0l.15-.07-.08-.04.19-.07c.22-.21-.58.2-.46,0l.37-.16c0-.08-.15-.07.05-.21,0,0-.19.07-.11.05-.02.02-.16.09-.28.12-.35-.01.23-.06.36-.2-.29,0-.57-.15-.26-.28-.23.1-.5.09-.49.01.13-.06.24-.03.36-.04.04-.04.13-.08.07-.09-.21.07-.52.11-.67.06-.21.22.55.18.54.32Z"/>
    <path class="cls-1" d="M41.32,55.53s.05.01.1,0c0-.02-.02-.04-.02-.06l-.07.06Z"/>
  </g>
</svg>