<?xml version="1.0" encoding="UTF-8"?>
<svg id="Layer_1" data-name="Layer 1" xmlns="http://www.w3.org/2000/svg" viewBox="0 0 100 100">
  <defs>
    <style>
      .cls-1 {
        fill: #585859;
      }

      .cls-1, .cls-2, .cls-3, .cls-4, .cls-5 {
        stroke-width: 0px;
      }

      .cls-2 {
        fill: #57b956;
      }

      .cls-3 {
        fill: #404041;
      }

      .cls-4 {
        fill: #b3d34b;
      }

      .cls-5 {
        fill: #fffbe3;
      }
    </style>
  </defs>
  <g>
    <g>
      <path class="cls-2" d="M74.59,68.36c2.78,4.6,1.16,10.68-3.63,13.58-4.79,2.9-10.93,1.51-13.71-3.09l17.34-10.49Z"/>
      <path class="cls-2" d="M56.77,78.94c-.83,5.32-5.98,8.93-11.51,8.07-5.53-.86-9.34-5.87-8.51-11.18l20.02,3.11Z"/>
      <path class="cls-2" d="M36.31,75.59c-4.05,3.54-10.32,3-14-1.22-3.68-4.21-3.38-10.5.67-14.04l13.34,15.25Z"/>
      <path class="cls-2" d="M22.8,59.87c-5.38.11-9.83-4.34-9.95-9.93-.11-5.59,4.15-10.22,9.53-10.33l.41,20.26Z"/>
      <path class="cls-2" d="M22.54,39.14c-4.19-3.37-4.74-9.64-1.23-14s9.75-5.16,13.94-1.78l-12.71,15.78Z"/>
      <path class="cls-2" d="M35.68,23.1c-1.04-5.28,2.56-10.44,8.05-11.52,5.49-1.08,10.78,2.32,11.83,7.6l-19.88,3.92Z"/>
      <path class="cls-2" d="M56.05,19.26c2.59-4.71,8.67-6.35,13.57-3.65,4.9,2.7,6.77,8.71,4.18,13.42l-17.75-9.77Z"/>
      <path class="cls-2" d="M74.12,29.4c5.02-1.94,10.72.71,12.74,5.93s-.41,11.02-5.43,12.96l-7.32-18.9Z"/>
      <path class="cls-2" d="M81.45,48.8c5.09,1.74,7.76,7.44,5.95,12.73-1.81,5.3-7.4,8.18-12.49,6.44l6.54-19.18Z"/>
    </g>
    <polygon class="cls-4" points="55.73 18.88 35.22 22.91 22.1 39.18 22.5 60.09 36.25 75.84 56.9 79.07 74.8 68.26 81.57 48.49 74.04 28.98 55.73 18.88"/>
  </g>
  <circle class="cls-5" cx="41.17" cy="42.38" r="6.86"/>
  <circle class="cls-5" cx="59.42" cy="42.38" r="6.86"/>
  <circle class="cls-3" cx="43.22" cy="42.58" r="3.3"/>
  <circle class="cls-3" cx="58.28" cy="43.09" r="3.3"/>
  <g>
    <polygon class="cls-1" points="57.75 56.86 57.77 56.75 57.57 56.9 57.75 56.86"/>
    <path class="cls-1" d="M58.21,56.03l-.16-.02c-.5.52-.4.32-.67.79.13-.02.41-.08.61-.28-.05-.02-.31.11-.29,0,.18-.11.21-.04.43-.19.09-.23-.18.06-.19-.1l.25-.21Z"/>
    <path class="cls-1" d="M57.58,56.39c.1-.07.2-.14.28-.21-.1.07-.25.13-.28.21Z"/>
    <path class="cls-1" d="M57.47,56.38c-.03-.07.2-.17.23-.2l-.41.24.18-.03Z"/>
    <path class="cls-1" d="M57.29,56.13s-.04,0-.06,0c-.05.06,0,.02.06,0Z"/>
    <path class="cls-1" d="M57.15,56.04c-.1.13,0,.1.09.08,0,0,.01-.01.02-.02.07-.12.35-.31.33-.2.1,0-.15.22.06.12l.14-.24c-.11-.06-.51.2-.64.25Z"/>
    <path class="cls-1" d="M57.29,56.13s.03,0,.04.02c.03-.05,0-.04-.04-.02Z"/>
    <polygon class="cls-1" points="57.36 56.27 57.44 56.26 57.54 56.16 57.36 56.27"/>
    <path class="cls-1" d="M56.96,55.87c.35-.28.08.17.36-.04-.08-.06.11-.34.32-.49h-.18c-.15.09-.38.35-.5.53Z"/>
    <path class="cls-1" d="M57.67,54.95s-.06.03-.07.03c.02,0,.05,0,.07-.03Z"/>
    <path class="cls-1" d="M56.72,55.03l.51-.1c-.13.08-.23.18-.3.16.03.13.26-.05.29.05-.3.3-.13-.11-.38.18.05.04.13.11.44-.08l-.15.27.32-.33c.07-.12-.33.17-.11-.06.14-.14.2-.13.25-.14-.12,0,.15-.38,0-.45-.13-.08-.66.42-.89.49Z"/>
    <polygon class="cls-1" points="57.09 54.69 57.22 54.56 57.04 54.73 57.09 54.69"/>
    <path class="cls-1" d="M56.45,54.87l.31-.09s-.09.11-.14.17c.08-.07.24-.16.3-.23.27-.32-.21-.04-.31-.05.01-.27.17-.14.42-.45.03.05-.05.11-.02.19.28-.4-.15-.23-.28-.21-.02.04-.11.13-.05.14l-.15.03c-.2.28-.22.39-.06.49Z"/>
    <path class="cls-1" d="M56.61,55.05c-.06-.02-.05-.05,0-.09-.08.08-.13.15,0,.09Z"/>
    <path class="cls-1" d="M56.68,54.18s0,.03.04.03c0-.02,0-.03-.04-.03Z"/>
    <path class="cls-1" d="M56.36,54.56s-.02-.06-.03-.11c-.04.06-.08.11-.12.16.03,0,.08.01.15-.06Z"/>
    <path class="cls-1" d="M53.17,54.24c.15.09.24.09.27-.03.17.16.06.25.14.38.18-.02.22.16.41.25.07-.07-.13-.32-.02-.39.04.05.12.13.18.17-.04-.21-.02-.68.16-.6.11-.03.11-.23.15-.52.12-.12.22-.31.33-.52.22.22.48.47.68.89.06-.15.13-.3.2-.44-.05.28.11.13,0,.42,0-.09-.04-.06-.07-.08-.06.52.23.22.28.48.03-.08.22-.45.29-.47-.29.42.16.17-.16.66,0,.22.29-.32.35-.12.22-.19-.03-.24.09-.44.2-.12.07.23.27,0-.08-.2-.35-.34-.61-.41-.26-.07-.5-.06-.66-.12l.09-.3c-.22.04-.42-.18-.61-1.06.06.46-.31-.56-.18.47-.05-.18-.06-.12-.12-.13l.03.32c-.06.1-.12-.37-.2-.2.12.3.08.51.13.85-.15-.3-.34-.46-.53-.6.04.09.09.19.16.29-.09-.02.02.27.05.4-.04.09-.19-.31-.26-.51-.16.08.12.84-.05.72l.17.23c-.04.19-.29.06-.33.31-.3-.19-.12-.4-.17-.63-.07-.03-.14.05-.23-.02.06.25.15.59.23.8-.25-.39-.38-.11-.45-.05Z"/>
    <path class="cls-1" d="M53.39,53.5c-.02-.08-.04-.14-.05-.19,0,.04,0,.08-.03.11.03.04.06.07.08.08Z"/>
    <path class="cls-1" d="M53.17,54.24l-.04-.02s.02.04.04.02Z"/>
    <path class="cls-1" d="M54.34,54.04s-.01,0-.02,0c0,0,0,0-.02.01h.04Z"/>
    <path class="cls-1" d="M53.84,52.54c.07.06.15.11.22.17-.06-.13-.11-.23-.22-.17Z"/>
    <path class="cls-1" d="M54.73,51.74s0-.19,0-.31c-.07-.1-.08.03,0,.31Z"/>
    <polygon class="cls-1" points="53.2 53.7 53.16 53.93 53.18 54.04 53.2 53.7"/>
    <path class="cls-1" d="M53.09,56.6c.27.15.22-.15.34-.23,0-.31-.56-.37-.49-.58l.53.35c.07-.2.33-.38-.07-.81.08.03.18.04.23.13.05-.13-.75-.51-.48-.56.26.34.35.14.67.37l.03.04c.02-.12-.08-.36-.02-.41-.14-.09-.4-.14-.35-.26-.06.03-.21-.08-.34-.16.1.19-.02.18.13.34-.22-.06-.04-.07-.25-.12l.13.17c-.07.03-.15-.16-.24-.1.1.07.18.21.12.26l-.05-.06c.05.09-.09.11.23.26l-.34-.11.21.11c-.16.09-.69-.14-.53.18.09,0,.18.1.2.14.19,0-.1-.18-.09-.27.21.11.4.37.57.36-.3-.05-.07.19-.61-.06-.1.1.15.26,0,.24l-.07-.06c.3.27-.16-.09.12.25l.09.03c.12.12.11.14.11.2-.04-.05-.04-.05-.1-.1.2.22.16.39.21.48.07-.02-.06-.28-.08-.38.11.15.28.33.21.35Z"/>
    <path class="cls-1" d="M52.86,54.88l.1.11s-.04-.06-.1-.11Z"/>
    <path class="cls-1" d="M52.54,56.56c-.06-.03-.11-.3-.19-.43.06.29.22.44.33.86-.1-.18,0,.27-.03.32-.05-.26-.21-.74-.25-.84.03.16-.06-.06-.08-.05.12.27,0,.27.14.57.08.32.06.69-.02.47-.04-.26-.02-.23,0-.27-.08-.48-.08-.19-.16-.62.08.72-.13,1.03,0,2.2.04.19.05-.16.08-.26-.1-.1-.05-.65-.07-.87.05.14.05-.31.09.12v.53c.2-.09.47-.67.61-1.12l-.09.14c-.08-.23-.05-.31-.07-.45-.09-.14-.18-.29-.27-.44.03.01,0-.08.1.09-.09-.23-.17-.33-.26-.49-.03-.11.09.04-.08-.26-.24-.34.15.36-.05.06.1.24.19.49.28.75Z"/>
    <polygon class="cls-1" points="52.52 56.08 52.65 56.33 52.6 56.18 52.52 56.08"/>
    <path class="cls-1" d="M53.09,57.1c-.06-.1-.07-.17-.13-.26-.08,0,0,.15.13.26Z"/>
    <path class="cls-1" d="M52.24,56.58v.18s.02.11.02.11c-.02-.17-.02-.25-.02-.3Z"/>
    <path class="cls-1" d="M51.97,59.45c.11-.29.14-.77.27-.52.03-.64-.07-1.01-.07-1.55-.04-.07,0,.89-.05,1.17-.02-.48-.07.24-.12.21,0,.21,0,.47-.03.7Z"/>
    <path class="cls-1" d="M51.88,57.55s-.06.27-.05.11c0-.02,0-.05,0-.08.02-.11.03-.2.04-.27.02-.13.03-.15.02-.07.05-.5.04-.37.02-.31,0,.04-.02.05,0-.18-.01.09-.03.22-.05.4,0-.28-.11.55-.08-.02-.04.17-.05.14-.13.6.08-.67.09-.63.17-1.18-.05.26-.18.86-.3,1.42.07-.58.04-.52.02-.55-.02,0-.05.02,0-.28.01,0,.05-.11.04-.02.19-.65-.06.03-.05-.17l.18-.49c-.04.05-.2.25-.07-.12l.11-.2c-.19.23-.17-.04-.3-.02.05-.08.09-.15.14-.21-.27.07-.03.22-.48.53.49-.51-.21.06-.07-.25.19-.2.16.01.38-.23-.28.2-.1.02-.21.03.27-.17-.01-.12.31-.28-.22.03-.44.05-.65.1.13-.13.06-.18,0-.2.07.11-.41.25-.46.45.23.06.52.33.51.78.34-.38.08.2.34-.13-.09.17-.17.32-.27.48.13.1.15-.34.28-.45.07,0-.09.37-.2.58.03.19.09-.14.27-.38-.09.23-.19.5-.29.77.13.17.28.26.39.38.11.13.17.31.18.97l.1-.87c0,.08,0,.12.02.11.07-.02.17-1.07.14.03l.06-.64c-.04.36-.05,1-.1,1.53.05-.29.07-.09.11-.36l-.04-.22c.07-.64.08-.34.08.11.09-.78-.02-1.03.01-1.6-.15,1.38.02-1.11-.03-.64-.05.36-.07.66-.1,1.05Z"/>
    <path class="cls-1" d="M51.81,59.43c0-.07.02-.14.03-.22,0,.05-.02.12-.03.22Z"/>
    <path class="cls-1" d="M50.88,55.61s-.02-.03-.05-.04c-.07.03-.01.02.05.04Z"/>
    <path class="cls-1" d="M52,58.76s0,0,0-.01c0,0,0,.01,0,.01h0Z"/>
    <polygon class="cls-1" points="52.07 57.11 52.06 57.12 52.05 57.41 52.07 57.11"/>
    <path class="cls-1" d="M50.76,54.87l-.11.11s.08-.07.11-.11Z"/>
    <path class="cls-1" d="M49.07,53.91h.04s-.02,0-.04,0Z"/>
    <path class="cls-1" d="M46.2,56.49c.05.14.1.34.22.63l-.1-.15c.05.13.02.47.28.63l-.05-.14c-.04-.32.24.14.4.1.07-.21-.36-.72-.21-.73,0-.06.14.05.23.14.09-.12-.29-.43-.33-.53.55.29.51.12.41-.06-.1-.18-.26-.35.13-.32-.07-.12.06-.2-.13-.38.26.16.06-.09.37.08-.32-.15-.21-.2-.13-.22.09-.02.14-.04-.19-.34.3.05-.03-.05.24-.04.07.07.05.09.05.11.16.09-.16-.36.13-.08.14-.02-.13-.21-.18-.46.21,0,.23.13.46.42-.17-.39,0-.24,0-.47-.02-.01-.17-.05-.15-.23.23-.02.08-.32.29-.5.2.44-.21.07.05.38-.08.25-.17.24-.11.59.14-.02.27-.13.42-.34.1.06-.02.22.05.26.15.2.23-.49.37-.27l-.04.24c.1-.32.26.09.43-.05,0-.12.01-.21.05-.28-.15.59.31-.25.34.22.12-.37.37-.5.5-.48,0,.11-.09.25-.14.34-.06-.28-.33.3-.49.44.16-.15.21.1.42-.11l-.17.25c.07.1.45-.53.43-.2l-.14.17c.26.15.18.64.7.51.16-.09.41-.46.51-.56-.23-.03-.54.12-.72.15l.25-.25c-.19.15-.38.16-.46.35-.18.07.16-.27-.05-.19.24-.27.32-.26.52-.48l-.2.06c.12-.09.02-.14.14-.23-.43.22-.15-.32-.46-.28l.08.12c-.1.17-.15.12-.22.15.09-.28.03-.26-.02-.42-.16.1-.34.42-.44.38.15-.35-.12-.27-.06-.58-.13.36-.28.07-.34.29-.08.07-.15.02-.13-.19.01,0,.04-.04.06-.06l-.07-.02s.01-.08.02-.08c-.06-.02-.09.26-.15.06.01-.1.05-.09.09-.13-.18-.09-.32.56-.44.21-.03.18-.2.21-.13.61-.05-.14-.06-.47-.18-.4-.02.35-.16-.1-.22.13.06-.38-.02-.1.04-.46-.13-.13-.18.36-.34.34-.04-.07-.07-.17-.12-.24-.03.14.01.42-.15.18l.1.22c-.16-.08-.25.07-.51-.09.04.16.09.32.14.47-.46-.29-.39.29-.08.6-.05.03-.16.05-.25,0-.03-.03-.07-.09-.11-.14-.06.06-.35.07-.03.28.07.13-.27-.04-.36.01.45.34-.54.43.26.67.02-.06.21-.15.21-.28.09.06.25.08.26.12,0,.12-.3.11-.21.3l-.5-.19c-.27-.01-.11.1,0,.27.12.16.19.36-.15.14Z"/>
    <path class="cls-1" d="M46.77,55c-.09-.02-.19-.04-.29-.05l.2.12c0-.05.01-.08.09-.06Z"/>
    <path class="cls-1" d="M46.68,55.06s.02.07.05.11c.02-.02.02-.04,0-.08l-.05-.03Z"/>
    <path class="cls-1" d="M46.14,56.82s-.07-.03-.06.06c.05.05.1.04.06-.06Z"/>
    <polygon class="cls-1" points="46.18 57.05 46.27 57.11 46.23 57.04 46.18 57.05"/>
    <path class="cls-1" d="M43.63,56.69l-.29.21c.06-.15-.19-.07,0-.28-.26.29-.25-.13-.46.38.48.05.85.63,1.54.45l-.18.15c.4-.28.36.75.83.01l-.12.44c.19.21.38-.53.53,0l-.02-.19s.06.1.11.11l-.02-.09c.1-.16.15-.13.29,0,.04.14-.04.06-.07.1.08.15.12-.16.2-.16.1.11.05.2.06.26.2-.24.55.12.38-.58-.05-.11-.16-.16-.13-.26-.21-.11-.17.19-.26.39h.04c.08.63-.13-.12-.24.16,0-.26.07-.26.06-.4-.17-.28-.18-.18-.23-.1-.04.08-.09.13-.17-.25v-.02c-.02-.08-.04.05-.08.1.01.09.05.16.08.24-.04.05-.05.33-.07.45-.05-.31-.08.12-.17-.06,0-.29.09-.22.12-.36-.03.05-.07.1-.1.15-.09-.02-.05-.33-.06-.5-.1.18.01.17-.09.43-.03-.38-.37-.47-.66-.34.07,0,.16-.24.2-.16,0-.07-.14,0-.24.18-.19.1-.27-.09-.28-.31l-.07.19c-.25.25-.09-.34-.34-.25h0c-.07.02-.35.42-.39.29.14-.2.18-.15.29-.37Z"/>
    <path class="cls-1" d="M42.88,56.8l.19-.22c-.02-.08-.27.19-.34.36.06-.03.05.1.14-.04.01-.04.06-.13.02-.1Z"/>
    <path class="cls-1" d="M41.86,56.29c-.05.05-.1.14-.14.2.23.09.54.14.52.37.03.11.25-.25.39-.29l-.1.27c.14-.13.13.22.31-.21.01-.04-.15.17-.15.07l.09-.14h-.12s.13-.16.13-.16c.01-.32-.39.48-.45.23l.2-.35c-.1-.08-.22.01-.19-.25,0,0-.1.18-.04.11,0,.03-.05.18-.12.28-.32.19.14-.2.11-.4-.27.17-.65.22-.56-.1-.05.25-.28.42-.34.36.03-.14.14-.2.21-.3-.01-.06,0-.16-.06-.13-.06.22-.24.47-.39.54.06.32.57-.25.73-.1Z"/>
    <path class="cls-1" d="M41.64,56.55s.05-.03.08-.06l-.08-.03v.1Z"/>
  </g>
</svg>