<?xml version="1.0" encoding="UTF-8"?>
<svg id="Layer_1" data-name="Layer 1" xmlns="http://www.w3.org/2000/svg" viewBox="0 0 100 100">
  <defs>
    <style>
      .cls-1 {
        fill: #57b956;
      }

      .cls-2 {
        fill: #373737;
      }

      .cls-3 {
        fill: #404041;
      }

      .cls-4 {
        fill: #fffbe3;
      }

      .cls-5 {
        fill: #b3d34b;
      }
    </style>
  </defs>
  <g>
    <g>
      <g>
        <path class="cls-1" d="M71.08,67.3c2.78,4.6,1.16,10.68-3.63,13.58-4.79,2.9-10.93,1.51-13.71-3.09l17.34-10.49Z"/>
        <path class="cls-1" d="M53.26,77.88c-.83,5.32-5.98,8.93-11.51,8.07-5.53-.86-9.34-5.87-8.51-11.18l20.02,3.11Z"/>
        <path class="cls-1" d="M32.8,74.53c-4.05,3.54-10.32,3-14-1.22-3.68-4.21-3.38-10.5.67-14.04l13.34,15.25Z"/>
        <path class="cls-1" d="M19.28,58.81c-5.38.11-9.83-4.34-9.95-9.93-.11-5.59,4.15-10.22,9.53-10.33l.41,20.26Z"/>
        <path class="cls-1" d="M19.03,38.08c-4.19-3.37-4.74-9.64-1.23-14,3.51-4.36,9.75-5.16,13.94-1.78l-12.71,15.78Z"/>
        <path class="cls-1" d="M32.16,22.04c-1.04-5.28,2.56-10.44,8.05-11.52,5.49-1.08,10.78,2.32,11.83,7.6l-19.88,3.92Z"/>
        <path class="cls-1" d="M52.53,18.2c2.59-4.71,8.67-6.35,13.57-3.65,4.9,2.7,6.77,8.71,4.18,13.42l-17.75-9.77Z"/>
        <path class="cls-1" d="M70.61,28.34c5.02-1.94,10.72.71,12.74,5.93,2.02,5.22-.41,11.02-5.43,12.96l-7.32-18.9Z"/>
        <path class="cls-1" d="M77.94,47.74c5.09,1.74,7.76,7.44,5.95,12.73-1.81,5.3-7.4,8.18-12.49,6.44l6.54-19.18Z"/>
      </g>
      <polygon class="cls-5" points="52.22 17.83 31.71 21.85 18.58 38.13 18.99 59.03 32.74 74.78 53.39 78.01 71.29 67.21 78.05 47.43 70.52 27.92 52.22 17.83"/>
    </g>
    <circle class="cls-4" cx="40.84" cy="43.17" r="8.84"/>
    <circle class="cls-4" cx="56.06" cy="42.17" r="6.86"/>
    <circle class="cls-3" cx="38" cy="37.52" r="3.3"/>
    <circle class="cls-3" cx="58.06" cy="38.03" r="3.3"/>
  </g>
  <g>
    <path class="cls-2" d="M65.03,53.83l-.1-.11h0s0,0,0,0h0s0,.01,0,.01v.02s.04.03.04.03c.02.02.04.05.06.07.04.04.06.07.05.05l.04.04s-.07-.07-.1-.11Z"/>
    <path class="cls-2" d="M65.42,53.96c-.09,0-.19.03-.3.1-.06.03-.05.03-.02.01.07-.05.11-.05.15-.06.03,0-.01,0,0,0,.02,0-.06-.02-.07-.04.2.16.26,0,.04.05.07-.03.15-.05.21-.06Z"/>
    <path class="cls-2" d="M60.92,53.46l.04.03s-.02-.03-.04-.03Z"/>
    <path class="cls-2" d="M58.01,53.73s.02-.05.02-.08c-.02.02-.03.05-.02.08Z"/>
    <path class="cls-2" d="M57.46,53.45s.02.01.03.02c-.02-.03-.03-.04-.03-.02Z"/>
    <path class="cls-2" d="M60.92,53.46l-.09-.09c.01.11.05.07.09.09Z"/>
    <path class="cls-2" d="M64.67,54.34s.03-.04.05-.07l-.03.03-.02.05Z"/>
    <path class="cls-2" d="M62.15,53.02h.02s0-.09,0-.14l-.02.14Z"/>
    <path class="cls-2" d="M63.12,52.83s0,.27.01.39c0-.12,0-.17.02-.2,0-.05-.02-.12-.04-.2Z"/>
    <path class="cls-2" d="M64.83,53.2l.04-.03-.04.03Z"/>
    <path class="cls-2" d="M61.44,53.06s-.02-.08-.02-.1c0,.03.01.07.02.1Z"/>
    <path class="cls-2" d="M35.1,60.95s0-.03-.01-.05c0,.03,0,.05.01.05Z"/>
    <polygon class="cls-2" points="33.61 59.94 33.62 59.92 33.58 59.77 33.61 59.94"/>
    <path class="cls-2" d="M56.5,53.24h0s0-.02,0,0Z"/>
    <path class="cls-2" d="M48.3,55.03c.15.23-.08.35.12.59-.04-.1.03-.46-.12-.59Z"/>
    <path class="cls-2" d="M64.68,54.3s-.01,0-.02,0c0,.01.01.01.02,0Z"/>
    <path class="cls-2" d="M48.42,55.62h0s.02.02.02.02c0-.01-.01-.02-.02-.02Z"/>
    <path class="cls-2" d="M54.45,53.77s.03.08.04.12c0-.03-.02-.06-.04-.12Z"/>
    <path class="cls-2" d="M56.07,53.89l-.04-.03s.03.03.04.03Z"/>
    <path class="cls-2" d="M53.73,54.31s-.04-.05-.06-.01c0,.01.01.02.01.03,0-.04.01-.06.05-.02Z"/>
    <path class="cls-2" d="M52.9,54.47s.02.04.03.05l.02-.02-.05-.03Z"/>
    <path class="cls-2" d="M37.5,60.12c-.04-.07-.07-.15-.11-.23.07.19-.03.29.11.23Z"/>
    <path class="cls-2" d="M64.73,54.19c-.03.06-.04.1-.05.11,0,0,.01,0,.02,0,.02-.04.03-.08.04-.1Z"/>
    <path class="cls-2" d="M54.1,56.5l-.14-.02s.09.03.14.02Z"/>
    <path class="cls-2" d="M43.3,58.55l-.02.04s.02,0,.02-.04Z"/>
    <path class="cls-2" d="M53.58,56.59c-.04-.09-.08-.15-.11-.18,0,.02,0,.04,0,.07l.11.1Z"/>
    <path class="cls-2" d="M37.4,59.88h0s0,0,0,0Z"/>
    <path class="cls-2" d="M36.74,60.77c.12-.03-.04-.36-.07-.58.12-.14.14.24.24.41.06-.12.04-.47.11-.47.02.06.04.07.05.15.02-.31.28-.1.29-.48.02.03.03.06.04.08-.07-.17-.12-.35-.15-.48.05-.02.04-.25.12-.03-.04,0-.01.1,0,.17l.03-.12c.15.32-.05.14.02.39.08-.14.13-.45.25-.38.11.32-.17.17.03.42l-.17-.09c.25.49-.09-.01.16.51.2.04.15-.22.35-.17-.01-.19-.09-.27-.1-.46.16-.39.42.77.48.28-.01-.23-.11-.65.08-.47l.06.38c.18,0-.05-.56.2-.36,0,.15-.1.16-.06.2.19.26.02-.23.11-.26l.11.32c.17-.1.3-.39.48-.51.02.1,0,.21.08.3.21-.23.55-.1.84.03l.02-.31s.07.12.07.18c.12.08-.04-.18-.03-.3.05-.03.11.14.1.24.1-.28.34-.64.6-.39v.09c.15.08,0-.62.19-.39v.06c.32.04.58-.3.92.07-.06-.42.34.11.22-.47.24.24.22.35.51.49.07.01,0-.38.07-.46l.08.3.03-.34.15.34.06-.1s-.1-.12-.11-.21c.08-.17.33.14.38.29l.21-.32c.02.12-.01.17-.03.26.07-.34.1.31.17,0-.03-.06-.03-.18-.05-.24.11.16.26.13.36.03l.03.21c.22,0,.41-.2.64-.25-.11-.08-.17-.44-.11-.49l.1.31c0-.21-.1-.1-.07-.36.09.02.14.35.12.46l.08-.14c.03.09.02.15.04.27,0-.21.25.27.24-.08l.03.09c.23-.05.31-.18.49-.24-.06-.27.03-.23.03-.46.16.06.36.24.52.17.09-.16-.02-.24,0-.42.07.25.23.19.18.39.19-.09.24-.11.45-.37-.05-.1-.09-.13-.09-.22.04-.05.13.08.15.2v.03c.19-.44.81.58.92.01v.03s.17-.32.17-.32c.12.02-.02.2.09.34.16-.47.41-.03.56-.35.32.7.56-.18.88.25l-.05-.17c.02-.18.09.09.14.12-.03-.13-.09-.14-.08-.25.43-.31,1.04.05,1.55.11.19.01-.08-.92.23-.55v.34c.28-.46.74-.13,1.03-.53,0,.08.01.18-.02.18.12.22.28-.04.24-.24.06.01.05.17.1.26.1.12.13-.34.21-.11.01.04,0,.08-.02.1.03-.12.23-.01.13-.28.16.11.23-.17.37-.03.01-.32.25.1.2-.33.07.45.3.32.35.09,0,.14.1.13.1.32.09-.02.17-.12.11-.35.27.5.28-.49.5.17.24-.29.48-.5.72-.65.07.45-.28.09-.18.56.21-.23.28-.63.54-.57.07.05,0,.2,0,.28.21-.23.48-.04.65-.32,0,.04,0,.09-.03.13.04-.02.11.05.07-.15l-.03.06c-.12-.28.06-.64.05-.8.03.59.24.11.25.86.02-.04.04-.14.01-.28.05.03.08.11.06.27.13-.14.04-.34.18-.36.02.1,0,.14,0,.26.04-.2.08-.41.21-.34,0,.06.03.13,0,.14.2-.06.26-.57.51-.42,0,.44.1.13.17.49l.1-.13-.08-.17c.11-.01.15-.29.26-.19l-.05.16.18-.1-.13-.12c.07-.21-.09-.46.07-.38-.02.04.11-.01.19.2h0c.03-.12.07-.26.16-.18.04.11.05.41.07.49,0-.32.23-.12.24-.46,0,.08.02.27.03.31v-.26c.06.07.08.11.09.27.15.02-.12-.46.08-.29-.01.02,0,.06-.02.1.19.08.31-.21.49-.11.1.36-.13.11-.02.42.22-.1.41-.52.64-.47l-.05-.03c-.05-.53.2.23.28-.03-.02.04,0,.3,0,.24.16.06.29-.18.5-.37v.14c.1.11.24.04.34.08,0-.14.07-.12,0-.32.41.73.51-.49.87.11-.03,0-.06.13-.03.13l.21-.16c-.05-.23-.05-.13-.12-.31,0-.14.06-.25.12-.26-.08.17.05.37.11.49-.02-.07-.01-.15-.03-.22.17.39-.04-.46.16-.21v.12c.06-.07.09-.24.16-.21.06.26-.05.13-.02.35.09-.03.11-.53.23-.27-.03.08-.08.09-.11.17.13.3.13.22.21.26h0s.17.11.17.11l-.05-.08c.02-.71.22-.16.31-.63-.09.45,0,.25.04.55.05.08.12.16.12.25.04-.25.15.17.2-.19.02.1.08,0,.09.24.08-.09-.04-.17-.05-.29.1-.35.4.35.55-.13.08-.2.1-.53.31-.66.02.16-.1.34-.1.34.05.15.08.14.19.05-.04.08-.05.15-.07.26.04,0,.16-.32.17-.16-.05.09-.14.24-.2.34.07-.07.19-.21.29-.25-.09.15-.17.2-.23.29.08-.04.12-.1.34-.27.02-.03.03-.06.05-.09.03,0-.16.17-.2.2-.15.15.03-.1.08-.18l.07-.03c.16-.24.09-.26-.01-.22-.1.05-.22.17-.25.14.06-.12.13-.25.2-.37-.09.09-.16.18-.23.28.01-.11.06-.34.14-.38-.04-.23-.12.12-.14-.12,0-.04,0-.06.02-.07-.04.03-.08.07-.12.1.03-.08.03-.29.09-.22-.19-.27-.33.28-.42-.02l.02-.03c-.23.17,0,.31-.11.68l-.2-.73.02.31s-.07-.02-.08-.15c-.05.22.03.13,0,.33-.14-.26-.27.17-.36-.31,0,.24.12.16.03.34-.1-.51-.12.11-.25-.12,0-.27.1-.14-.02-.37,0,.46-.2-.07-.27.02.04.36-.16.17-.28.31,0-.12-.28-.16-.43-.28v-.06c.02.37-.12.32-.2.41-.03-.22-.02-.31.02-.41h-.09c0,.13-.02.2-.08.25l-.02-.28c-.12.03-.2.35-.37.2.03.25.22.69.08.88-.03-.14-.06-.37-.03-.43-.01.02-.03.12-.07.07l.03-.24c-.08-.09,0,.2-.07.18-.03-.2-.06-.13-.08-.29.01-.02.06.07.07,0-.07-.03-.16-.13-.21-.28.02.11.04.26,0,.3-.12.03-.07-.23-.16-.32,0,.14-.11.01-.07.3-.04,0-.06-.13-.09-.21-.04.14-.28.08-.17.38l.02.02s0,0,0,.01h0s0,0,0,0c-.16.32-.44-.11-.63.05v-.1c-.12.13-.27.11-.32.33-.04,0-.11-.17-.11-.28-.08.09-.07.2-.23.06.07-.18-.05-.15.08-.14-.13-.07-.18-.22-.27.07,0-.26-.14-.3-.18-.22l.11.17c-.06.05-.12.03-.18.02l-.02-.33c-.31-.36-.33.75-.62.11-.03.24.16.14.14.42-.12-.03-.31-.48-.35-.48-.18-.16-.07.5-.25.41.04.11.11.42,0,.55-.12-.02-.22-.47-.16-.57.03-.01.04.02.05.06.03-.05.07-.11,0-.23v.12c-.07-.11-.22-.07-.22-.27-.07.13,0,.2.07.25-.17-.15-.23.03-.39-.06.03.06.08.19.05.2-.24-.11-.06.24-.2.31-.11-.16-.04-.43-.16-.26-.11-.11-.07-.31-.05-.41-.1.25-.28-.11-.36-.14l.06-.11c-.03.06-.07.07-.1.07l.08.23s-.08-.03-.1-.13c-.02.16.1.38.05.61-.08-.11-.15.16-.22-.15.19.08-.07-.31.07-.38-.02.04-.06.05-.11.01-.01-.03,0-.07,0-.08-.21-.25-.02.36-.19.39,0-.18-.1-.32-.12-.28.07,0,.08.29.04.43-.13-.12-.1.12-.16.12l.08.05c0,.18-.05.17-.12.23-.03-.14.05-.11.02-.16-.03.32-.25-.28-.33-.06-.08-.11-.06-.33-.13-.4-.09.25-.19-.21-.3,0,.08.23.08.17.02.42l.2-.21-.09.37c.07,0,.12-.17.17-.14-.04.2-.04.14.03.33-.16-.34-.15.24-.31.02l-.1-.58c-.21-.23-.24.35-.49.24l.09.09c.01.24-.13.06-.18.16-.03-.2-.08-.26-.14-.37.03.14-.16.02-.11.41l-.14-.24c-.19-.07-.1.59-.28.56.01-.22-.09-.34,0-.52-.06,0-.11-.02-.09.12-.06-.12-.11.29-.19.12,0,.09.02.29-.04.29-.01-.04-.02-.1-.02-.1.02.1-.07.15.02.35-.29-.57-.47.13-.72-.36-.11.09-.24.18-.35.21,0-.06-.02-.1,0-.08-.19-.15.01.58-.2.41-.15-.3.06-.19-.02-.3-.15-.63-.19.13-.38-.22l.02-.04c-.13-.2-.17.28-.33.27,0,0,0-.06-.02-.1-.04.34-.2.49-.32.61,0-.26.04-.14-.04-.39-.06.05.1.4-.01.5-.07-.13-.18-.23-.25-.5l.12-.04c-.13-.34-.15.04-.23,0l-.02-.15c-.17.09-.1.47-.3.48l.04.11c-.03.4-.13-.2-.18.11l-.11-.38c-.05.11-.17.43-.28.52.01-.3.13-.48.19-.67-.07.01-.23.08-.23.28.02-.04.04-.15.08-.09-.02.32-.1.49-.24.52-.13-.75-.4-.11-.62-.67-.19.33-.51-.02-.79.09.23.56-.08.03.07.63-.06.05-.09.05-.1.01l-.28-.31c-.09-.16.03-.15,0-.28-.16-.01-.12-.24-.25-.38.07.21.02.32-.09.25l.18.25c-.13.36-.29-.46-.42-.1l.02-.2c-.08.13-.39.08-.39.58-.03-.06-.09-.22-.06-.28-.27-.02-.45.63-.71.38v-.15c-.05.05-.03.29-.13.16-.01-.06-.01-.15-.04-.15-.01.06-.07.28-.15.21l.02-.18c-.29-.13-.28.49-.47.63-.1-.43-.32-.52-.44-.57v-.06c-.31.01-.41.47-.64.7-.27-.43-.6-.06-.93-.26.06.07.07.34.04.39-.08-.07-.1.34-.18-.06h.02c-.14-.37-.24-.24-.34-.23l.11.52c-.44-.69-.61.44-.91-.19-.03.14-.11.16-.14.31l-.07-.28c-.19-.03-.29-.04-.48.08v-.21c-.13.01.04.83-.06.87l-.14-.4c-.21.06-.51-.25-.62.18-.01-.06-.04-.18,0-.21-.1.02-.45-.18-.27.38-.1-.36-.23.02-.3.21l-.05-.27c0,.37.02.46-.09.59-.04-.03-.08-.21-.02-.15-.14-.11-.01.28-.18.17v-.18c-.11,0-.08.1-.09.31-.04.13-.22-.01-.3-.25.02.15.02.37-.06.31-.03-.09-.03-.15-.02-.18-.23-.14-.18.38-.38.15-.03-.09-.05-.13-.06-.15.15-.03.26-.05.26-.02-.07-.25-.19-.26-.19-.63-.04.21-.09.66-.24.57-.01-.02-.02-.05-.04-.08v-.03s-.05.01-.06.06c-.05-.03-.08-.05-.11-.05-.07-.2-.16-.07-.22-.07.08.27,0,.25.12.45-.01-.02,0-.04.04-.06,0-.01.02-.02.02-.03v.02s.09-.04.14-.06c0,.15-.02.28-.13.15.02.18.03.37.04.46-.18-.36-.39-.52-.47-.75-.13.2-.39.21-.36.75-.03.08-.1-.13-.14-.21.01-.06.05-.06.05-.14-.06.16-.28.13-.21.49-.17-.13-.02-.35-.18-.24v-.12c-.51-.47-.3,1.06-.89.44.04.04.06.05.08.11-.52-.2-.8.55-1.37.17-.15-.07-.1.16-.12.36l-.11-.28-.03.37c-.11.3-.52-.62-.61-.09l.09.19c-.09-.01-.22.19-.27-.04,0,.04.03.21-.03.12l-.05-.15-.12.32c-.19-.06-.16-.61-.39-.57-.07.08-.11.51-.04.6.04,0,.11.07.16.22l-.05.1c.12.45.2.92.48,1.18l.05-.31.11.2-.1.05c.12.19.11,0,.11-.14.04.11.09.19.13.22v-.46c.07.17.05.36.16.43,0-.22-.17-.37-.11-.53.12.18.15.35.17.16.04.11.05.19.04.25.02-.16.15-.11.12-.36.14.23.2-.13.32.29,0-.11.02-.37.07-.4.04.54.23-.04.36.52-.05-.48.23-.29.3-.58,0,.04,0,.12-.01.1.09.01.15.15.23.22-.1-.38,0-.5,0-.75.2.33.07.46.2.8-.09-.3.08-.35-.02-.6.14.2.1.09.22.39-.12-.47.05-.1.03-.41.18.2.15.43.23.26.1.13.04.33.04.33ZM39.36,59.16h0s-.04.03-.05.04c.01,0,.03-.02.05-.04ZM39.6,59.09s-.07,0-.11.02c-.03-.09-.05-.19-.02-.19,0,.07.07.11.13.18ZM38.58,57.34s.06,0,.08.05c-.02,0-.04.02-.06.05v.03c0-.05-.01-.1-.02-.14Z"/>
    <path class="cls-2" d="M38.61,57.72s0,.02-.01.02c.02.02.03.04.04.05v-.09s-.03,0-.03,0Z"/>
    <path class="cls-2" d="M60.96,53.5h0s.01.02.02.03c0-.01,0-.02-.01-.03Z"/>
    <polygon class="cls-2" points="43.06 58.75 43.04 58.68 43.04 58.75 43.06 58.75"/>
    <path class="cls-2" d="M62.46,54.26s.01.05.03.07c0-.02-.01-.04-.03-.07Z"/>
    <path class="cls-2" d="M63.05,54.25l.1.09c-.04-.05-.07-.07-.1-.09Z"/>
    <path class="cls-2" d="M63.52,54.33s0-.09,0-.12h0s0,.12,0,.12Z"/>
    <path class="cls-2" d="M56.42,55.74s-.01,0-.02.02c-.03.06,0,.03.02-.02Z"/>
    <path class="cls-2" d="M58.44,54.74c-.01.05-.03.11-.05.14.04.02.07.02.05-.14Z"/>
    <polygon class="cls-2" points="54.11 56.5 54.11 56.49 54.1 56.5 54.11 56.5"/>
    <path class="cls-2" d="M58.29,54.89s.08.03.1-.01c-.03-.01-.08-.04-.1.01Z"/>
    <polygon class="cls-2" points="64.84 54.29 64.87 54.25 64.88 54.25 64.84 54.29"/>
    <path class="cls-2" d="M64.88,54.25l.04-.04s-.01.01-.04.04Z"/>
    <path class="cls-2" d="M65,54.13l-.08.07s.02-.01.08-.07Z"/>
    <path class="cls-2" d="M64.62,54.21l-.03.1s.01-.05.03-.1Z"/>
    <path class="cls-2" d="M64.54,54.23s0,.22.04.16l.02-.08c-.04.14-.01-.25-.06-.08Z"/>
    <path class="cls-2" d="M63.79,53.05l.16.06c-.04-.1-.09-.24-.03-.28-.24-.3.07.24-.14.22Z"/>
    <path class="cls-2" d="M63.29,52.96c.08-.06-.02-.16-.03-.22-.04.1-.05.13.03.22Z"/>
    <path class="cls-2" d="M59.86,53.44l-.03-.25c-.06.05.01.1.03.25Z"/>
    <polygon class="cls-2" points="59.4 54.85 59.49 55 59.48 54.76 59.4 54.85"/>
    <polygon class="cls-2" points="58.74 53.11 58.76 53.07 58.67 53.18 58.74 53.11"/>
    <path class="cls-2" d="M53,54.19l.08.31c.03-.06-.02-.41-.08-.31Z"/>
    <path class="cls-2" d="M50.59,54.99c-.06-.15-.15-.23-.16-.07.06,0,.14.12.16.07Z"/>
    <polygon class="cls-2" points="43.1 56.14 43.13 56.02 43.05 56.13 43.1 56.14"/>
  </g>
</svg>