<?xml version="1.0" encoding="UTF-8"?>
<svg id="Layer_1" data-name="Layer 1" xmlns="http://www.w3.org/2000/svg" viewBox="0 0 111.97 111.97">
  <defs>
    <style>
      .cls-1 {
        fill: #3f3b3c;
      }

      .cls-2 {
        fill: #8c9daa;
      }
    </style>
  </defs>
  <path class="cls-2" d="M74.74,110.21c-23.31-29.81-38.04-44.03-57.27-73.23,27.87-2.63,55.73-5.26,83.6-7.89-18.28,12.13-36.57,24.27-53.98,37.62-12.17,9.34-23.99,19.31-37.45,26.66C25.86,63.88,42.14,34.26,53.98,2.76c3.35,40.81-2.02,40.88,13.69,78.69l7.07,28.75Z"/>
  <g>
    <polygon class="cls-1" points="74.49 110.27 74.35 108.88 73.69 108.59 74.49 110.27"/>
    <path class="cls-1" d="M74.92,103.41l-.8-2.25c-1.28,1.72-1.25-.18-1.52,3.71.56,1.2,1.8,3.84,2.34,3.32-.29-.89-1.23-2.07-1.36-3.47.6.46.91,1.92,1.67,2.45-.04-2.3-.73-1.27-1.09-3.71l.76-.05Z"/>
    <path class="cls-1" d="M72.65,101.08c.33.14.66.3.87.2-.33-.15-.95-1.18-.87-.2Z"/>
    <path class="cls-1" d="M72.14,99.72c-.3-1.47.6-.12.65-.29l-1.44-1.4.79,1.69Z"/>
    <path class="cls-1" d="M70.72,93.66c-.09-.23-.17-.45-.26-.65-.11.28.08.43.26.65Z"/>
    <path class="cls-1" d="M69.87,90.72c-.21.68.18,1.38.59,2.29.01-.04.02-.06.04-.11.1-.91,1.03-.3,1.17,1.09.51,1.37-.25,1.42.53,2.52l.19-1.82c-.63-2.19-2.01-3.18-2.51-3.96Z"/>
    <path class="cls-1" d="M70.72,93.66c.09.24.17.5.24.78.04-.38-.09-.6-.24-.78Z"/>
    <polygon class="cls-1" points="71.38 96.72 71.72 97.43 71.99 97.17 71.38 96.72"/>
    <path class="cls-1" d="M68.59,85.78c1.09.1.77,3.57,1.64,3.76-.52-1.94-.17-3.69.49-3.4l-.84-2.09c-.56-.63-1.09.47-1.28,1.72Z"/>
    <path class="cls-1" d="M70.06,80.78c-.13-.18-.27-.39-.43-.63.1.14.35.58.43.63Z"/>
    <path class="cls-1" d="M64.18,70.78c.95,1.49,1.86,2.99,2.85,4.46-.49-.32-.73-.02-1.27-1.08.72,2.19,1.46,2.21,2.07,4.01-.68.89-1.32-3.07-1.71-1.74.53,1.23,1.33,3.07,2.48,3.75l.05.55c.03.21.08.49.06.71l-.07,1.11.86-.95c.01-.11,0-.22-.03-.33-.03-.12-.08-.32-.17-.45l-.14-.23-.11-.13c-.08-.08-.15-.16-.22-.23-.29-.3-.51-.59-.27-.98.32-.42.72.34,1.05.86-.71-1.19-.64-3.78-1.81-6.29-1.15-2.68-2.45-1.43-3.62-3.06Z"/>
    <polygon class="cls-1" points="65.2 70.19 65.47 69.72 65.03 70.14 65.2 70.19"/>
    <path class="cls-1" d="M61.97,65.35l1.52,2.32c.01.31-.14.53-.26.78.19-.18.83.35.98.18.47-1.49-1.38-2.99-2.03-4.31-.81-3.75.52,0,.92-1.69.31,1.01.12,1.12.55,2.54.21-2.53-1.55-4.99-2.27-6.34.04.44-.21.63.12,1.39l-.77-1.39c-.12.87-.13,1.66.05,2.65.17.99.52,2.19,1.19,3.86Z"/>
    <path class="cls-1" d="M63.62,69.89c-.43-.92-.49-1.29-.39-1.42-.16.34-.21.72.39,1.42Z"/>
    <path class="cls-1" d="M61.13,58.07c-.02.18.08.43.25.76-.01-.18-.08-.41-.25-.76Z"/>
    <path class="cls-1" d="M60.49,59.85c-.16-.61-.32-1.22-.44-1.83l-.24.84c.13.24.47,1.1.68.99Z"/>
    <path class="cls-1" d="M46.39,15.68c.42,0,.87-.57,1.37-1.94.41.36-.42,2.07-.49,3,1.06-1.65.55.26,1.2,0,.9-1.97.64-3.12,1.63-5.21.09.16.32.21.6,0,.7-2.45,1.77-6.46,2.98-8.88l.61-1.22v1.3c0,.35-.02.61-.04.86,0,2.63.4,4.55.82,7.41.15,4.74.47,9.56.66,14.49.22,4.92.34,9.93.49,15l1.13,1.34c-.48.54.24,2.38-.43,2.17.05-.56-.11-1.07-.18-1.73-.37,1.13-.13,2.55.14,4.02.29,1.47.75,2.95.81,4.26.13-.33.92-.9,1.2-.18-1.15.03.68,2.95-.41,3.99.35,2.6.98-.14,1.51,2.5.72.1-.39-2.57.01-3.16.7.68.4,2.39,1.04,2.1-.1-.52-.24-1.1-.42-1.71-.15-.62-.32-1.27-.52-1.97-.21-.69-.43-1.42-.65-2.17-.21-.76-.43-1.54-.65-2.35-.88-3.22-1.68-6.81-2.04-10.11l.66.66c-.68-3.34-.85-8.87.06-11.63-.57.67.14-5.06-1.19-4.5.27-.87.21-1.13.27-2.37l-.44-.31c-.07-1.76.6-1.5.46-3.52-.5,1.34-.76-.1-1.27-.66.5-2.34.94-5.06,1.3-7.14-.18.17-.37.37-.57,1.09.1-1.4-.43-1.13-.66-1.48-.13-1.34.63-1.25,1.01-1.21.03-1.71-.67-2.71-1-3.78l-1.9-6.19-.83,5.81c-.07.49-.22.97-.56,1.45l.79-.38c-.79,2.4-2.12,4.17-3,6.81-1.27.94.22-2.38.29-3.58-.36.47-.84,1.56-1.23,1.82-.06,1.25-.28,3.31-.48,4.84-.34-1.67-1.63,1.63-2.07,2.47Z"/>
    <path class="cls-1" d="M48.94,8.37c.01-.37.02-.68,0-.86-.05.27-.1.52-.28.88.08.07.18.05.29-.02Z"/>
    <path class="cls-1" d="M46.39,15.68s-.08.02-.11.02c-.06.28,0,.21.11-.02Z"/>
    <path class="cls-1" d="M54.23,3.96c.02-.11.02-.24.03-.36,0-.16,0-.3-.01-.46v.83Z"/>
    <path class="cls-1" d="M57.09,5.84c-.17.56-.33,1.33-.48,2.19.25-.26.44-.47.48-2.19Z"/>
    <path class="cls-1" d="M57.38,23.02c.12.52.29.21.5.57-.02-1.08-.22-1.45-.5-.57Z"/>
    <polygon class="cls-1" points="47.65 11.14 47.03 13.16 46.88 13.94 47.65 11.14"/>
    <path class="cls-1" d="M32.43,51.42c1.49-1.35,2.34-4.01,3.49-6.02,1.56-3.97-1.15-1.17.54-4.82l1.01,1.27c1.69-3.65,4.42-8.69,4.67-12.33.29-.19.78-.75.54.28,1.06-2.47-1.31-2.12.6-5.18-.53,3.42,1.24-.64,1.69.56l-.12.52c.83-2.12,1.62-5.06,2.25-6.42-.32-.21-1.36.77-.62-1.09-.39.72-.65.25-.97.04-.42,2.07-1.13,2.99-1.18,4.34-.92.86.17-.78-.74.09l-.26,1.7c-.6,1.08.06-1.35-.8.35.18.32-.18,1.86-.86,3.18l.02-.46c-.3,1.12-1.19,2.49-.22,2.32l-1.3.89.6.02c-1.53,2.75-3.21,3.24-4.34,7.17.57-.79.45.13.32.64,1.08-1.34.53-2.05,1.14-3.52.6.02.04,2.76,1.17,1.14-1.5,1.65-1.67,3.66-3.31,3.88-1.19,2.27-1.02,3.43-2.47,5.62l-.15-.16c.6.84-1.3,1.71-1.34,3.85l.81-1.13c.31.23.01.83-.35,1.69q-.08-.16-.38.03c.46.56-.78,3.22-.77,3.64.66-1.04.86-2.65,1.37-4.01.01.83.61.88-.05,1.93Z"/>
    <path class="cls-1" d="M41.75,26.55l-.05.88c.09-.33.13-.65.05-.88Z"/>
    <path class="cls-1" d="M26.05,61.22c-.9,1.38-.3-.65-1.27.56-.37,1.69,1.73-1.25,1.58.51-.83.71-.98,2.47-1.28,3.08,0-.84-.97-.88-1.27-.7-.08.67-1.13,1.72-1.66,2.66,1.74-2.08-.76,2.12.89.29.38.4-.46,2.78-1.29,3.49-.3-.24.16-.93.46-1.53-.37-.82-1.13,1.3-1.88,1.33-.32,2.69-4.24,9.76-1.75,8.51.68-.61.7-1.44,1.08-2.3-1.54,2.15-.74-.39-.89-.72.76-.87,1.23-2.8,1.52-2.14l-.32,1.85c2.99-4.87,6.57-11.8,9.39-17.74l-1.34,2.51c-.22-.49.37-1.69.66-2.71l-1.57.75c.45-.69.67-1.46.97-1.22.07-1.09-.38-.81-.98-.45.81-1.96,1.33-2.08,1.47-3.84-2.38,2.71-.73,2.96-3.26,6.18l.74,1.63Z"/>
    <polygon class="cls-1" points="29.1 54.13 29.18 55.13 29.54 53.86 29.1 54.13"/>
    <path class="cls-1" d="M30.53,56.39c-.22-.07-.08-.58-.3-.65-.9,1.39-.52,1.36.3.65Z"/>
    <path class="cls-1" d="M19.25,72.79l-.85,1.95.83-1.11c-.22-.08-.06-.58.01-.83Z"/>
    <path class="cls-1" d="M15.33,85.71c.38-.81.55-1.42.86-2.14.26-.61.88-1.73,1.9-3.04.18-1.76-1.49.05-1.71-.86-.46.69-.41,1.12-.33,1.59.04.23.1.47.1.76,0,.29-.05.62-.16.94-.41.13-.68.69-.9,1.27-.23.6-.38,1.19-.81,1.83.44-.3.82-.42,1.04-.34Z"/>
    <path class="cls-1" d="M9.94,94.32c.76-.42,1.65-1.07,2.43-1.61.78-.54,1.41-.95,1.84-1.06-.47.71-1.58,1.51-2.39,1.86-.26.63.28.29.95-.17.68-.47,1.45-1.06,2.19-1.17-.12-.04-.65.12-.05-.46,2.06-1.1,2.74-1.77,3.42-2.37.35-.31.72-.61,1.32-1.02.34-.22.59-.39.95-.6.36-.21.78-.46,1.31-.74.44-.57.99-.96.58-1.35,2.59-.95,1.49-.17,4.47-1.54-.29-.19-1.59-.19-1.98-.77,4.25-1.85,3.65-2.84,6.4-3.98-.24.22-.44.6-1.12.99.89.56,1.83-1.6,3.22-2.42l.39.76c1.1-1.01,2.8-3.02,4.64-3.68l-.08.59c2.6-2.83,6.26-5.33,8.63-7.54l1.69-.64c3.15-3.2-3.69,2.45-1.86-.52,1.32.93,1.52-1.79,3.91-2.83,1.32-.23-1.85,1.8-.37,1.56-.03-.97.94-.99,1.88-1.98.21.77,2.31-1.6,2.15-.43l3-3.92c.87-.11,1.94-.97,2.69-1.65-2.07,1.49-.08-1.31-2.61.1-3.18,2.74-8.64,7.13-13.01,10.03.18,1.16-2.66,2.05-2.8,3.23-.3-.18-.78-.16-1.08-.34-2.52,2.24.97-.04.55.75-1.09,1.02-2.4,1.26-2.52.89-1.94,1.44-.05.39-.68,1.58l-1.93.08c-2.86,2.44-6.16,5.33-9.7,8.1-1.78,1.38-3.61,2.74-5.49,3.99-.47.31-.94.62-1.41.92-.46.3-.85.52-1.26.77-.8.48-1.58.9-2.25,1.22-.03.3-.02.58.04.81-.79.38-1.55.92-2.45,1.56-.89.64-1.86,1.41-2.89,2.12-.51.36-1.02.71-1.5,1.02l-.69.43-.32.18-.15.08-.07.04s-.06.03-.02-.01c.53-.91,1.37-2.17,2.59-3.67-.23.02-.43-.02-.6-.11.16.06.78-.56,1.39-1.12.64-.59,1.27-1.12,1.6-1.22-.07-.13.17-.54.39-.93.23-.4.44-.76.48-1.06l-1.41,1.88c-.28-.12.02-.77.44-1.37.43-.61,1-1.18,1.47-1.5.1-.91-.41-.61-1.31.43-.88.99-2.12,2.69-2.85,3.44-.06.82-.31,1.45-.78,2.24-.47.78-1.16,1.69-1.93,2.74-.4.54-.79,1.08-1.21,1.64-.2.28-.4.57-.61.87-.1.14-.2.29-.3.44l-.15.22c-.05.08.04.01.05.02.49-.11,1.46-.59,3.06-1.65,2.01-1.37,2.07-1.6,1.92-1.69-.17-.08-.65,0-.22-.45Z"/>
    <path class="cls-1" d="M13.1,89.06s-.12-.04-.21-.01c.02.05.08.06.21.01Z"/>
    <path class="cls-1" d="M60.16,57.62c.24-.18.53-.4.9-.7.21-.37-.22.09-.9.7Z"/>
    <path class="cls-1" d="M14.29,86.05s0,0-.02.01c0,0,0,.01,0,.01,0,0,.01-.02.02-.03Z"/>
    <path class="cls-1" d="M12.98,84.84l-.71,1.25.55-.33c.04-.29.1-.59.16-.92Z"/>
    <path class="cls-1" d="M70.01,51.72l-.2-.31c-.02.15.02.27.2.31Z"/>
    <path class="cls-1" d="M97.88,33.13l-.88.56c.35-.17.65-.38.88-.56Z"/>
    <path class="cls-1" d="M34.22,34.55c-1.99.42-4.66.89-6.09,1.63l.11-.38c-1.06.28-4.5,1.2-2.19,1.65l.52-.37c2.51-.79,1.91.44,3.94.49,2.39-.4,3.64-1.92,5.8-1.79.93-.13.82.26.58.56,2.15-.1,2.88-1.25,4.34-1.52.85,2.73,6.51-1.38,9.84.1,1.99-.42,4.68-.42,7.19-1.22-1.29.83,2.41-.17,1.93.67.57-1.69,7.4.03,7.67-2.05,3.52.25.13-.15,4.17-.05.02.23-.66.29-.92.36,1.63.27,2.35-1.1,3.75-.29,3.21-.15.49-.61,2.33-1.33,3.36-.08,2.45.29,4.37.96.2-1,2.24-.72,3.82-1.38-.41,0-2.69.01-1.24-.5,1.95-.1,2.71-.34,3.43-.62.36-.14.71-.29,1.2-.45.61-.17,1.59-.36,2.97-.56,1.87.91-4.84.49-1,.98-1.25.31-2.34.59-3.29.83-.86.23-1.58.48-2.16.93.77-.06,1.58-.14,2.42-.23.42-.05.84-.1,1.27-.15.36-.05.72-.11,1.08-.16,1.47-.23,3.16-.55,5.27-.98.77,0,.22.18-.29.35-.52.17-1,.33-.53.34.49.11,1.24-.02,2.34-.26,1.07-.23,2.49-.59,3.77-.85-.02.21-.5.64-1.84,1.33-.43.06-.89.15-1.37.25.67,0-.72.87-2.12,1.7-1.45.86-2.81,1.62-3.75,2.5.53-.02.99-.1.79.26-.68-.39-1.23.2-2.38,1.24-1.09,1.01-2.48,2.28-4.02,2.72.69.6-1.49,2.67-3,3.8-.68.17-.77-.22-.9-.42,2.84-1.28,1.94-2.47,3.73-4.17-1.43,1.51-4.48,2.99-5.57,4.52l.18-.97c-2.39,1.5-1.15,2.69-3.96,3.79l-.05-.58c-4.84,3.39-11.08,6.64-14.27,10.34-.09.58,2.42,0,2.71.19,2.09-1.93,3-3.48,4.56-5.01l.44.67c.09-.73,2.04-2.48.61-2.01,1.21-1.34,1.49-.18,2.9-1.7.35.78-.6,1.54-.22,2.13l1.21-1.34c-.27.58,1.04-.37.78.2,2.11-2.67,3.97-2.24,6.5-4.51l-1.64.93c-.25-.39.67-.96,1.26-1.53,1.13.03,1.53-.35,3.12-1.08,1.03-1.14,1.25-2.29,2.93-3.41.13.97,3.05-1.46,3.78-1.05-.58-.68,4.31-3.25,3.92-3.6.92-.83,2.64-1.86,3.65-1.96-.15.13-.36.37-.72.66l1.43-.92c.09.07.29.02.16.12.67-.43.65-.6.75-.79.11-.2.33-.4,1.7-1.05.61-.13-.29.46-.81.92,1.62-1,2.37-1.76,2.8-2.31.46-.57.61-.94,1.8-1.66-.39,0-.64-.03-.68-.17-1.04.31-2.6.57-4.04.88-1.47.32-2.73.68-3.6,1.24.06-.34,2.14-1.28-1.02-.85-1.49.54-2,.51-2.71.47-.66-.05-1.55-.1-2.7.26,1.6-.57,1.77-.64,1.73-.69.02-.06-.14-.09,1.74-.66-1-.07-2.7.27-4.3.63-.39.09-.79.18-1.21.27-.28.07-.57.14-.87.22-.58.13-1.19.23-1.83.25-.27-.16-.29-.4-.57-.56-.92.37-1.95,1.11-2.92.54l.17.55c-1.76-.12-4.15.28-6.07-.15l-2.07,1.26c-3.02-.85-6.83.53-9.04,1.71-1.07.05-2.69.01-2.7-.23.24-.1.64-.3,1.12-.49-1.58.11-3.55-.32-4.35.65-1.59.42-1.24-.5-2.45-.53-3.14,1.55-9.69-.01-10.51,1.98,1.34-.12,3.91.02,6.44-.3-.65.29-.1.61-1.03.74-2.54.33-3.92-.25-6.44.31l.19-1.23c-4.5-.81-8.2,2.43-11.78,1.02Z"/>
    <path class="cls-1" d="M66.86,31.5l-1.9-.44.25.5c.56-.14,1.15-.19,1.66-.06Z"/>
    <path class="cls-1" d="M65.2,31.57c-.37.09-.73.22-1.06.35.41-.03.79-.09,1.11-.22l-.06-.13Z"/>
    <path class="cls-1" d="M26.88,35.45c-.41,0-1.22-.03-2.01.18.54.09,1.62.04,2.01-.18Z"/>
    <polygon class="cls-1" points="24.76 36.02 25.71 36.12 25.83 35.97 24.76 36.02"/>
    <path class="cls-1" d="M46.19,74.08l2.47,1.83c.04.64,2.55,2.94,1.36,2.51,1.81.8,3.63,4.31,3.68,2.4-5.95-6.44-13.07-16.14-20.04-23.48l1.39.98c-1.99-1.77-2.86-3.37-3.72-4.81-.87-1.43-1.77-2.67-3.8-3.81l1.16-.14c-1.16-2.11-3.89-2.87-4.43-5.56l-.2.45c-.38-.55-.38-.87-.76-1.43v.33c-.66-.59-1.17-1.16-1.54-1.69-.3-.44-.52-.92-.68-1.42.34-.08.46.43.74.7.03-.26-.23-.48-.61-.81-.37-.32-.88-.77-1.15-1.18.02-.47.72.24.95.34-.24-.26-.45-.51-.62-.74l-.12-.17-.06-.08s-.04-.05,0-.05c.1,0,.21-.02.31-.03.41-.01.77-.02,1.12-.04.32-.02.58-.07.88-.22.1-.04.11-.08.29-.14.16-.06.32-.12.48-.2.32-.15.65-.33.99-.55.25-.31-1.1-.42.36-.69-.68-.06-1.31-.05-1.93,0-.62.05-1.23.15-1.77.28-.54.12-1,.26-1.4.41l-.55.22-.24.1-.12.05s-.11.02,0,.1l-.04-.06h.07s.14-.02.14-.02l.27-.02c.12.18.16.29.27.41.24.18.38.31.48.41.18.19.15.26.1.36-.05.1-.11.22,0,.48.1.25.37.65.89,1.13-1.07-.51-1.79-1.6-2.59-2.21.05.59.43,1.31.85,1.93.42.62.9,1.16,1.31,1.61.81.9,1.46,1.58,1.54,2.98l-.19-.2c.19.52.96,1.14,1.53,1.73,0-.32-.37-1.03-.56-1.56.58.59,1.35.56,1.73.63,0,1.13.94.82,1.53,2.2-.19.77-1.17-.67-1.74-.93.45.4.9.8,1.35,1.2.97,1.28.38,1.67.58,2.51,1.17.83-.2-.84.97-.33.36,1.86,4.96,7.67,7.58,10.08-.81-.91-.77.06-1.59-1.18.22.51,1.61,1.81,1.99,1.54,1.83,1.66,3.48,4.26,4.58,6.29l-.04-.8c1.79,1,2.56,4.12,5.06,6.43l-.04-.06c.76.78,2.23.77,3.32,2.45-.79-.07-1.43-.93-1.79-.49Z"/>
    <path class="cls-1" d="M54.6,82.51l-1.2-.42c.66,1.02,2.26,1.64,2.42,1.17-.62-.53-1.09-1.54-1.47-1.41.02.17-.17.31.25.66Z"/>
    <path class="cls-1" d="M69.06,99.9c.39.25.51,0,.77.04-3.06-3.69-7.02-8.09-7.85-9.88-.88-1.37-1.82-.97-3.29-2.38l-.08-1.12c-1.02-.58-2.61-3.6-2.68-2.01.01.16,1,.41,1.46,1.26l-.38.12,1.48,1.58-.8-.23c1.37,2.68,2.4.69,4.37,3.76l-.74.57c1.5,1.9,2.53,2.64,3.43,4.65,0,0,.37-.28-.03-.48-.22-.35-.26-.99.13-.95,2.88,2.37-.79-.08.53,2.13,2.47,2,6.61,6.3,7.09,8.13-.47-1.5,1.35-.16,2.39,1.24.23.83-.78-.09-1.17-.14.42.7.65,1.36,1.26,1.92-.25-1.15.73-1.04,2.15.26-2.13-3.63-5.51-5.16-8.04-8.47Z"/>
    <path class="cls-1" d="M70.45,100.37c-.29-.32-.48-.41-.62-.43.36.44.72.87,1.06,1.28l-.44-.85Z"/>
  </g>
</svg>