<?xml version="1.0" encoding="UTF-8"?>
<svg id="a" data-name="Layer 1" xmlns="http://www.w3.org/2000/svg" viewBox="0 0 684 2240">
  <defs>
    <style>
      .b, .c, .d, .e, .f, .g, .h {
        fill: none;
        stroke-miterlimit: 10;
        stroke-width: .8px;
      }

      .b, .e, .f {
        stroke: #8cd5e9;
      }

      .c {
        stroke: #8ac65b;
      }

      .d {
        stroke: #fbc498;
      }

      .e {
        stroke-dasharray: 5.97 8.96;
      }

      .f {
        stroke-dasharray: 5.78 8.67;
      }

      .g {
        stroke-dasharray: 5.78 8.67;
      }

      .g, .h {
        stroke: #fdc52b;
      }
    </style>
  </defs>
  <g>
    <g>
      <line class="b" x1="1.97" y1="932.98" x2="4.95" y2="932.98"/>
      <line class="f" x1="13.62" y1="932.96" x2="67.09" y2="932.88"/>
      <line class="b" x1="71.43" y1="932.88" x2="74.41" y2="932.87"/>
    </g>
    <g>
      <line class="h" x1="1.85" y1="1004.73" x2="4.83" y2="1004.72"/>
      <line class="g" x1="13.5" y1="1004.71" x2="66.97" y2="1004.63"/>
      <line class="h" x1="71.31" y1="1004.62" x2="74.29" y2="1004.62"/>
    </g>
    <g>
      <line class="b" x1="1.73" y1="1076.47" x2="4.72" y2="1076.47"/>
      <line class="f" x1="13.39" y1="1076.45" x2="66.85" y2="1076.37"/>
      <line class="b" x1="71.19" y1="1076.37" x2="74.18" y2="1076.36"/>
    </g>
    <g>
      <line class="h" x1="1.61" y1="1148.21" x2="4.6" y2="1148.21"/>
      <line class="g" x1="13.27" y1="1148.2" x2="66.74" y2="1148.12"/>
      <line class="h" x1="71.07" y1="1148.11" x2="74.06" y2="1148.11"/>
    </g>
    <g>
      <line class="b" x1="1.49" y1="1219.96" x2="4.48" y2="1219.95"/>
      <line class="f" x1="13.15" y1="1219.94" x2="66.62" y2="1219.86"/>
      <line class="b" x1="70.95" y1="1219.85" x2="73.94" y2="1219.85"/>
    </g>
    <g>
      <line class="h" x1="1.38" y1="1291.7" x2="4.36" y2="1291.7"/>
      <line class="g" x1="13.03" y1="1291.69" x2="66.5" y2="1291.61"/>
      <line class="h" x1="70.84" y1="1291.6" x2="73.82" y2="1291.59"/>
    </g>
    <g>
      <line class="b" x1="1.26" y1="1363.45" x2="4.24" y2="1363.44"/>
      <line class="f" x1="12.92" y1="1363.43" x2="66.38" y2="1363.35"/>
      <line class="b" x1="70.72" y1="1363.34" x2="73.7" y2="1363.34"/>
    </g>
    <g>
      <line class="h" x1="1.14" y1="1435.19" x2="4.13" y2="1435.19"/>
      <line class="g" x1="12.8" y1="1435.17" x2="66.27" y2="1435.09"/>
      <line class="h" x1="70.6" y1="1435.09" x2="73.59" y2="1435.08"/>
    </g>
    <g>
      <line class="b" x1="1.02" y1="1506.94" x2="4.01" y2="1506.93"/>
      <line class="f" x1="12.68" y1="1506.92" x2="66.15" y2="1506.84"/>
      <line class="b" x1="70.48" y1="1506.83" x2="73.47" y2="1506.83"/>
    </g>
    <g>
      <line class="h" x1=".91" y1="1614.44" x2="3.89" y2="1614.44"/>
      <line class="g" x1="12.56" y1="1614.43" x2="66.03" y2="1614.35"/>
      <line class="h" x1="70.37" y1="1614.34" x2="73.35" y2="1614.34"/>
    </g>
    <g>
      <line class="h" x1="2.55" y1="574.26" x2="5.54" y2="574.25"/>
      <line class="g" x1="14.21" y1="574.24" x2="67.68" y2="574.16"/>
      <line class="h" x1="72.01" y1="574.16" x2="75" y2="574.15"/>
    </g>
    <g>
      <line class="b" x1="2.44" y1="646" x2="5.42" y2="646"/>
      <line class="f" x1="14.09" y1="645.99" x2="67.56" y2="645.91"/>
      <line class="b" x1="71.9" y1="645.9" x2="74.88" y2="645.9"/>
    </g>
    <g>
      <line class="h" x1="2.32" y1="717.75" x2="5.3" y2="717.74"/>
      <line class="g" x1="13.98" y1="717.73" x2="67.44" y2="717.65"/>
      <line class="h" x1="71.78" y1="717.64" x2="74.76" y2="717.64"/>
    </g>
    <g>
      <line class="b" x1="2.2" y1="789.49" x2="5.19" y2="789.49"/>
      <line class="f" x1="13.86" y1="789.47" x2="67.33" y2="789.4"/>
      <line class="b" x1="71.66" y1="789.39" x2="74.65" y2="789.38"/>
    </g>
    <g>
      <line class="h" x1="2.08" y1="861.24" x2="5.07" y2="861.23"/>
      <line class="g" x1="13.74" y1="861.22" x2="67.21" y2="861.14"/>
      <line class="h" x1="71.54" y1="861.13" x2="74.53" y2="861.13"/>
    </g>
    <g>
      <line class="b" x1="36.65" y1="2240" x2="36.65" y2="2237.01"/>
      <line class="e" x1="36.66" y1="2228.06" x2="38.41" y2="7.66"/>
      <line class="b" x1="38.41" y1="3.18" x2="38.41" y2=".2"/>
    </g>
    <line class="d" y1="2240" x2="1.77" y2="4"/>
    <line class="c" x1="3.43" y1="968.85" x2="74.35" y2="968.75"/>
    <line class="b" x1="3.31" y1="1040.6" x2="74.23" y2="1040.49"/>
    <line class="c" x1="3.19" y1="1112.34" x2="74.12" y2="1112.23"/>
    <line class="b" x1="3.08" y1="1184.09" x2="74" y2="1183.98"/>
    <line class="c" x1="2.96" y1="1255.83" x2="73.88" y2="1255.72"/>
    <line class="b" x1="2.84" y1="1327.58" x2="73.76" y2="1327.47"/>
    <line class="c" x1="2.72" y1="1399.32" x2="73.65" y2="1399.21"/>
    <line class="b" x1="2.6" y1="1471.06" x2="73.53" y2="1470.96"/>
    <line class="c" x1="2.48" y1="1578.57" x2="73.41" y2="1578.46"/>
    <g>
      <line class="b" x1="1.02" y1="1686.19" x2="4.01" y2="1686.18"/>
      <line class="f" x1="12.68" y1="1686.17" x2="66.15" y2="1686.09"/>
      <line class="b" x1="70.48" y1="1686.09" x2="73.47" y2="1686.08"/>
    </g>
    <g>
      <line class="h" x1=".91" y1="1757.93" x2="3.89" y2="1757.93"/>
      <line class="g" x1="12.56" y1="1757.92" x2="66.03" y2="1757.84"/>
      <line class="h" x1="70.37" y1="1757.83" x2="73.35" y2="1757.83"/>
    </g>
    <line class="b" x1="2.6" y1="1650.32" x2="73.53" y2="1650.21"/>
    <line class="c" x1="2.48" y1="1722.06" x2="73.41" y2="1721.95"/>
    <g>
      <line class="b" x1="1.02" y1="1829.68" x2="4.01" y2="1829.67"/>
      <line class="f" x1="12.68" y1="1829.66" x2="66.15" y2="1829.58"/>
      <line class="b" x1="70.48" y1="1829.57" x2="73.47" y2="1829.57"/>
    </g>
    <g>
      <line class="h" x1=".91" y1="1901.42" x2="3.89" y2="1901.42"/>
      <line class="g" x1="12.56" y1="1901.4" x2="66.03" y2="1901.32"/>
      <line class="h" x1="70.37" y1="1901.32" x2="73.35" y2="1901.31"/>
    </g>
    <line class="b" x1="2.6" y1="1793.81" x2="73.53" y2="1793.7"/>
    <line class="c" x1="2.48" y1="1865.55" x2="73.41" y2="1865.44"/>
    <g>
      <line class="b" x1="1.02" y1="1973.17" x2="4.01" y2="1973.16"/>
      <line class="f" x1="12.68" y1="1973.15" x2="66.15" y2="1973.07"/>
      <line class="b" x1="70.48" y1="1973.06" x2="73.47" y2="1973.06"/>
    </g>
    <g>
      <line class="h" x1=".91" y1="2044.91" x2="3.89" y2="2044.91"/>
      <line class="g" x1="12.56" y1="2044.89" x2="66.03" y2="2044.81"/>
      <line class="h" x1="70.37" y1="2044.81" x2="73.35" y2="2044.8"/>
    </g>
    <line class="b" x1="2.6" y1="1937.29" x2="73.53" y2="1937.19"/>
    <line class="c" x1="2.48" y1="2009.04" x2="73.41" y2="2008.93"/>
    <g>
      <line class="b" x1="1.02" y1="2116.66" x2="4.01" y2="2116.65"/>
      <line class="f" x1="12.68" y1="2116.64" x2="66.15" y2="2116.56"/>
      <line class="b" x1="70.48" y1="2116.55" x2="73.47" y2="2116.55"/>
    </g>
    <g>
      <line class="h" x1=".91" y1="2188.4" x2="3.89" y2="2188.4"/>
      <line class="g" x1="12.56" y1="2188.38" x2="66.03" y2="2188.3"/>
      <line class="h" x1="70.37" y1="2188.3" x2="73.35" y2="2188.29"/>
    </g>
    <line class="b" x1="2.6" y1="2080.78" x2="73.53" y2="2080.67"/>
    <line class="b" x1="-.4" y1="2221.78" x2="70.53" y2="2221.67"/>
    <line class="c" x1="2.48" y1="2152.53" x2="73.41" y2="2152.42"/>
    <line class="b" x1="4.02" y1="610.13" x2="74.94" y2="610.02"/>
    <line class="c" x1="3.9" y1="681.88" x2="74.82" y2="681.77"/>
    <line class="b" x1="3.78" y1="753.62" x2="74.71" y2="753.51"/>
    <line class="c" x1="3.66" y1="825.36" x2="74.59" y2="825.26"/>
    <g>
      <line class="h" x1="2.55" y1="287.28" x2="5.54" y2="287.28"/>
      <line class="g" x1="14.21" y1="287.26" x2="67.68" y2="287.18"/>
      <line class="h" x1="72.01" y1="287.18" x2="75" y2="287.17"/>
    </g>
    <g>
      <line class="b" x1="2.44" y1="359.03" x2="5.42" y2="359.02"/>
      <line class="f" x1="14.09" y1="359.01" x2="67.56" y2="358.93"/>
      <line class="b" x1="71.9" y1="358.92" x2="74.88" y2="358.92"/>
    </g>
    <g>
      <line class="h" x1="2.32" y1="430.77" x2="5.3" y2="430.77"/>
      <line class="g" x1="13.98" y1="430.75" x2="67.44" y2="430.67"/>
      <line class="h" x1="71.78" y1="430.67" x2="74.76" y2="430.66"/>
    </g>
    <g>
      <line class="b" x1="2.2" y1="502.51" x2="5.19" y2="502.51"/>
      <line class="f" x1="13.86" y1="502.5" x2="67.33" y2="502.42"/>
      <line class="b" x1="71.66" y1="502.41" x2="74.65" y2="502.41"/>
    </g>
    <line class="b" x1="4.02" y1="323.15" x2="74.94" y2="323.05"/>
    <line class="c" x1="3.9" y1="394.9" x2="74.82" y2="394.79"/>
    <line class="b" x1="3.78" y1="466.64" x2="74.71" y2="466.53"/>
    <line class="c" x1="3.66" y1="538.39" x2="74.59" y2="538.28"/>
    <g>
      <line class="h" x1="2.55" y1=".3" x2="5.54" y2=".3"/>
      <line class="g" x1="14.21" y1=".29" x2="67.68" y2=".21"/>
      <line class="h" x1="72.01" y1=".2" x2="75" y2=".2"/>
    </g>
    <g>
      <line class="b" x1="2.44" y1="72.05" x2="5.42" y2="72.04"/>
      <line class="f" x1="14.09" y1="72.03" x2="67.56" y2="71.95"/>
      <line class="b" x1="71.9" y1="71.95" x2="74.88" y2="71.94"/>
    </g>
    <g>
      <line class="h" x1="2.32" y1="143.79" x2="5.3" y2="143.79"/>
      <line class="g" x1="13.98" y1="143.78" x2="67.44" y2="143.7"/>
      <line class="h" x1="71.78" y1="143.69" x2="74.76" y2="143.69"/>
    </g>
    <g>
      <line class="b" x1="2.2" y1="215.54" x2="5.19" y2="215.53"/>
      <line class="f" x1="13.86" y1="215.52" x2="67.33" y2="215.44"/>
      <line class="b" x1="71.66" y1="215.43" x2="74.65" y2="215.43"/>
    </g>
    <line class="b" x1="4.02" y1="36.18" x2="74.94" y2="36.07"/>
    <line class="c" x1="3.9" y1="107.92" x2="74.82" y2="107.81"/>
    <line class="b" x1="3.78" y1="179.67" x2="74.71" y2="179.56"/>
    <line class="c" x1="3.66" y1="251.41" x2="74.59" y2="251.3"/>
    <line class="b" x1="3.55" y1="897.11" x2="74.47" y2="897"/>
  </g>
  <g>
    <g>
      <line class="b" x1="681.64" y1="932.98" x2="678.65" y2="932.98"/>
      <line class="f" x1="669.98" y1="932.96" x2="616.51" y2="932.88"/>
      <line class="b" x1="612.18" y1="932.88" x2="609.19" y2="932.87"/>
    </g>
    <g>
      <line class="h" x1="681.76" y1="1004.73" x2="678.77" y2="1004.72"/>
      <line class="g" x1="670.1" y1="1004.71" x2="616.63" y2="1004.63"/>
      <line class="h" x1="612.3" y1="1004.62" x2="609.31" y2="1004.62"/>
    </g>
    <g>
      <line class="b" x1="681.87" y1="1076.47" x2="678.89" y2="1076.47"/>
      <line class="f" x1="670.22" y1="1076.45" x2="616.75" y2="1076.37"/>
      <line class="b" x1="612.41" y1="1076.37" x2="609.43" y2="1076.36"/>
    </g>
    <g>
      <line class="h" x1="681.99" y1="1148.21" x2="679.01" y2="1148.21"/>
      <line class="g" x1="670.34" y1="1148.2" x2="616.87" y2="1148.12"/>
      <line class="h" x1="612.53" y1="1148.11" x2="609.55" y2="1148.11"/>
    </g>
    <g>
      <line class="b" x1="682.11" y1="1219.96" x2="679.12" y2="1219.95"/>
      <line class="f" x1="670.45" y1="1219.94" x2="616.98" y2="1219.86"/>
      <line class="b" x1="612.65" y1="1219.85" x2="609.66" y2="1219.85"/>
    </g>
    <g>
      <line class="h" x1="682.23" y1="1291.7" x2="679.24" y2="1291.7"/>
      <line class="g" x1="670.57" y1="1291.69" x2="617.1" y2="1291.61"/>
      <line class="h" x1="612.77" y1="1291.6" x2="609.78" y2="1291.59"/>
    </g>
    <g>
      <line class="b" x1="682.35" y1="1363.45" x2="679.36" y2="1363.44"/>
      <line class="f" x1="670.69" y1="1363.43" x2="617.22" y2="1363.35"/>
      <line class="b" x1="612.89" y1="1363.34" x2="609.9" y2="1363.34"/>
    </g>
    <g>
      <line class="h" x1="682.46" y1="1435.19" x2="679.48" y2="1435.19"/>
      <line class="g" x1="670.81" y1="1435.17" x2="617.34" y2="1435.09"/>
      <line class="h" x1="613" y1="1435.09" x2="610.02" y2="1435.08"/>
    </g>
    <g>
      <line class="b" x1="682.58" y1="1506.94" x2="679.6" y2="1506.93"/>
      <line class="f" x1="670.92" y1="1506.92" x2="617.46" y2="1506.84"/>
      <line class="b" x1="613.12" y1="1506.83" x2="610.14" y2="1506.83"/>
    </g>
    <g>
      <line class="h" x1="682.7" y1="1614.44" x2="679.71" y2="1614.44"/>
      <line class="g" x1="671.04" y1="1614.43" x2="617.57" y2="1614.35"/>
      <line class="h" x1="613.24" y1="1614.34" x2="610.25" y2="1614.34"/>
    </g>
    <g>
      <line class="h" x1="681.05" y1="574.26" x2="678.06" y2="574.25"/>
      <line class="g" x1="669.39" y1="574.24" x2="615.93" y2="574.16"/>
      <line class="h" x1="611.59" y1="574.16" x2="608.6" y2="574.15"/>
    </g>
    <g>
      <line class="b" x1="681.17" y1="646" x2="678.18" y2="646"/>
      <line class="f" x1="669.51" y1="645.99" x2="616.04" y2="645.91"/>
      <line class="b" x1="611.71" y1="645.9" x2="608.72" y2="645.9"/>
    </g>
    <g>
      <line class="h" x1="681.29" y1="717.75" x2="678.3" y2="717.74"/>
      <line class="g" x1="669.63" y1="717.73" x2="616.16" y2="717.65"/>
      <line class="h" x1="611.83" y1="717.64" x2="608.84" y2="717.64"/>
    </g>
    <g>
      <line class="b" x1="681.4" y1="789.49" x2="678.42" y2="789.49"/>
      <line class="f" x1="669.75" y1="789.47" x2="616.28" y2="789.4"/>
      <line class="b" x1="611.94" y1="789.39" x2="608.96" y2="789.38"/>
    </g>
    <g>
      <line class="h" x1="681.52" y1="861.24" x2="678.54" y2="861.23"/>
      <line class="g" x1="669.86" y1="861.22" x2="616.4" y2="861.14"/>
      <line class="h" x1="612.06" y1="861.13" x2="609.08" y2="861.13"/>
    </g>
    <g>
      <line class="b" x1="646.96" y1="2240" x2="646.96" y2="2237.01"/>
      <line class="e" x1="646.95" y1="2228.06" x2="645.2" y2="7.66"/>
      <line class="b" x1="645.19" y1="3.18" x2="645.19" y2=".2"/>
    </g>
    <line class="d" x1="683.6" y1="2240" x2="681.84" y2="4"/>
    <line class="c" x1="680.18" y1="968.85" x2="609.25" y2="968.75"/>
    <line class="b" x1="680.29" y1="1040.6" x2="609.37" y2="1040.49"/>
    <line class="c" x1="680.41" y1="1112.34" x2="609.49" y2="1112.23"/>
    <line class="b" x1="680.53" y1="1184.09" x2="609.61" y2="1183.98"/>
    <line class="c" x1="680.65" y1="1255.83" x2="609.72" y2="1255.72"/>
    <line class="b" x1="680.76" y1="1327.58" x2="609.84" y2="1327.47"/>
    <line class="c" x1="680.88" y1="1399.32" x2="609.96" y2="1399.21"/>
    <line class="b" x1="681" y1="1471.06" x2="610.08" y2="1470.96"/>
    <line class="c" x1="681.12" y1="1578.57" x2="610.2" y2="1578.46"/>
    <g>
      <line class="b" x1="682.58" y1="1686.19" x2="679.6" y2="1686.18"/>
      <line class="f" x1="670.92" y1="1686.17" x2="617.46" y2="1686.09"/>
      <line class="b" x1="613.12" y1="1686.09" x2="610.14" y2="1686.08"/>
    </g>
    <g>
      <line class="h" x1="682.7" y1="1757.93" x2="679.71" y2="1757.93"/>
      <line class="g" x1="671.04" y1="1757.92" x2="617.57" y2="1757.84"/>
      <line class="h" x1="613.24" y1="1757.83" x2="610.25" y2="1757.83"/>
    </g>
    <line class="b" x1="681" y1="1650.32" x2="610.08" y2="1650.21"/>
    <line class="c" x1="681.12" y1="1722.06" x2="610.2" y2="1721.95"/>
    <g>
      <line class="b" x1="682.58" y1="1829.68" x2="679.6" y2="1829.67"/>
      <line class="f" x1="670.92" y1="1829.66" x2="617.46" y2="1829.58"/>
      <line class="b" x1="613.12" y1="1829.57" x2="610.14" y2="1829.57"/>
    </g>
    <g>
      <line class="h" x1="682.7" y1="1901.42" x2="679.71" y2="1901.42"/>
      <line class="g" x1="671.04" y1="1901.4" x2="617.57" y2="1901.32"/>
      <line class="h" x1="613.24" y1="1901.32" x2="610.25" y2="1901.31"/>
    </g>
    <line class="b" x1="681" y1="1793.81" x2="610.08" y2="1793.7"/>
    <line class="c" x1="681.12" y1="1865.55" x2="610.2" y2="1865.44"/>
    <g>
      <line class="b" x1="682.58" y1="1973.17" x2="679.6" y2="1973.16"/>
      <line class="f" x1="670.92" y1="1973.15" x2="617.46" y2="1973.07"/>
      <line class="b" x1="613.12" y1="1973.06" x2="610.14" y2="1973.06"/>
    </g>
    <g>
      <line class="h" x1="682.7" y1="2044.91" x2="679.71" y2="2044.91"/>
      <line class="g" x1="671.04" y1="2044.89" x2="617.57" y2="2044.81"/>
      <line class="h" x1="613.24" y1="2044.81" x2="610.25" y2="2044.8"/>
    </g>
    <line class="b" x1="681" y1="1937.29" x2="610.08" y2="1937.19"/>
    <line class="c" x1="681.12" y1="2009.04" x2="610.2" y2="2008.93"/>
    <g>
      <line class="b" x1="682.58" y1="2116.66" x2="679.6" y2="2116.65"/>
      <line class="f" x1="670.92" y1="2116.64" x2="617.46" y2="2116.56"/>
      <line class="b" x1="613.12" y1="2116.55" x2="610.14" y2="2116.55"/>
    </g>
    <g>
      <line class="h" x1="682.7" y1="2188.4" x2="679.71" y2="2188.4"/>
      <line class="g" x1="671.04" y1="2188.38" x2="617.57" y2="2188.3"/>
      <line class="h" x1="613.24" y1="2188.3" x2="610.25" y2="2188.29"/>
    </g>
    <line class="b" x1="681" y1="2080.78" x2="610.08" y2="2080.67"/>
    <line class="b" x1="684" y1="2221.78" x2="613.08" y2="2221.67"/>
    <line class="c" x1="681.12" y1="2152.53" x2="610.2" y2="2152.42"/>
    <line class="b" x1="679.59" y1="610.13" x2="608.66" y2="610.02"/>
    <line class="c" x1="679.7" y1="681.88" x2="608.78" y2="681.77"/>
    <line class="b" x1="679.82" y1="753.62" x2="608.9" y2="753.51"/>
    <line class="c" x1="679.94" y1="825.36" x2="609.02" y2="825.26"/>
    <g>
      <line class="h" x1="681.05" y1="287.28" x2="678.06" y2="287.28"/>
      <line class="g" x1="669.39" y1="287.26" x2="615.93" y2="287.18"/>
      <line class="h" x1="611.59" y1="287.18" x2="608.6" y2="287.17"/>
    </g>
    <g>
      <line class="b" x1="681.17" y1="359.03" x2="678.18" y2="359.02"/>
      <line class="f" x1="669.51" y1="359.01" x2="616.04" y2="358.93"/>
      <line class="b" x1="611.71" y1="358.92" x2="608.72" y2="358.92"/>
    </g>
    <g>
      <line class="h" x1="681.29" y1="430.77" x2="678.3" y2="430.77"/>
      <line class="g" x1="669.63" y1="430.75" x2="616.16" y2="430.67"/>
      <line class="h" x1="611.83" y1="430.67" x2="608.84" y2="430.66"/>
    </g>
    <g>
      <line class="b" x1="681.4" y1="502.51" x2="678.42" y2="502.51"/>
      <line class="f" x1="669.75" y1="502.5" x2="616.28" y2="502.42"/>
      <line class="b" x1="611.94" y1="502.41" x2="608.96" y2="502.41"/>
    </g>
    <line class="b" x1="679.59" y1="323.15" x2="608.66" y2="323.05"/>
    <line class="c" x1="679.7" y1="394.9" x2="608.78" y2="394.79"/>
    <line class="b" x1="679.82" y1="466.64" x2="608.9" y2="466.53"/>
    <line class="c" x1="679.94" y1="538.39" x2="609.02" y2="538.28"/>
    <g>
      <line class="h" x1="681.05" y1=".3" x2="678.06" y2=".3"/>
      <line class="g" x1="669.39" y1=".29" x2="615.93" y2=".21"/>
      <line class="h" x1="611.59" y1=".2" x2="608.6" y2=".2"/>
    </g>
    <g>
      <line class="b" x1="681.17" y1="72.05" x2="678.18" y2="72.04"/>
      <line class="f" x1="669.51" y1="72.03" x2="616.04" y2="71.95"/>
      <line class="b" x1="611.71" y1="71.95" x2="608.72" y2="71.94"/>
    </g>
    <g>
      <line class="h" x1="681.29" y1="143.79" x2="678.3" y2="143.79"/>
      <line class="g" x1="669.63" y1="143.78" x2="616.16" y2="143.7"/>
      <line class="h" x1="611.83" y1="143.69" x2="608.84" y2="143.69"/>
    </g>
    <g>
      <line class="b" x1="681.4" y1="215.54" x2="678.42" y2="215.53"/>
      <line class="f" x1="669.75" y1="215.52" x2="616.28" y2="215.44"/>
      <line class="b" x1="611.94" y1="215.43" x2="608.96" y2="215.43"/>
    </g>
    <line class="b" x1="679.59" y1="36.18" x2="608.66" y2="36.07"/>
    <line class="c" x1="679.7" y1="107.92" x2="608.78" y2="107.81"/>
    <line class="b" x1="679.82" y1="179.67" x2="608.9" y2="179.56"/>
    <line class="c" x1="679.94" y1="251.41" x2="609.02" y2="251.3"/>
    <line class="b" x1="680.06" y1="897.11" x2="609.13" y2="897"/>
  </g>
</svg>