<?xml version="1.0" encoding="UTF-8"?>
<svg id="a" data-name="Layer 1" xmlns="http://www.w3.org/2000/svg" viewBox="0 0 684 2240">
  <defs>
    <style>
      .b {
        stroke-dasharray: 11.83 17.74;
      }

      .b, .c, .d, .e, .f, .g, .h {
        fill: none;
        stroke-miterlimit: 10;
        stroke-width: 2.94px;
      }

      .b, .f, .h {
        stroke: #8cd5e9;
      }

      .c {
        stroke: #fbc498;
      }

      .d, .g {
        stroke: #fdc52b;
      }

      .e {
        stroke: #8ac65b;
      }

      .g {
        stroke-dasharray: 11.39 17.09;
      }

      .h {
        stroke-dasharray: 11.39 17.09;
      }
    </style>
  </defs>
  <g>
    <g>
      <g>
        <line class="f" x1="677.72" y1="1409.72" x2="671.83" y2="1409.73"/>
        <line class="h" x1="654.74" y1="1409.75" x2="549.34" y2="1409.91"/>
        <line class="f" x1="540.79" y1="1409.92" x2="534.9" y2="1409.93"/>
      </g>
      <g>
        <line class="d" x1="677.95" y1="1259.89" x2="672.06" y2="1259.9"/>
        <line class="g" x1="654.97" y1="1259.92" x2="549.57" y2="1260.08"/>
        <line class="d" x1="541.02" y1="1260.09" x2="535.14" y2="1260.1"/>
      </g>
      <g>
        <line class="f" x1="678.18" y1="1110.05" x2="672.3" y2="1110.06"/>
        <line class="h" x1="655.2" y1="1110.09" x2="549.8" y2="1110.25"/>
        <line class="f" x1="541.25" y1="1110.26" x2="535.37" y2="1110.27"/>
      </g>
      <g>
        <line class="d" x1="678.41" y1="960.22" x2="672.53" y2="960.23"/>
        <line class="g" x1="655.44" y1="960.26" x2="550.03" y2="960.41"/>
        <line class="d" x1="541.49" y1="960.43" x2="535.6" y2="960.44"/>
      </g>
      <g>
        <line class="f" x1="678.65" y1="810.39" x2="672.76" y2="810.4"/>
        <line class="h" x1="655.67" y1="810.42" x2="550.26" y2="810.58"/>
        <line class="f" x1="541.72" y1="810.59" x2="535.83" y2="810.6"/>
      </g>
      <g>
        <line class="d" x1="678.88" y1="660.56" x2="672.99" y2="660.57"/>
        <line class="g" x1="655.9" y1="660.59" x2="550.5" y2="660.75"/>
        <line class="d" x1="541.95" y1="660.76" x2="536.07" y2="660.77"/>
      </g>
      <g>
        <line class="f" x1="679.11" y1="510.73" x2="673.22" y2="510.73"/>
        <line class="h" x1="656.13" y1="510.76" x2="550.73" y2="510.92"/>
        <line class="f" x1="542.18" y1="510.93" x2="536.3" y2="510.94"/>
      </g>
      <g>
        <line class="d" x1="679.34" y1="360.89" x2="673.46" y2="360.9"/>
        <line class="g" x1="656.36" y1="360.93" x2="550.96" y2="361.08"/>
        <line class="d" x1="542.41" y1="361.1" x2="536.53" y2="361.11"/>
      </g>
      <g>
        <line class="f" x1="679.57" y1="211.06" x2="673.69" y2="211.07"/>
        <line class="h" x1="656.6" y1="211.09" x2="551.19" y2="211.25"/>
        <line class="f" x1="542.65" y1="211.26" x2="536.76" y2="211.27"/>
      </g>
      <g>
        <line class="d" x1="679.81" y1="61.23" x2="673.92" y2="61.24"/>
        <line class="g" x1="656.83" y1="61.26" x2="551.43" y2="61.42"/>
        <line class="d" x1="542.88" y1="61.43" x2="536.99" y2="61.44"/>
      </g>
      <g>
        <line class="d" x1="676.56" y1="2158.88" x2="670.67" y2="2158.89"/>
        <line class="g" x1="653.58" y1="2158.92" x2="548.18" y2="2159.07"/>
        <line class="d" x1="539.63" y1="2159.09" x2="533.74" y2="2159.09"/>
      </g>
      <g>
        <line class="f" x1="676.79" y1="2009.05" x2="670.9" y2="2009.06"/>
        <line class="h" x1="653.81" y1="2009.08" x2="548.41" y2="2009.24"/>
        <line class="f" x1="539.86" y1="2009.25" x2="533.98" y2="2009.26"/>
      </g>
      <g>
        <line class="d" x1="677.02" y1="1859.22" x2="671.13" y2="1859.23"/>
        <line class="g" x1="654.04" y1="1859.25" x2="548.64" y2="1859.41"/>
        <line class="d" x1="540.09" y1="1859.42" x2="534.21" y2="1859.43"/>
      </g>
      <g>
        <line class="f" x1="677.25" y1="1709.38" x2="671.37" y2="1709.39"/>
        <line class="h" x1="654.27" y1="1709.42" x2="548.87" y2="1709.58"/>
        <line class="f" x1="540.33" y1="1709.59" x2="534.44" y2="1709.6"/>
      </g>
      <g>
        <line class="d" x1="677.48" y1="1559.55" x2="671.6" y2="1559.56"/>
        <line class="g" x1="654.51" y1="1559.59" x2="549.1" y2="1559.74"/>
        <line class="d" x1="540.56" y1="1559.76" x2="534.67" y2="1559.77"/>
      </g>
      <g>
        <line class="b" x1="609.31" y1="10.14" x2="605.89" y2="2219.24"/>
        <line class="f" x1="605.88" y1="2228.11" x2="605.87" y2="2234"/>
      </g>
    </g>
    <line class="c" x1="681.59" y1="-13.5" x2="678.11" y2="2233.99"/>
    <line class="e" x1="674.83" y1="1334.8" x2="535.02" y2="1335.02"/>
    <line class="f" x1="675.06" y1="1184.97" x2="535.25" y2="1185.18"/>
    <line class="e" x1="675.3" y1="1035.14" x2="535.48" y2="1035.35"/>
    <line class="f" x1="675.53" y1="885.31" x2="535.72" y2="885.52"/>
    <line class="e" x1="675.76" y1="735.47" x2="535.95" y2="735.69"/>
    <line class="f" x1="675.99" y1="585.64" x2="536.18" y2="585.85"/>
    <line class="e" x1="676.23" y1="435.81" x2="536.41" y2="436.02"/>
    <line class="f" x1="676.46" y1="285.98" x2="536.65" y2="286.19"/>
    <line class="e" x1="676.7" y1="132.35" x2="536.88" y2="132.57"/>
    <line class="f" x1="673.67" y1="2083.97" x2="533.86" y2="2084.18"/>
    <line class="e" x1="673.9" y1="1934.13" x2="534.09" y2="1934.35"/>
    <line class="f" x1="674.14" y1="1784.3" x2="534.32" y2="1784.51"/>
    <line class="e" x1="674.37" y1="1634.47" x2="534.56" y2="1634.68"/>
    <line class="f" x1="674.6" y1="1484.64" x2="534.79" y2="1484.85"/>
  </g>
  <g>
    <g>
      <g>
        <line class="f" x1="3.88" y1="810.78" x2="9.76" y2="810.78"/>
        <line class="h" x1="26.85" y1="810.75" x2="132.26" y2="810.59"/>
        <line class="f" x1="140.8" y1="810.58" x2="146.69" y2="810.57"/>
      </g>
      <g>
        <line class="d" x1="3.64" y1="960.62" x2="9.53" y2="960.61"/>
        <line class="g" x1="26.62" y1="960.58" x2="132.02" y2="960.43"/>
        <line class="d" x1="140.57" y1="960.41" x2="146.45" y2="960.4"/>
      </g>
      <g>
        <line class="f" x1="3.41" y1="1110.45" x2="9.3" y2="1110.44"/>
        <line class="h" x1="26.39" y1="1110.41" x2="131.79" y2="1110.26"/>
        <line class="f" x1="140.34" y1="1110.24" x2="146.22" y2="1110.24"/>
      </g>
      <g>
        <line class="d" x1="3.18" y1="1260.28" x2="9.06" y2="1260.27"/>
        <line class="g" x1="26.16" y1="1260.25" x2="131.56" y2="1260.09"/>
        <line class="d" x1="140.11" y1="1260.08" x2="145.99" y2="1260.07"/>
      </g>
      <g>
        <line class="f" x1="2.95" y1="1410.11" x2="8.83" y2="1410.1"/>
        <line class="h" x1="25.92" y1="1410.08" x2="131.33" y2="1409.92"/>
        <line class="f" x1="139.87" y1="1409.91" x2="145.76" y2="1409.9"/>
      </g>
      <g>
        <line class="d" x1="2.71" y1="1559.95" x2="8.6" y2="1559.94"/>
        <line class="g" x1="25.69" y1="1559.91" x2="131.09" y2="1559.75"/>
        <line class="d" x1="139.64" y1="1559.74" x2="145.53" y2="1559.73"/>
      </g>
      <g>
        <line class="f" x1="2.48" y1="1709.78" x2="8.37" y2="1709.77"/>
        <line class="h" x1="25.46" y1="1709.74" x2="130.86" y2="1709.59"/>
        <line class="f" x1="139.41" y1="1709.57" x2="145.29" y2="1709.57"/>
      </g>
      <g>
        <line class="d" x1="2.25" y1="1859.61" x2="8.14" y2="1859.6"/>
        <line class="g" x1="25.23" y1="1859.58" x2="130.63" y2="1859.42"/>
        <line class="d" x1="139.18" y1="1859.41" x2="145.06" y2="1859.4"/>
      </g>
      <g>
        <line class="f" x1="2.02" y1="2009.44" x2="7.9" y2="2009.43"/>
        <line class="h" x1="25" y1="2009.41" x2="130.4" y2="2009.25"/>
        <line class="f" x1="138.94" y1="2009.24" x2="144.83" y2="2009.23"/>
      </g>
      <g>
        <line class="d" x1="1.79" y1="2159.28" x2="7.67" y2="2159.27"/>
        <line class="g" x1="24.76" y1="2159.24" x2="130.17" y2="2159.08"/>
        <line class="d" x1="138.71" y1="2159.07" x2="144.6" y2="2159.06"/>
      </g>
      <g>
        <line class="d" x1="5.04" y1="61.62" x2="10.92" y2="61.61"/>
        <line class="g" x1="28.01" y1="61.59" x2="133.42" y2="61.43"/>
        <line class="d" x1="141.96" y1="61.42" x2="147.85" y2="61.41"/>
      </g>
      <g>
        <line class="f" x1="4.8" y1="211.45" x2="10.69" y2="211.45"/>
        <line class="h" x1="27.78" y1="211.42" x2="133.18" y2="211.26"/>
        <line class="f" x1="141.73" y1="211.25" x2="147.62" y2="211.24"/>
      </g>
      <g>
        <line class="d" x1="4.57" y1="361.29" x2="10.46" y2="361.28"/>
        <line class="g" x1="27.55" y1="361.25" x2="132.95" y2="361.1"/>
        <line class="d" x1="141.5" y1="361.08" x2="147.38" y2="361.07"/>
      </g>
      <g>
        <line class="f" x1="4.34" y1="511.12" x2="10.22" y2="511.11"/>
        <line class="h" x1="27.32" y1="511.09" x2="132.72" y2="510.93"/>
        <line class="f" x1="141.27" y1="510.92" x2="147.15" y2="510.91"/>
      </g>
      <g>
        <line class="d" x1="4.11" y1="660.95" x2="9.99" y2="660.94"/>
        <line class="g" x1="27.08" y1="660.92" x2="132.49" y2="660.76"/>
        <line class="d" x1="141.03" y1="660.75" x2="146.92" y2="660.74"/>
      </g>
      <g>
        <line class="f" x1="72.24" y1="2233.99" x2="72.25" y2="2228.1"/>
        <line class="b" x1="72.28" y1="2210.36" x2="75.7" y2="1.26"/>
      </g>
    </g>
    <line class="c" y1="2234" x2="3.48" y2="-13.49"/>
    <line class="e" x1="6.76" y1="885.7" x2="146.57" y2="885.49"/>
    <line class="f" x1="6.53" y1="1035.53" x2="146.34" y2="1035.32"/>
    <line class="e" x1="6.29" y1="1185.37" x2="146.11" y2="1185.15"/>
    <line class="f" x1="6.06" y1="1335.2" x2="145.87" y2="1334.98"/>
    <line class="e" x1="5.83" y1="1485.03" x2="145.64" y2="1484.82"/>
    <line class="f" x1="5.6" y1="1634.86" x2="145.41" y2="1634.65"/>
    <line class="e" x1="5.37" y1="1784.69" x2="145.18" y2="1784.48"/>
    <line class="f" x1="5.13" y1="1934.53" x2="144.95" y2="1934.31"/>
    <line class="e" x1="4.9" y1="2088.15" x2="144.71" y2="2087.94"/>
    <line class="f" x1="7.92" y1="136.54" x2="147.73" y2="136.33"/>
    <line class="e" x1="7.69" y1="286.37" x2="147.5" y2="286.16"/>
    <line class="f" x1="7.46" y1="436.2" x2="147.27" y2="435.99"/>
    <line class="e" x1="7.22" y1="586.04" x2="147.04" y2="585.82"/>
    <line class="f" x1="6.99" y1="735.87" x2="146.8" y2="735.66"/>
  </g>
</svg>