<?xml version="1.0" encoding="UTF-8"?>
<svg id="Layer_1" data-name="Layer 1" xmlns="http://www.w3.org/2000/svg" viewBox="0 0 100 100">
  <defs>
    <style>
      .cls-1 {
        fill: #26b6d8;
      }

      .cls-1, .cls-2, .cls-3, .cls-4, .cls-5 {
        stroke-width: 0px;
      }

      .cls-2 {
        fill: #585859;
      }

      .cls-3 {
        fill: #404041;
      }

      .cls-4 {
        fill: #8cd5e9;
      }

      .cls-5 {
        fill: #fffbe3;
      }
    </style>
  </defs>
  <g>
    <g>
      <path class="cls-4" d="M71.08,67.3c2.78,4.6,1.16,10.68-3.63,13.58-4.79,2.9-10.93,1.51-13.71-3.09l17.34-10.49Z"/>
      <path class="cls-4" d="M53.26,77.88c-.83,5.32-5.98,8.93-11.51,8.07-5.53-.86-9.34-5.87-8.51-11.18l20.02,3.11Z"/>
      <path class="cls-4" d="M32.8,74.53c-4.05,3.54-10.32,3-14-1.22-3.68-4.21-3.38-10.5.67-14.04l13.34,15.25Z"/>
      <path class="cls-4" d="M19.28,58.81c-5.38.11-9.83-4.34-9.95-9.93-.11-5.59,4.15-10.22,9.53-10.33l.41,20.26Z"/>
      <path class="cls-4" d="M19.03,38.08c-4.19-3.37-4.74-9.64-1.23-14s9.75-5.16,13.94-1.78l-12.71,15.78Z"/>
      <path class="cls-4" d="M32.16,22.04c-1.04-5.28,2.56-10.44,8.05-11.52s10.78,2.32,11.83,7.6l-19.88,3.92Z"/>
      <path class="cls-4" d="M52.53,18.2c2.59-4.71,8.67-6.35,13.57-3.65,4.9,2.7,6.77,8.71,4.18,13.42l-17.75-9.77Z"/>
      <path class="cls-4" d="M70.61,28.34c5.02-1.94,10.72.71,12.74,5.93s-.41,11.02-5.43,12.96l-7.32-18.9Z"/>
      <path class="cls-4" d="M77.94,47.74c5.09,1.74,7.76,7.44,5.95,12.73-1.81,5.3-7.4,8.18-12.49,6.44l6.54-19.18Z"/>
    </g>
    <polygon class="cls-1" points="52.22 17.83 31.71 21.85 18.58 38.13 18.99 59.03 32.74 74.78 53.39 78.01 71.29 67.21 78.05 47.43 70.52 27.92 52.22 17.83"/>
  </g>
  <circle class="cls-5" cx="37.81" cy="42.17" r="6.86"/>
  <circle class="cls-5" cx="56.06" cy="42.17" r="6.86"/>
  <circle class="cls-3" cx="39" cy="41.52" r="3.3"/>
  <circle class="cls-3" cx="54.06" cy="42.03" r="3.3"/>
  <g>
    <polygon class="cls-2" points="54.06 56.13 53.99 56.06 54.05 56.3 54.06 56.13"/>
    <path class="cls-2" d="M53.62,55.33l-.04.12c.24.68.13.49.38.96,0-.12.02-.38-.07-.65-.02.04.02.31-.05.24-.04-.2,0-.19-.04-.46-.13-.2,0,.18-.09.1l-.09-.31Z"/>
    <path class="cls-2" d="M53.74,56.04c-.03-.12-.06-.24-.08-.34.03.12.04.28.08.34Z"/>
    <path class="cls-2" d="M53.72,56.12c-.05-.01-.07-.25-.09-.29l.08.46v-.17Z"/>
    <path class="cls-2" d="M53.53,56.15s0,.03,0,.05c.03.07.02,0,0-.05Z"/>
    <path class="cls-2" d="M53.46,56.22c.06.15.06.05.07-.03,0,0,0-.01-.01-.03-.06-.12-.13-.45-.07-.38.02-.08.11.23.08.02l-.12-.24c-.05.06.04.53.05.66Z"/>
    <path class="cls-2" d="M53.53,56.15s0-.02.02-.03c-.03-.05-.02-.02-.02.03Z"/>
    <polygon class="cls-2" points="53.63 56.16 53.63 56.08 53.59 55.95 53.63 56.16"/>
    <path class="cls-2" d="M53.32,56.29c-.11-.44.12.02.03-.32-.05.03-.19-.27-.25-.51l-.03.15c.03.17.15.49.24.68Z"/>
    <path class="cls-2" d="M52.87,55.23s0,.06,0,.08c0-.02,0-.04,0-.08Z"/>
    <path class="cls-2" d="M52.76,56.07l.03-.48c.03.14.07.28.05.34.08.04.01-.24.08-.21.13.4-.09.06.05.41.04-.02.09-.06.02-.41l.14.26-.15-.44c-.06-.12.05.36-.05.06-.06-.19-.05-.23-.04-.28-.01.1-.21-.31-.27-.23-.07.07.15.76.15.99Z"/>
    <polygon class="cls-2" points="52.62 55.59 52.56 55.42 52.63 55.65 52.62 55.59"/>
    <path class="cls-2" d="M52.62,56.21v-.3s.05.13.08.21c-.03-.1-.06-.28-.09-.36-.15-.39-.06.16-.08.24-.16-.15-.06-.22-.21-.58.03,0,.06.1.11.11-.2-.43-.16,0-.18.13.02.04.06.16.08.12v.14c.13.3.19.38.28.3Z"/>
    <path class="cls-2" d="M52.76,56.17s-.04.01-.06-.04c.04.11.07.18.06.04Z"/>
    <path class="cls-2" d="M52.24,55.67s.02.01.02-.02c0-.01-.02-.02-.02.02Z"/>
    <path class="cls-2" d="M52.42,56.13l-.07-.03.08.18s.02-.06,0-.16Z"/>
    <path class="cls-2" d="M50.14,56.12c.05.16.09.24.13.19.06.22,0,.19,0,.32.1.12.07.25.15.46.07,0,.02-.29.1-.25.01.06.04.16.07.23.04-.16.12-.4.25-.24.1.06.13-.06.18-.18.31.03.53-.27.88-.15l-.08-.43c.07.21.07-.02.14.26-.03-.05-.03,0-.05.01.17.35.16-.08.27.03-.03-.07-.15-.44-.14-.51.13.47.09-.03.26.5.11.11-.11-.41-.01-.36-.07-.28-.11-.11-.19-.32-.04-.23.1.07.01-.22-.17-.1-.23.54-.38.75l-.05-.27c-.05.21-.2.27-.4-.13.09.24-.18-.09,0,.47-.06-.12-.06-.1-.11-.14l.04.18c-.05.01-.12-.27-.18-.23.11.23.09.31.13.52-.14-.25-.29-.46-.41-.67.03.08.06.16.11.26-.06-.07,0,.16.02.24-.04.02-.12-.29-.16-.45-.1-.08.04.53-.07.34l.09.24c-.06.08-.2-.17-.25-.07-.14-.33-.02-.31-.03-.47-.04-.07-.08-.08-.12-.18.02.18.03.44.03.61-.07-.41-.17-.36-.2-.37Z"/>
    <path class="cls-2" d="M50.32,55.88c0-.06,0-.1-.02-.14,0,.02,0,.05-.02.04.01.04.02.08.03.11Z"/>
    <path class="cls-2" d="M50.14,56.12s0-.03-.01-.04c0,.03,0,.03.01.04Z"/>
    <path class="cls-2" d="M50.86,56.86s-.01-.01-.02-.02c0,0,0,0-.02,0l.03.02Z"/>
    <path class="cls-2" d="M50.59,55.71c.04.08.09.17.14.25-.04-.11-.07-.2-.14-.25Z"/>
    <path class="cls-2" d="M51.17,55.85s-.03-.12-.04-.2c-.03,0-.02.08.04.2Z"/>
    <polygon class="cls-2" points="50.21 55.84 50.17 55.94 50.17 56.01 50.21 55.84"/>
    <path class="cls-2" d="M49.33,57.5c.14.28.17.08.25.12.08-.19-.17-.65-.06-.72l.16.62c.11-.07.31,0,.25-.56.03.07.08.16.07.25.07-.05-.21-.88-.05-.71.01.41.14.35.22.74v.05c.05-.06.08-.28.13-.27-.04-.16-.15-.39-.1-.42-.03-.02-.07-.2-.12-.36-.01.19-.07.09-.05.31-.09-.2,0-.07-.09-.27v.2s-.02-.22-.08-.24c.03.12.02.26-.03.25v-.07c-.02.09-.09,0,.02.34l-.14-.33.07.23c-.12-.06-.31-.61-.34-.29.05.06.06.19.06.24.09.15.01-.19.05-.24.07.23.07.53.17.65-.14-.26-.11.07-.3-.5-.08-.01-.03.27-.15.16l-.02-.09c.1.39-.11-.16-.05.25l.06.07c.04.16.02.17,0,.2q-.01-.06-.04-.13c.07.28,0,.35.01.43.05.04.03-.2.05-.29.03.17.1.4.05.36Z"/>
    <path class="cls-2" d="M49.81,56.27v.14s.02-.07,0-.14Z"/>
    <path class="cls-2" d="M48.86,57.11c-.07-.05-.06-.24-.13-.35,0,.21.17.38.2.68-.08-.16-.04.14-.06.15-.03-.17-.14-.53-.17-.61.01.11-.08-.06-.12-.06.14.21-.03.16.12.38.06.22.03.4-.05.24-.04-.16,0-.13,0-.14-.07-.3-.09-.15-.18-.41.05.43-.2.47.06,1.12.06.12.04-.05.06-.08-.11-.11-.1-.35-.13-.47.06.1.06-.13.11.11l.02.26c.2.08.41-.03.57-.19h-.09c-.04-.17,0-.19,0-.29l-.17-.43s.04-.05.08.11c-.02-.19-.07-.3-.13-.45.04-.09.1.07.06-.23-.2-.33,0,.32-.21.04l.14.6Z"/>
    <polygon class="cls-2" points="49.01 56.8 49.05 57.03 49.06 56.91 49.01 56.8"/>
    <path class="cls-2" d="M49.25,57.78c-.03-.1-.03-.14-.05-.24-.07-.05-.02.08.05.24Z"/>
    <path class="cls-2" d="M48.4,56.99l-.04.09.06.07c-.03-.1-.03-.14-.03-.17Z"/>
    <path class="cls-2" d="M48.3,58.25c.07-.07.05-.28.21-.09-.04-.3-.18-.53-.23-.8-.07-.05.08.43.06.54-.09-.24-.06.07-.12.03.04.1.07.22.08.31Z"/>
    <path class="cls-2" d="M47.74,57.39s-.02.21-.09.1c-.04-.16-.03-.22,0-.19-.12-.35-.03.07-.14-.16.01.04.05.09.06.17-.13-.05.02.31-.17.14,0,.1-.01.11.06.34-.16-.27-.12-.28-.29-.51.04.14.16.44.25.73-.25-.37-.12.1-.29-.19,0-.02,0-.1.03-.06-.13-.41-.05.09-.12.03l-.1-.35c-.03.07-.04.32-.16.08l-.04-.18c-.03.3-.2.21-.25.37l-.11-.2c-.05.3.16.09.22.63-.2-.64,0,.23-.15,0-.11-.25.04-.15-.09-.44.08.33-.01.11-.02.21-.08-.31-.09-.02-.17-.38l.03.62c-.07-.17-.1-.13-.12-.08.08-.02.11.47.24.59.08-.18.25-.35.45-.23-.11-.43.1-.02.02-.38.04.14.09.25.13.38.07-.12-.09-.23-.11-.39.03-.07.13.18.18.33.08,0-.03-.12-.06-.36l.18.46c.18-.21.37-.61.7-.41l-.1-.29c.16.13,0-.71.28-.11l-.04-.26c.02.15.15.43.17.64,0-.11.07,0,.07-.11l-.1-.12c-.03-.26.06-.12.13.09,0-.32-.2-.49-.28-.73.04.58-.27-.5-.32-.24-.02.19.09.27.13.43Z"/>
    <path class="cls-2" d="M48.12,58.15s0-.05,0-.08c0,.02,0,.05,0,.08Z"/>
    <path class="cls-2" d="M46.07,58.08s-.02,0-.03.03c0,.08.01.02.03-.03Z"/>
    <polygon class="cls-2" points="48.22 57.94 48.22 57.93 48.22 57.94 48.22 57.94"/>
    <polygon class="cls-2" points="48.07 57.2 48.03 57.2 48.08 57.34 48.07 57.2"/>
    <path class="cls-2" d="M45.63,57.81l.04.15s-.02-.1-.04-.15Z"/>
    <path class="cls-2" d="M44.71,57.97h.02s-.02-.01-.02,0Z"/>
    <path class="cls-2" d="M42.65,58.91c-.03.11-.08.23-.05.49l-.04-.16c0,.08-.04.36.1.62l-.02-.14c0-.25.13.24.21.32.05-.09-.08-.69.02-.57.02-.02.06.13.09.25.07.02-.03-.43,0-.5.35,1.16.1-.37.4.34.03-.11.14-.03.15-.28.04.3.08,0,.16.34-.17-.69.3.24.07-.62.17.21-.01-.06.16.11.03.1,0,.1,0,.12.1.16-.03-.39.12,0,.11.04-.05-.24-.06-.48.13.07.13.2.29.53-.11-.41,0-.23,0-.46-.02-.02-.11-.08-.11-.25.13.03.01-.29.09-.43.18.44-.1.04.09.37,0,.23-.06.22,0,.56.1,0,.18-.1.23-.32.07.04.03.22.09.25.15.17.02-.5.15-.32l.05.24c-.04-.32.19.02.23-.18-.04-.11-.08-.19-.09-.27.17.58.04-.34.24.05-.11-.37-.09-.6-.04-.65.05.1.09.25.12.35-.15-.2.03.43,0,.62,0-.21.16-.04.13-.32l.06.3c.09.02-.12-.68.05-.42l.05.22c.16-.08.47.24.47-.27-.04-.18-.23-.57-.27-.71-.04.18,0,.5-.02.67l-.1-.33c.05.23.02.39.11.56,0,.19-.12-.28-.13-.08-.1-.35-.07-.4-.15-.69v.19c-.02-.14-.07-.11-.09-.25.03.45-.18-.13-.22.09l.07.05c.06.19.02.18.01.25-.11-.27-.11-.22-.19-.33,0,.17.08.52.02.54-.09-.37-.15-.17-.25-.48.09.37-.08.16-.02.38,0,.08-.06.06-.12-.14,0-.01,0-.05,0-.07h-.03s-.02-.08-.02-.09c-.03,0,.05.27-.04.09-.03-.1,0-.1,0-.14-.09-.04.03.59-.13.28.04.18-.04.22.09.6-.06-.13-.14-.45-.19-.37.06.34-.1-.1-.09.12-.04-.36-.03-.1-.07-.44-.08-.12-.02.34-.11.3-.03-.08-.06-.17-.09-.25,0,.12.05.4-.05.14l.07.23c-.08-.11-.13-.01-.26-.25l.06.46c-.22-.45-.21,0-.16.43-.04-.01-.11-.08-.13-.18,0-.04,0-.11-.01-.17-.05,0-.18-.24-.1.14-.01.13-.11-.25-.16-.29.05.55-.39-.3-.19.5.04,0,.16.13.22.08,0,.1.07.25.05.28-.06.06-.19-.23-.22-.07l-.14-.51c-.27-.48-.05.76-.35.06Z"/>
    <path class="cls-2" d="M43.6,58.65l-.13-.24.07.22s.02-.05.06.02Z"/>
    <path class="cls-2" d="M43.54,58.63s0,.07,0,.11c.01,0,.02-.01.02-.06l-.02-.06Z"/>
    <path class="cls-2" d="M42.46,59.06s-.05-.05-.06.01c.03.06.07.07.06-.01Z"/>
    <polygon class="cls-2" points="42.44 59.23 42.49 59.3 42.48 59.24 42.44 59.23"/>
    <path class="cls-2" d="M41,60.12v.33c-.06-.15-.1.06-.15-.21.05.38-.16.06.03.57.2-.25.64-.04.8-.6v.22c.05-.46.35.4.24-.47l.11.43c.1.1-.04-.65.16-.22l-.06-.17s.05.07.07.07l-.03-.08c0-.19.04-.17.12-.07.04.14,0,.06-.01.11.06.13.02-.17.06-.18.06.11.06.19.07.25.06-.22.25.21.15-.45-.03-.12-.09-.21-.07-.28-.13-.18-.13.09-.15.28h.02c.12.63-.08-.13-.1.16-.05-.26,0-.27-.03-.41-.24-.44-.04.4-.29-.18v-.02c-.03-.05-.02.07-.03.13.03.08.06.11.1.17,0,.06.06.34.08.46-.11-.27,0,.14-.08.02-.09-.25-.03-.24-.05-.38v.19s-.13-.26-.19-.39c.02.2.06.13.11.41-.14-.3-.33-.15-.36.12.03-.05-.07-.27-.01-.25-.03-.05-.05.09,0,.29-.02.19-.15.1-.26-.06l.08.19c.04.34-.21-.2-.25.02h0c-.02.05.09.54,0,.45-.05-.24-.01-.23-.08-.46Z"/>
    <path class="cls-2" d="M40.78,60.67l-.05-.28c-.05-.05,0,.31.06.48,0-.06.07.05.03-.11-.02-.04-.04-.13-.05-.09Z"/>
    <path class="cls-2" d="M40.14,60.9c0,.07.04.17.05.24.13-.07.27-.23.38-.03.07.07-.04-.34,0-.45l.1.27c-.02-.18.16.09,0-.35-.02-.04.03.22-.02.15l-.04-.16-.05.07-.04-.2c-.16-.25.11.6-.05.45l-.11-.39c-.08,0-.07.14-.2-.08,0,0,.06.19.04.11.02.02.08.17.1.29-.02.34-.05-.24-.17-.38-.01.29-.12.57-.26.27.11.22.12.49.06.48-.06-.13-.05-.24-.08-.35-.04-.04-.08-.13-.09-.06.09.21.16.5.14.65.19.21.08-.54.21-.52Z"/>
    <path class="cls-2" d="M40.2,61.24s0-.05,0-.1c-.02,0-.03.02-.05.02l.05.07Z"/>
  </g>
  <g>
    <polygon class="cls-2" points="54.5 56.27 54.44 56.35 54.67 56.25 54.5 56.27"/>
    <path class="cls-2" d="M53.79,56.85l.13.02c.63-.36.46-.21.87-.54-.12.01-.38.05-.63.18.04.01.3-.07.24,0-.19.08-.19.02-.44.13-.17.16.18-.04.12.07l-.29.14Z"/>
    <path class="cls-2" d="M54.47,56.61c-.11.05-.23.1-.32.14.11-.05.27-.08.32-.14Z"/>
    <path class="cls-2" d="M54.55,56.62c0,.05-.24.12-.27.14l.44-.16-.17.02Z"/>
    <path class="cls-2" d="M54.61,56.8h.05c.06-.04,0-.02-.05,0Z"/>
    <path class="cls-2" d="M54.7,56.86c.14-.09.04-.07-.04-.06,0,0-.01,0-.03.02-.11.08-.42.2-.36.13-.09,0,.21-.15,0-.09l-.22.16c.07.04.51-.13.64-.16Z"/>
    <path class="cls-2" d="M54.61,56.8s-.03,0-.03-.01c-.04.03-.01.03.03.01Z"/>
    <polygon class="cls-2" points="54.6 56.7 54.53 56.71 54.41 56.77 54.6 56.7"/>
    <path class="cls-2" d="M54.79,56.99c-.41.18,0-.12-.33.02.04.05-.23.23-.46.33h.15c.16-.05.46-.22.63-.34Z"/>
    <path class="cls-2" d="M53.82,57.59s.06-.02.08-.02c-.02,0-.04,0-.08.02Z"/>
    <path class="cls-2" d="M54.66,57.58l-.48.04c.14-.05.26-.11.33-.1.03-.09-.24.02-.22-.05.37-.19.07.08.4-.11-.03-.03-.07-.08-.41.04l.23-.18-.41.21c-.11.08.35-.11.06.04-.18.09-.22.08-.27.09.1,0-.28.25-.19.29.08.06.73-.26.95-.29Z"/>
    <polygon class="cls-2" points="54.2 57.79 54.04 57.87 54.26 57.76 54.2 57.79"/>
    <path class="cls-2" d="M54.81,57.7l-.3.04s.12-.07.19-.1c-.1.04-.27.1-.35.13-.37.2.16.04.24.05-.13.18-.21.08-.55.27,0-.03.09-.07.1-.12-.41.24.02.15.15.15.03-.03.15-.08.11-.09h.14c.29-.18.35-.25.26-.33Z"/>
    <path class="cls-2" d="M54.75,57.57s.02.04-.04.06c.1-.05.17-.09.04-.06Z"/>
    <path class="cls-2" d="M54.32,58.14s.01-.02-.02-.02c-.01.01-.02.02.02.02Z"/>
    <path class="cls-2" d="M54.76,57.91l-.02.07.17-.09s-.06-.01-.15.03Z"/>
    <path class="cls-2" d="M54.61,59.96c.17,0,.25-.03.22-.06.23,0,.18.05.31.07.14-.06.26,0,.48-.03.02-.07-.27-.08-.22-.15.06,0,.16,0,.24-.02-.15-.08-.37-.19-.19-.29.07-.09-.04-.13-.16-.2.06-.3-.23-.52-.13-.88l-.43.1c.2-.08-.02-.07.25-.15-.05.03,0,.03.01.05.34-.19-.08-.15.02-.27-.07.04-.42.18-.5.18.46-.17-.04-.08.48-.3.1-.12-.4.15-.36.05-.27.1-.1.12-.3.21-.23.06.07-.1-.21.01-.09.16.55.16.76.3l-.26.06c.21.03.27.19-.14.37.24-.08-.1.16.46,0-.12.05-.1.06-.14.1l.18-.03s-.27.1-.25.15c.24-.09.32-.06.53-.09-.26.12-.49.24-.71.32.08-.02.17-.04.27-.07-.08.05.15,0,.24,0,.02.04-.3.08-.47.1-.09.07.53.02.33.1l.26-.05c.07.07-.21.15-.11.22-.35.06-.31-.04-.47-.05-.07.02-.09.05-.2.07.18.01.43.04.6.08-.41-.01-.39.07-.41.09Z"/>
    <path class="cls-2" d="M54.42,59.79c-.06,0-.1,0-.14,0,.02,0,.05,0,.03.02.05,0,.08,0,.11-.01Z"/>
    <path class="cls-2" d="M54.61,59.96h-.04s.03,0,.04,0Z"/>
    <path class="cls-2" d="M55.48,59.45s-.01,0-.02.01v.02s.02-.03.02-.03Z"/>
    <path class="cls-2" d="M54.31,59.56c.09-.03.18-.06.27-.09-.11.02-.2.04-.27.09Z"/>
    <path class="cls-2" d="M54.51,59.1s-.12.02-.21.04c0,.03.08.02.21-.04Z"/>
    <polygon class="cls-2" points="54.36 59.86 54.44 59.91 54.51 59.92 54.36 59.86"/>
    <path class="cls-2" d="M55.55,61.13c.31.04.16-.11.24-.17-.13-.17-.65-.18-.67-.29l.62.15c0-.13.14-.32-.4-.46.08,0,.18-.02.26.02-.02-.09-.9-.1-.69-.18.39.11.38-.01.77.03l.04.02c-.04-.08-.24-.17-.22-.21-.16,0-.41.04-.43-.02-.03.02-.22.01-.38.01.18.05.07.08.28.11-.22.02-.07-.02-.28,0l.2.05c-.05.03-.21-.04-.26,0,.12,0,.26.06.23.09l-.07-.02c.09.03-.03.07.33.08h-.35s.24.02.24.02c-.11.07-.67.03-.39.15.08,0,.2.03.24.05.17-.01-.17-.07-.2-.11.24.02.52.14.66.1-.29.02.01.12-.58.03-.05.04.24.13.09.16l-.09-.02c.38.12-.19,0,.19.15h.1c.15.04.15.06.17.09-.06-.02-.06-.02-.14-.04.27.09.29.19.36.23.06-.02-.15-.14-.21-.2.15.07.39.14.33.16Z"/>
    <path class="cls-2" d="M54.65,60.24l.14.03s-.06-.02-.14-.03Z"/>
    <path class="cls-2" d="M54.96,61.26c-.08.01-.22-.12-.35-.14.16.13.39.14.64.31-.17-.05.07.13.07.15-.14-.1-.48-.27-.56-.3.09.07-.1,0-.12.02.24.06.1.12.35.2.2.11.3.27.13.21-.14-.09-.1-.09-.09-.11-.26-.17-.16-.04-.41-.19.33.28.17.47.76.82.12.05,0-.07,0-.11-.16,0-.3-.21-.4-.29.11.03-.04-.14.16.01l.18.19c.22-.08.32-.36.31-.6l-.05.08c-.17-.09-.16-.13-.23-.2l-.43-.15s-.01-.05.13.01c-.17-.1-.28-.13-.43-.18-.05-.07.11-.02-.15-.16-.37-.08.26.18-.07.12l.55.29Z"/>
    <polygon class="cls-2" points="54.8 60.98 55.01 61.08 54.92 61.01 54.8 60.98"/>
    <path class="cls-2" d="M55.72,61.38c-.09-.04-.13-.07-.22-.1-.08.02.05.07.22.1Z"/>
    <path class="cls-2" d="M54.58,61.44l.04.09.09.02c-.08-.06-.11-.09-.13-.11Z"/>
    <path class="cls-2" d="M55.24,62.51c.03-.11-.11-.28.15-.23-.2-.22-.46-.32-.66-.5-.08,0,.32.3.36.41-.21-.15,0,.1-.09.1.08.06.17.14.24.22Z"/>
    <path class="cls-2" d="M54.32,62.05s.07.19-.03.12c-.1-.13-.13-.18-.08-.16-.25-.27,0,.07-.18-.1.03.03.08.07.12.14-.12-.01.15.28-.08.18.04.09.03.1.17.3-.24-.21-.21-.23-.42-.41.08.12.27.38.44.63-.34-.29-.1.13-.33-.11,0-.02-.03-.09.01-.07-.21-.37-.02.1-.1.05l-.16-.33c0,.07.03.31-.11.08l-.06-.17c.02.29-.12.2-.16.35l-.08-.21c-.05.29.13.1.17.65-.15-.65-.02.23-.15-.02-.07-.26.05-.15-.03-.44.04.34-.02.1-.04.2-.03-.32-.07-.03-.08-.4-.01.21-.04.4-.09.6-.02-.18-.05-.15-.09-.11.07,0-.05.48.05.63.17-.15.37-.28.58-.17-.1-.44.11-.03.03-.38.05.13.1.25.15.38.08-.13-.1-.22-.13-.39.02-.07.15.17.2.32.09,0-.03-.12-.08-.36l.23.43c.21-.25.28-.68.66-.65l-.21-.22c.21.04-.32-.62.2-.22l-.16-.21c.09.12.35.3.47.47-.05-.1.06-.04.02-.14l-.15-.05c-.16-.21-.01-.13.17,0-.17-.27-.43-.3-.63-.47.33.47-.47-.31-.36-.09.08.17.2.21.31.33Z"/>
    <path class="cls-2" d="M55.01,62.54s-.03-.05-.04-.07c0,.02.02.04.04.07Z"/>
    <path class="cls-2" d="M52.97,62.82s-.02,0-.03.02c-.02.08,0,.02.03-.02Z"/>
    <polygon class="cls-2" points="55.01 62.29 55 62.29 55.01 62.3 55.01 62.29"/>
    <polygon class="cls-2" points="54.48 61.76 54.45 61.78 54.56 61.86 54.48 61.76"/>
    <path class="cls-2" d="M52.76,62.4l-.04.16s.03-.1.04-.16Z"/>
    <path class="cls-2" d="M52.24,62v.02s.01-.02,0-.02Z"/>
    <path class="cls-2" d="M50.6,60.57c-.12.01-.24,0-.48.13l.13-.1c-.08.02-.35.1-.53.33l.12-.07c.24-.08-.17.21-.22.32.11.01.61-.33.54-.19.03.01-.1.11-.2.18,0,.08.39-.19.46-.19-.95.77.39-.05-.16.51.12-.01.08.12.32.03-.27.16.03.07-.26.27.57-.42-.11.37.6-.17-.13.24.05-.03-.04.19-.08.06-.09.05-.11.05-.11.15.34-.18.05.11.01.12.2-.14.42-.24-.02.14-.13.2-.38.48.33-.26.22-.08.42-.19,0-.02.03-.13.18-.2.02.13.27-.11.42-.11-.32.35-.08-.07-.3.25-.21.09-.23.04-.51.23.04.09.18.14.4.08,0,.09-.18.13-.18.19-.07.23.45-.22.37-.02l-.18.16c.25-.2.1.18.29.11.06-.1.11-.17.17-.23-.37.48.29-.18.11.22.21-.32.38-.47.43-.49-.04.1-.12.24-.17.33.05-.24-.28.32-.45.43.16-.13.16.11.34-.12l-.16.26c.07.09.37-.58.33-.28l-.1.2c.17.04.36.49.58.01.02-.18.01-.62.04-.76-.07.15-.17.46-.28.6l.09-.34c-.07.23-.18.34-.19.53-.11.15.05-.31-.07-.14.13-.34.17-.37.26-.66l-.09.16c.06-.13.02-.12.08-.25-.22.39,0-.18-.14-.03v.07c-.09.18-.1.15-.14.19.11-.26.09-.23.12-.36-.1.12-.32.42-.36.39.22-.31.05-.22.24-.48-.24.3-.15.06-.3.22-.07.04-.08-.01.06-.17,0,0,.04-.03.06-.04v-.03s.04-.06.05-.06c0-.02-.2.19-.09.03.07-.07.08-.06.11-.09,0-.08-.48.35-.28.06-.13.12-.2.07-.49.37.09-.12.33-.33.25-.34-.28.21.05-.13-.15-.02.31-.19.08-.07.37-.26.08-.12-.3.14-.3.04.06-.06.13-.13.19-.18-.11.06-.35.21-.14.01l-.19.16c.06-.12-.04-.12.13-.33l-.4.24c.33-.37-.09-.19-.46,0,0-.04.03-.13.11-.19.03-.02.1-.05.15-.08-.02-.05.15-.26-.16-.04-.12.03.19-.19.21-.26-.49.25.13-.48-.54,0,.02.03-.06.2.02.24-.09.05-.21.16-.24.15-.08-.04.14-.26-.02-.24l.42-.32c.34-.44-.72.24-.19-.31Z"/>
    <path class="cls-2" d="M51.21,61.36l.17-.21-.17.14s.05,0,0,.06Z"/>
    <path class="cls-2" d="M51.21,61.3s-.06.02-.1.04c0,.01.02.02.06,0l.04-.04Z"/>
    <path class="cls-2" d="M50.39,60.44s.03-.07-.04-.05c-.04.05-.04.09.04.05Z"/>
    <polygon class="cls-2" points="50.23 60.49 50.18 60.56 50.23 60.53 50.23 60.49"/>
    <path class="cls-2" d="M48.84,59.46l-.31.13c.12-.11-.1-.07.14-.22-.33.19-.11-.13-.52.24.31.09.29.58.86.53l-.2.1c.44-.14-.24.47.52.04l-.36.26c-.05.13.59-.28.27.07l.14-.12s-.05.07-.04.09l.06-.06c.17-.07.18-.03.11.09-.11.09-.06.02-.1.03-.1.11.16-.05.19-.01-.08.1-.16.12-.21.16.23-.02-.1.31.47-.03.1-.07.16-.16.23-.16.11-.19-.13-.08-.32-.03v.02c-.53.35.1-.13-.18-.03.22-.14.25-.11.37-.18.32-.39-.39.11.06-.34h.02c.04-.06-.07,0-.14.01-.06.06-.08.1-.12.15-.06.02-.29.18-.39.25.21-.2-.13.06-.05-.07.2-.17.21-.12.33-.19l-.18.07s.2-.22.29-.32c-.18.09-.1.11-.34.25.22-.24.01-.37-.25-.29.05,0,.23-.16.22-.1.04-.05-.11-.01-.27.11-.19.05-.15-.1-.04-.27l-.15.14c-.3.16.11-.27-.11-.23h0c-.06,0-.46.29-.42.18.2-.14.21-.1.39-.25Z"/>
    <path class="cls-2" d="M48.25,59.47l.24-.15c.03-.07-.29.12-.43.24.06-.02-.02.08.12-.01.03-.03.11-.09.07-.08Z"/>
    <path class="cls-2" d="M47.79,58.95c-.06.03-.14.1-.21.14.12.09.32.17.18.35-.03.09.3-.16.42-.18l-.21.2c.16-.08-.02.19.33-.13.03-.03-.19.11-.14.04l.13-.1-.08-.02.17-.11c.17-.25-.52.32-.44.12l.32-.25c-.03-.07-.16-.02,0-.22,0,0-.16.12-.09.08,0,.02-.13.14-.23.2-.32.11.2-.14.28-.3-.28.1-.57.1-.35-.15-.17.19-.41.29-.43.24.1-.11.2-.14.3-.2.02-.05.09-.13.02-.11-.16.16-.41.33-.55.37-.12.25.53-.13.57,0Z"/>
    <path class="cls-2" d="M47.49,59.13s.05-.02.09-.04c-.01-.01-.03-.02-.04-.03l-.05.07Z"/>
  </g>
</svg>