<?xml version="1.0" encoding="UTF-8"?>
<svg id="Layer_1" data-name="Layer 1" xmlns="http://www.w3.org/2000/svg" viewBox="0 0 100 100">
  <defs>
    <style>
      .cls-1 {
        fill: #ffe30c;
      }

      .cls-2 {
        fill: #f9bd46;
      }

      .cls-3 {
        fill: #404041;
      }

      .cls-4 {
        fill: #fffbe3;
      }

      .cls-5 {
        fill: #585859;
      }
    </style>
  </defs>
  <g>
    <g>
      <path class="cls-1" d="M72.63,69.11c2.78,4.6,1.16,10.68-3.63,13.58-4.79,2.9-10.93,1.51-13.71-3.09l17.34-10.49Z"/>
      <path class="cls-1" d="M54.81,79.69c-.83,5.32-5.98,8.93-11.51,8.07s-9.34-5.87-8.51-11.18l20.02,3.11Z"/>
      <path class="cls-1" d="M34.35,76.34c-4.05,3.54-10.32,3-14-1.22-3.68-4.21-3.38-10.5.67-14.04l13.34,15.25Z"/>
      <path class="cls-1" d="M20.83,60.62c-5.38.11-9.83-4.34-9.95-9.93-.11-5.59,4.15-10.22,9.53-10.33l.41,20.26Z"/>
      <path class="cls-1" d="M20.58,39.89c-4.19-3.37-4.74-9.64-1.23-14,3.51-4.36,9.75-5.16,13.94-1.78l-12.71,15.78Z"/>
      <path class="cls-1" d="M33.71,23.85c-1.04-5.28,2.56-10.44,8.05-11.52,5.49-1.08,10.78,2.32,11.83,7.6l-19.88,3.92Z"/>
      <path class="cls-1" d="M54.08,20c2.59-4.71,8.67-6.35,13.57-3.65,4.9,2.7,6.77,8.71,4.18,13.42l-17.75-9.77Z"/>
      <path class="cls-1" d="M72.16,30.15c5.02-1.94,10.72.71,12.74,5.93,2.02,5.22-.41,11.02-5.43,12.96l-7.32-18.9Z"/>
      <path class="cls-1" d="M79.49,49.54c5.09,1.74,7.76,7.44,5.95,12.73-1.81,5.3-7.4,8.18-12.49,6.44l6.54-19.18Z"/>
    </g>
    <polygon class="cls-2" points="53.77 19.63 33.26 23.66 20.13 39.93 20.54 60.83 34.28 76.58 54.94 79.81 72.84 69.01 79.6 49.23 72.07 29.73 53.77 19.63"/>
  </g>
  <circle class="cls-4" cx="42.51" cy="43.55" r="6.86"/>
  <circle class="cls-4" cx="54.75" cy="43.55" r="6.86"/>
  <circle class="cls-3" cx="38.13" cy="42.47" r="3.3"/>
  <circle class="cls-3" cx="50.89" cy="42.98" r="3.3"/>
  <g>
    <path class="cls-5" d="M67.23,46.51c-.09-.02-.28-.02-.25.05l.33.05-.08-.1Z"/>
    <path class="cls-5" d="M66.58,46.92c.16.08.43.19.74.16-.31-.09-.18-.11-.55-.21-.03-.06.11-.11.23-.09-.08-.03.08-.1-.13-.14-.26.08-.28.18-.08.3-.07.02-.16,0-.22-.02Z"/>
    <path class="cls-5" d="M64.48,52.52l.05-.02s-.04,0-.05.02Z"/>
    <path class="cls-5" d="M62.24,55.4s0-.06-.03-.08c0,.03,0,.06.03.08Z"/>
    <path class="cls-5" d="M61.56,55.6s.03,0,.04,0c-.03-.01-.05-.01-.04,0Z"/>
    <path class="cls-5" d="M64.48,52.52l-.13.04c.09.06.09,0,.13-.04Z"/>
    <path class="cls-5" d="M67.32,47.86s-.04-.05-.08-.07c.01.02.02.04.03.06h.05Z"/>
    <path class="cls-5" d="M64.9,50.96v-.03s-.06-.04-.11-.07l.11.1Z"/>
    <path class="cls-5" d="M65.25,49.8s.25.11.36.16c-.11-.05-.15-.08-.17-.11-.05-.02-.11-.03-.19-.04Z"/>
    <path class="cls-5" d="M66.14,48l-.03-.04s.02.03.03.04Z"/>
    <path class="cls-5" d="M64.5,51.73s-.07-.03-.1-.03c.03.01.06.03.1.03Z"/>
    <path class="cls-5" d="M34.27,55.05s.02-.02.04-.03c-.03.01-.04.02-.04.03Z"/>
    <polygon class="cls-5" points="34.4 53 34.43 53 34.56 52.91 34.4 53"/>
    <path class="cls-5" d="M60.52,56.11h0s0-.03,0,0Z"/>
    <path class="cls-5" d="M51.6,60.22c.14.25-.17.33.03.6-.02-.11.13-.44-.03-.6Z"/>
    <path class="cls-5" d="M67.28,47.89s0,.04,0,.06c.01-.02.01-.04,0-.06Z"/>
    <path class="cls-5" d="M51.63,60.82h0s.02.03.02.03c0-.01-.01-.02-.02-.03Z"/>
    <path class="cls-5" d="M58.63,57.78s.06.06.09.09c-.02-.02-.04-.05-.09-.09Z"/>
    <path class="cls-5" d="M60.4,56.96h-.06s.05,0,.06,0Z"/>
    <path class="cls-5" d="M57.99,58.63s-.06-.03-.07.02c.01,0,.02.02.03.02,0-.04,0-.06.05-.04Z"/>
    <polygon class="cls-5" points="57.07 59.11 57.11 59.16 57.13 59.13 57.07 59.11"/>
    <path class="cls-5" d="M36.88,57.43c.03-.08.08-.15.12-.23-.12.16-.29.11-.12.23Z"/>
    <path class="cls-5" d="M67.16,47.84c.07.01.1.03.12.05,0-.01,0-.03-.01-.04-.04,0-.08-.01-.11,0Z"/>
    <path class="cls-5" d="M59.04,60.59c-.06.02-.12.04-.18.06.06,0,.12-.02.18-.06Z"/>
    <path class="cls-5" d="M44.06,61.48l-.05.02s.03,0,.05-.02Z"/>
    <path class="cls-5" d="M58.38,60.93c-.08-.07-.13-.11-.18-.13,0,.02,0,.04.01.07l.17.05Z"/>
    <path class="cls-5" d="M37,57.2h0s0,0,0,0Z"/>
    <path class="cls-5" d="M35.65,56.89c.12.13.31-.21.48-.33.22.07-.12.27-.19.45.16.02.46-.16.53-.09-.04.05-.04.08-.1.12.3-.13.32.26.68.08-.01.03-.03.06-.04.08.1-.16.22-.3.31-.4.06.04.26-.09.12.12-.03-.04-.1.04-.16.08l.13-.03c-.17.31-.16.02-.33.22.19.02.51-.09.54.07-.19.28-.29-.09-.36.24l-.06-.22c-.23.51-.06-.1-.33.42.13.24.32.05.46.28.16-.11.16-.23.32-.34.49-.06-.3.84.18.64.19-.14.47-.47.48-.18l-.28.27c.17.18.44-.36.48,0-.12.1-.23,0-.22.05-.05.34.22-.11.32-.03l-.18.29c.24.1.62.05.89.15-.07.08-.17.14-.17.26.39.06.62.46.83.8l.26-.19s-.02.14-.07.18c.06.16.1-.16.21-.23.08.02,0,.2-.08.25.34-.1.84-.13.92.25l-.08.06c.12.19.47-.44.51-.12l-.05.03c.33.3.84.26.97.78.22-.37.32.33.57-.2.11.36.01.43.26.75.08.06.26-.29.38-.32l-.1.29.25-.26-.04.37.13-.04s-.04-.16,0-.24c.2-.08.31.33.27.48l.45-.12c-.04.12-.12.14-.19.19.29-.23-.06.32.21.11,0-.08.07-.17.09-.23.04.21.25.26.43.23l-.09.2c.27.13.63.06.95.14-.09-.13.02-.48.12-.49l-.04.33c.1-.18-.07-.14.11-.35.11.06,0,.38-.09.47l.17-.08c-.01.1-.06.14-.09.26.1-.19.19.37.35.04v.1c.32.06.49-.02.75.01.05-.28.14-.2.25-.41.18.12.37.36.61.36.18-.12.08-.23.17-.39-.02.26.22.26.08.43.29-.02.37,0,.74-.19-.03-.11-.07-.15-.04-.24.07-.04.14.11.12.23l-.02.03c.41-.37.91.78,1.24.25l-.02.03.33-.29c.15.04-.09.2.03.35.35-.44.58.04.86-.26.29.75.81-.14,1.17.3l-.04-.17c.06-.18.11.09.18.12-.03-.14-.11-.15-.07-.25.64-.3,1.44,0,2.19-.02.27-.03-.11-.93.32-.61v.34c.39-.52,1.04-.31,1.39-.83,0,.08.04.17-.01.19.19.18.38-.14.3-.32.08,0,.09.16.17.23.16.09.13-.38.28-.19.02.03,0,.08,0,.11.02-.13.31-.12.13-.34.23.03.27-.27.48-.19-.05-.32.36-.01.18-.42.2.4.47.18.47-.07.03.14.16.07.21.26.12-.08.18-.22.04-.4.49.33.2-.63.69-.12.23-.41.42-.77.66-1.07.25.37-.3.27-.01.65.18-.36.11-.78.45-.89.11,0,.08.18.1.26.17-.34.54-.39.63-.77.03.03.03.09.03.14.04-.05.15-.04.01-.19v.08c-.27-.17-.23-.62-.33-.75.31.51.32-.08.69.58,0-.05-.02-.16-.12-.26.07,0,.14.04.2.19.09-.23-.11-.33.03-.46.07.07.07.13.13.23-.06-.21-.12-.42.05-.47.03.05.1.09.07.13.18-.22-.03-.7.32-.78.25.36.18.03.46.27l.04-.19-.18-.08c.11-.1-.02-.38.15-.39l.04.18.12-.25-.21.02c-.05-.24-.36-.3-.16-.37,0,.05.09-.1.31-.02h0c-.04-.13-.09-.26.04-.28.11.06.3.28.38.32-.2-.25.15-.31-.05-.58.04.07.2.19.23.21l-.16-.2c.1,0,.14.01.26.12.15-.13-.41-.24-.11-.3,0,.03.04.04.05.1.22-.13.14-.46.37-.57.35.16-.04.21.26.33.14-.3.02-.78.24-1l-.06.03c-.43-.32.34-.05.21-.32.01.05.23.19.18.16.18-.14.11-.44.12-.79l.1.1c.16-.05.21-.26.32-.35-.1-.1-.05-.16-.25-.2.87-.04-.02-.86.69-.94-.01.04.07.14.09.11v-.34c-.23-.06-.15-.01-.34-.02-.11-.09-.18-.21-.16-.27.09.18.35.13.49.12-.07-.02-.14-.06-.2-.08.44,0-.43-.19-.09-.29l.11.05c-.03-.1-.15-.22-.09-.29.27.05.09.12.29.2.03-.12-.39-.39-.11-.41.06.07.03.14.08.22.34-.01.27-.05.34-.13h0s.19-.16.19-.16l-.1.03c-.62-.35-.04-.35-.42-.67.36.31.23.1.52.19.1-.03.21-.09.29-.04-.21-.16.23-.12-.08-.34.1.02.04-.1.27-.02-.04-.15-.17,0-.29-.05-.26-.26.49-.39.1-.76-.14-.28-.46-.38-.58-.62.17-.05.34.11.34.11.16-.1.15-.2.06-.33.08.03.16.02.27,0-.02-.1-.35-.1-.2-.21.11.03.28.08.38.14-.08-.12-.25-.25-.33-.38.17-.02.25.09.36.14-.07-.14-.13-.36-.39-.41l-.1.08s.23,0,.28.03c.2.13-.1.15-.2.15l-.06-.09c-.58.03.07.33.02.49l-.41-.11.33.21c-.11.02-.35.01-.4-.07-.22.08.13.12-.11.18-.04,0-.06,0-.07-.01l.1.13c-.08-.03-.29-.02-.22-.08-.27.15.25.36-.07.38l-.02-.02c.09.29.3.08.61.35h-.76s.29.08.29.08c-.02.03-.05.08-.17.04.19.15.13,0,.32.11-.29.08.04.4-.44.32.21.1.21-.08.33.1-.52-.09.04.19-.22.25-.25-.11-.08-.18-.35-.13.42.19-.16.2-.1.32.35.11.09.26.15.46-.11-.05-.31.24-.48.35l-.06-.03c.33.16.21.29.24.43-.2-.08-.28-.14-.34-.23l-.04.1c.1.07.15.12.16.21l-.24-.13c-.04.14.2.41-.06.51.23.12.72.14.78.41-.13-.05-.35-.14-.38-.21,0,.02.08.1,0,.11l-.18-.17c-.13.04.16.12.11.18-.18-.08-.15-.01-.29-.09,0-.02.1-.02.04-.08-.07.06-.22.09-.37.06.1.04.24.11.24.18-.05.14-.24-.06-.37-.02.11.09-.06.11.2.25-.02.04-.15-.02-.23-.04.08.13-.13.34.19.41h.03s0,0,0,0h0s0,0,0,0c.15.38-.42.38-.43.67l-.08-.05c.02.19-.12.32,0,.53-.02.04-.21,0-.3-.09,0,.14.09.22-.14.26-.07-.19-.15-.05-.03-.17-.16.07-.31.01-.18.29-.18-.19-.33-.09-.31,0l.21.02c-.02.09-.08.13-.14.17l-.25-.23c-.5,0,.24.87-.45.62.13.21.24-.02.4.2-.13.08-.59-.11-.62-.08-.26.02.26.45.03.52.11.06.36.25.35.44-.13.08-.49-.2-.5-.33.01-.03.05-.02.08,0,0-.06,0-.14-.14-.18l.08.09c-.14-.03-.25.13-.37-.04.02.15.11.17.21.15-.24.02-.18.21-.4.26.07.02.19.1.17.12-.3.09.08.24-.02.41-.2-.05-.28-.33-.3-.09-.17,0-.24-.21-.28-.31.04.28-.32.11-.42.14v-.13c0,.08-.03.11-.06.14l.2.14c-.06,0-.1.04-.16-.04.07.15.3.26.37.49-.13-.04-.07.24-.3.02.24-.06-.23-.22-.13-.37,0,.05-.03.08-.1.08-.03-.02-.04-.05-.04-.08-.34-.08.17.32,0,.46-.1-.15-.26-.22-.26-.17.07-.05.23.2.25.35-.2-.02-.05.18-.11.21h.11c.09.15.02.18-.02.28-.09-.1,0-.13-.06-.16.11.31-.39-.09-.37.17-.13-.05-.21-.26-.31-.28,0,.28-.29-.09-.32.16.18.16.16.11.19.37l.13-.3.06.38c.07-.05.06-.23.13-.23.05.21.02.15.17.29-.32-.21-.07.31-.33.2l-.35-.48c-.32-.09-.12.46-.43.5l.13.03c.1.22-.12.13-.14.26-.1-.17-.19-.2-.29-.28.08.12-.17.09.02.43l-.24-.16c-.24.02.08.61-.14.66-.05-.22-.21-.29-.16-.49-.06.03-.13.04-.06.15-.1-.09-.03.33-.18.2.02.09.11.28.03.3-.03-.03-.05-.09-.05-.09.05.09-.05.17.12.33-.49-.44-.54.32-.94-.07-.11.13-.25.27-.37.34-.02-.06-.04-.09,0-.08-.25-.1.12.56-.17.46-.23-.25.04-.2-.07-.29-.28-.59-.21.18-.49-.12l.02-.05c-.18-.16-.16.33-.35.36,0,0-.01-.06-.03-.09,0,.37-.2.53-.34.68-.02-.26.04-.15-.08-.39-.07.06.15.39.02.5-.09-.12-.24-.2-.33-.46l.14-.06c-.18-.32-.18.07-.27.03l-.03-.15c-.2.11-.1.49-.34.54l.05.11c-.03.42-.17-.19-.23.13l-.13-.38c-.06.11-.22.44-.36.54.03-.31.18-.49.25-.68-.09.01-.28.09-.29.29.03-.04.05-.15.1-.1-.04.33-.15.51-.33.54-.11-.76-.49-.09-.7-.68-.26.32-.61-.05-.95.04.18.58-.1.03-.03.63-.08.04-.12.03-.13,0l-.28-.35c-.07-.18.07-.14.05-.27-.18-.04-.09-.26-.21-.41.04.22-.05.32-.15.24l.16.28c-.24.34-.23-.5-.47-.17l.07-.2c-.13.13-.47.01-.6.49-.02-.07-.05-.24,0-.28-.3-.08-.71.5-.94.19l.03-.15c-.06.04-.12.27-.18.11,0-.06.04-.15,0-.16-.03.05-.18.24-.25.15l.08-.16c-.28-.23-.5.36-.78.43.06-.44-.16-.6-.26-.7v-.06c-.32-.12-.63.25-1,.36-.1-.49-.63-.36-.88-.7.03.09-.1.33-.17.36-.05-.1-.29.24-.17-.15h.02c.05-.38-.13-.32-.24-.37l-.17.5c-.08-.83-.91,0-.85-.71-.12.1-.21.06-.33.15l.1-.26c-.17-.15-.26-.22-.53-.26l.13-.17c-.13-.07-.49.68-.63.64l.13-.4c-.25-.09-.33-.56-.73-.32.03-.05.09-.16.14-.16-.11-.06-.3-.46-.52.07.17-.34-.23-.14-.43-.08l.15-.23c-.27.25-.32.34-.52.34-.02-.05.08-.21.09-.12-.05-.19-.22.18-.29-.03l.14-.12c-.11-.09-.15,0-.32.14-.13.05-.2-.19-.09-.42-.09.12-.27.26-.3.16.04-.09.1-.12.12-.14-.1-.28-.46.09-.45-.23.05-.08.06-.12.07-.15.15.11.27.2.24.21.13-.22.04-.34.32-.57-.2.1-.6.34-.65.16,0-.02.02-.05.03-.08l.03-.02s-.05-.04-.1-.02c-.02-.06-.02-.1-.06-.13.1-.19-.08-.19-.13-.24-.15.24-.21.14-.26.39,0-.02.03-.02.08,0,.01,0,.03,0,.04,0l-.02.02s.1.05.17.09c-.13.09-.25.15-.23-.02-.14.13-.28.25-.34.32.13-.38.1-.67.22-.88-.27,0-.48-.23-.92.1-.09.01.03-.17.06-.25.06-.02.09.01.16-.03-.19.03-.34-.19-.59.08-.03-.23.28-.21.07-.3l.09-.07c.05-.73-1.16.25-1.04-.64,0,.06,0,.08-.04.13-.18-.63-1.08-.57-1.07-1.35-.03-.19-.21-.04-.41,0l.2-.23-.37.11c-.35-.01.28-.78-.27-.7l-.13.16c-.04-.11-.3-.19-.11-.32-.04.01-.19.11-.13,0l.12-.1-.38-.04c-.04-.23.51-.36.36-.61-.11-.05-.56.04-.62.13.02.04,0,.15-.13.25l-.13-.03c-.38.26-.82.48-.91.89l.34-.03-.14.18-.11-.11c-.11.2.07.13.21.1-.09.09-.14.16-.15.21l.46-.13c-.13.13-.33.16-.34.32.21-.06.27-.32.46-.29-.11.2-.26.29-.05.26-.08.09-.16.12-.22.12.17-.02.2.15.42.03-.15.24.25.19-.09.47.1-.05.37-.11.44-.05-.5.23.19.26-.26.6.43-.23.44.17.77.14-.03.02-.11.05-.1.02.05.11-.03.24-.04.35.29-.26.48-.2.72-.31-.17.36-.39.27-.61.55.22-.23.4-.05.55-.27-.09.24-.01.15-.2.42.36-.34.13.01.4-.14-.06.28-.29.36-.06.37-.04.17-.27.19-.27.19ZM39.38,58.75h0s-.06-.02-.08-.03c.02,0,.04.01.08.03ZM39.66,58.93s-.07-.06-.12-.09c.04-.09.11-.17.13-.14-.05.04-.01.14-.02.23ZM40.16,56.93c.06,0,.05.05.02.1-.02,0-.05-.02-.09-.02l-.02.03s.07-.08.1-.11Z"/>
    <path class="cls-5" d="M39.87,57.18s-.02,0-.03,0c0,.03,0,.05-.01.07l.06-.06h-.02Z"/>
    <path class="cls-5" d="M64.54,52.5h0s.02,0,.04,0c-.01,0-.02,0-.03,0Z"/>
    <polygon class="cls-5" points="43.65 61.49 43.67 61.42 43.62 61.47 43.65 61.49"/>
    <path class="cls-5" d="M66.15,51.26s.05,0,.08,0c-.02,0-.04,0-.08,0Z"/>
    <path class="cls-5" d="M66.49,50.52l.13-.08c-.07.03-.1.06-.13.08Z"/>
    <path class="cls-5" d="M66.79,49.96s-.08-.03-.11-.04h0s.11.04.11.04Z"/>
    <path class="cls-5" d="M61.64,58.38s0,.02-.01.03c0,.08,0,.04.01-.03Z"/>
    <path class="cls-5" d="M63.26,55.84c.02.06.04.11.04.16.05-.03.08-.05-.04-.16Z"/>
    <polygon class="cls-5" points="59.06 60.58 59.06 60.58 59.04 60.59 59.06 60.58"/>
    <path class="cls-5" d="M63.21,56.1c.08,0,.1-.04.09-.1-.04.02-.1.04-.09.1Z"/>
    <path class="cls-5" d="M67.38,47.29v-.03s-.02,0-.03,0l.03.04Z"/>
    <path class="cls-5" d="M67.35,47.26l-.03-.04s0,.03.03.04Z"/>
    <path class="cls-5" d="M67.26,47.15l.07.08s.01-.05-.07-.08Z"/>
    <path class="cls-5" d="M67.18,48.11l.1.02s-.05-.02-.1-.02Z"/>
    <path class="cls-5" d="M67.16,48.37c.03-.06.24-.12.19-.21l-.08-.02c.14.06-.27.15-.11.23Z"/>
    <path class="cls-5" d="M65.74,49.12c.05-.06.08-.11.12-.17-.11.01-.26.02-.27-.07-.36.17.25,0,.15.24Z"/>
    <path class="cls-5" d="M65.43,49.66c-.02-.11-.15-.04-.21-.06.08.09.1.11.21.06Z"/>
    <path class="cls-5" d="M63.66,53.56l-.21-.15c0,.09.08.05.21.15Z"/>
    <polygon class="cls-5" points="64.25 55.01 64.42 55.04 64.26 54.87 64.25 55.01"/>
    <polygon class="cls-5" points="62.5 54.32 62.49 54.27 62.49 54.43 62.5 54.32"/>
    <path class="cls-5" d="M57.12,58.81l.16.27c.02-.07-.13-.4-.16-.27Z"/>
    <path class="cls-5" d="M54.36,60.2c-.07-.14-.18-.22-.2-.06.07,0,.17.11.2.06Z"/>
    <polygon class="cls-5" points="45.28 59.36 45.37 59.28 45.23 59.33 45.28 59.36"/>
  </g>
</svg>