<?xml version="1.0" encoding="UTF-8"?>
<svg id="Layer_1" data-name="Layer 1" xmlns="http://www.w3.org/2000/svg" viewBox="0 0 100 100">
  <defs>
    <style>
      .cls-1 {
        fill: #fbc498;
      }

      .cls-2 {
        fill: #404041;
      }

      .cls-3 {
        fill: #fffbe3;
      }

      .cls-4 {
        fill: #f27021;
      }

      .cls-5 {
        fill: #585859;
      }
    </style>
  </defs>
  <g>
    <g>
      <g>
        <path class="cls-4" d="M74.59,68.36c2.78,4.6,1.16,10.68-3.63,13.58-4.79,2.9-10.93,1.51-13.71-3.09l17.34-10.49Z"/>
        <path class="cls-4" d="M56.77,78.94c-.83,5.32-5.98,8.93-11.51,8.07-5.53-.86-9.34-5.87-8.51-11.18l20.02,3.11Z"/>
        <path class="cls-4" d="M36.31,75.59c-4.05,3.54-10.32,3-14-1.22-3.68-4.21-3.38-10.5.67-14.04l13.34,15.25Z"/>
        <path class="cls-4" d="M22.8,59.87c-5.38.11-9.83-4.34-9.95-9.93-.11-5.59,4.15-10.22,9.53-10.33l.41,20.26Z"/>
        <path class="cls-4" d="M22.54,39.14c-4.19-3.37-4.74-9.64-1.23-14,3.51-4.36,9.75-5.16,13.94-1.78l-12.71,15.78Z"/>
        <path class="cls-4" d="M35.68,23.1c-1.04-5.28,2.56-10.44,8.05-11.52,5.49-1.08,10.78,2.32,11.83,7.6l-19.88,3.92Z"/>
        <path class="cls-4" d="M56.05,19.26c2.59-4.71,8.67-6.35,13.57-3.65,4.9,2.7,6.77,8.71,4.18,13.42l-17.75-9.77Z"/>
        <path class="cls-4" d="M74.12,29.4c5.02-1.94,10.72.71,12.74,5.93,2.02,5.22-.41,11.02-5.43,12.96l-7.32-18.9Z"/>
        <path class="cls-4" d="M81.45,48.8c5.09,1.74,7.76,7.44,5.95,12.73-1.81,5.3-7.4,8.18-12.49,6.44l6.54-19.18Z"/>
      </g>
      <polygon class="cls-1" points="55.73 18.88 35.22 22.91 22.1 39.18 22.5 60.09 36.25 75.84 56.9 79.07 74.8 68.26 81.57 48.49 74.04 28.98 55.73 18.88"/>
    </g>
    <circle class="cls-3" cx="43.66" cy="42.38" r="9.34"/>
    <circle class="cls-3" cx="58.28" cy="42.38" r="7.72"/>
    <circle class="cls-2" cx="48.52" cy="43.58" r="3.3"/>
    <circle class="cls-2" cx="54.99" cy="43.09" r="3.3"/>
  </g>
  <g>
    <path class="cls-5" d="M63.36,56.36c.06-.06.16-.23.11-.22l-.21.26.1-.04Z"/>
    <path class="cls-5" d="M63.49,55.72c-.13.11-.32.32-.46.59.21-.25.15-.13.39-.42.05-.01,0,.12-.08.22.06-.06,0,.09.14-.07.1-.24.05-.28-.12-.13.03-.07.09-.13.12-.18Z"/>
    <path class="cls-5" d="M60.36,53.62v.04s0-.04,0-.04Z"/>
    <path class="cls-5" d="M58.13,52.82s.03-.03.04-.06c-.02.02-.04.03-.04.06Z"/>
    <path class="cls-5" d="M57.8,52.38s.01.02.02.03c0-.03-.01-.05-.02-.03Z"/>
    <path class="cls-5" d="M60.36,53.62l-.03-.12c-.04.1,0,.09.03.12Z"/>
    <path class="cls-5" d="M62.64,56.14s.04-.03.07-.06c-.02,0-.03.01-.04.01l-.03.04Z"/>
    <path class="cls-5" d="M61.44,53.74h.02s.04-.06.07-.11l-.09.11Z"/>
    <path class="cls-5" d="M62.19,54.04s-.14.23-.2.34c.06-.1.1-.14.12-.16.02-.05.05-.11.08-.18Z"/>
    <path class="cls-5" d="M63.08,55.08l.04-.02s-.02.01-.04.02Z"/>
    <path class="cls-5" d="M60.92,53.47s.02-.08.03-.1c-.01.03-.02.06-.03.1Z"/>
    <path class="cls-5" d="M42.05,60.19s-.03-.02-.04-.03c.02.02.03.03.04.03Z"/>
    <polygon class="cls-5" points="40.41 60.04 40.4 60.02 40.27 59.93 40.41 60.04"/>
    <path class="cls-5" d="M57.1,51.92h0s.01-.02,0,0Z"/>
    <path class="cls-5" d="M50.14,52.48c.13.23-.05.34.13.59-.04-.1,0-.45-.13-.59Z"/>
    <path class="cls-5" d="M62.64,56.1s-.02,0-.03-.01c0,.01.02.02.03.01Z"/>
    <path class="cls-5" d="M50.27,53.07h0s.02.03.02.03c0-.01-.01-.02-.02-.03Z"/>
    <path class="cls-5" d="M55.33,51.94s0,.09.01.12c0-.03,0-.06-.01-.12Z"/>
    <path class="cls-5" d="M56.59,52.43l-.03-.04s.02.04.03.04Z"/>
    <path class="cls-5" d="M54.65,52.31s-.02-.06-.05-.02c0,.01,0,.02,0,.03,0-.04.02-.06.04-.01Z"/>
    <path class="cls-5" d="M53.95,52.33s0,.04.01.06l.02-.02-.04-.04Z"/>
    <path class="cls-5" d="M43.19,58.73c-.06-.05-.13-.1-.2-.16.15.14.13.25.2.16Z"/>
    <path class="cls-5" d="M62.72,56.01c-.04.06-.06.09-.08.09,0,0,.02,0,.03,0,.02-.03.04-.07.05-.09Z"/>
    <path class="cls-5" d="M54.61,54.53l-.1-.05s.06.04.1.05Z"/>
    <path class="cls-5" d="M46.75,56.16v.04s0,0,0-.04Z"/>
    <path class="cls-5" d="M54.23,54.54c-.02-.1-.04-.16-.06-.19,0,.02,0,.04,0,.07l.07.12Z"/>
    <path class="cls-5" d="M42.99,58.57h0s0,0,0,0Z"/>
    <path class="cls-5" d="M43.02,59.5c.07-.06-.23-.28-.37-.44,0-.15.23.15.39.26-.02-.12-.23-.39-.18-.42.05.04.07.05.11.11-.16-.26.14-.16-.06-.49.03.02.05.04.07.06-.14-.12-.27-.26-.36-.35.03-.04-.1-.23.07-.06-.02.01.04.09.09.15l-.04-.11c.27.22.04.13.22.32-.02-.14-.14-.43-.03-.4.24.24-.03.2.24.35l-.16-.02c.42.33-.07.02.38.38.16-.02-.02-.24.15-.25-.1-.16-.2-.2-.3-.36-.08-.38.68.54.49.12-.12-.19-.39-.53-.17-.42l.22.31c.12-.05-.3-.47-.03-.36.08.13,0,.16.05.19.26.18-.09-.21-.04-.25l.23.25c.07-.13.03-.42.11-.56.06.09.1.19.19.24.04-.26.34-.23.62-.16l-.11-.28s.1.09.12.15c.12.05-.1-.15-.14-.27.02-.04.14.11.17.19-.04-.27,0-.65.29-.46l.03.09c.15.04-.23-.57,0-.4v.05c.27-.02.34-.4.73-.09-.18-.38.29.06.01-.46.26.19.28.3.53.39.06,0-.11-.36-.09-.44l.15.27-.08-.33.21.31v-.1s-.09-.1-.13-.18c.02-.17.29.09.36.23l.07-.33c.05.11.04.17.05.25-.04-.34.16.28.12-.03-.04-.06-.07-.17-.1-.23.13.15.23.1.28,0l.07.2c.16-.01.26-.22.42-.28-.1-.07-.23-.41-.2-.46l.15.29c-.05-.2-.1-.09-.13-.35.08,0,.19.32.19.44l.03-.14c.04.09.04.14.09.26-.05-.2.25.25.16-.09l.04.09c.16-.07.19-.2.31-.27-.1-.26-.03-.23-.06-.46.13.05.32.22.43.16.04-.16-.05-.23-.07-.4.09.24.2.18.2.37.13-.09.17-.11.29-.37-.05-.09-.09-.13-.1-.22.02-.05.11.08.14.2v.03c.1-.43.68.56.7,0v.03s.1-.31.1-.31c.09.02,0,.2.1.34.08-.46.31,0,.4-.32.29.71.41-.15.67.29l-.04-.17c0-.18.07.09.11.12-.03-.13-.08-.15-.07-.25.31-.29.78.15,1.15.25.14.03-.04-.92.18-.53v.33c.21-.44.54-.06.78-.4-.01.08,0,.18-.03.18.07.24.21,0,.2-.19.04.02.02.18.05.27.06.14.12-.31.17-.08,0,.04-.01.08-.02.1.03-.12.17.02.12-.25.1.13.19-.13.27.03.05-.31.17.14.18-.3,0,.45.18.35.24.15-.02.14.05.14.03.33.07,0,.14-.08.13-.32.12.55.28-.42.34.27.22-.23.43-.39.63-.49-.04.45-.22.04-.24.51.19-.18.33-.56.5-.44.04.06-.04.19-.07.27.2-.18.35.08.53-.15,0,.04-.03.08-.05.12.03-.01.07.08.09-.13l-.04.05c-.02-.3.2-.6.23-.76-.13.58.15.17-.03.89.03-.04.06-.13.08-.26.03.04.03.12-.03.27.13-.1.12-.32.22-.3-.01.1-.04.13-.07.25.08-.18.16-.37.24-.27-.01.06-.02.14-.04.13.15,0,.34-.47.48-.27-.12.42.03.15-.02.52l.11-.09v-.19c.07.02.19-.23.24-.09l-.09.14.16-.04-.06-.16c.12-.17.08-.47.17-.34-.03.03.08.02.08.25h0c.06-.11.13-.22.17-.11-.01.12-.1.4-.11.48.11-.3.2-.04.33-.35-.03.07-.08.26-.08.3l.09-.24c.02.09.01.13-.03.28.1.07.08-.47.16-.24-.02.02-.02.06-.05.09.1.13.29-.1.38.05-.06.37-.13.06-.17.38.19-.03.48-.35.61-.2l-.02-.05c.18-.5.05.29.2.08-.03.03-.11.27-.09.22.08.12.26-.05.49-.15l-.07.12c.03.14.15.12.2.21.07-.12.1-.09.14-.28-.06.8.58-.26.52.44-.02,0-.1.09-.08.09l.21-.04c.08-.22.03-.14.07-.32.07-.12.16-.19.2-.17-.13.11-.15.34-.17.47.02-.07.06-.13.09-.2-.08.42.2-.42.2-.11l-.06.11c.07-.04.17-.16.21-.11-.09.25-.1.09-.19.29.07.02.34-.4.29-.13-.06.05-.1.04-.16.09-.07.31-.03.25,0,.31h0s.05.17.05.17v-.09c.39-.59.23-.04.54-.4-.3.34-.13.22-.27.48-.01.09-.01.19-.06.26.16-.19,0,.21.23-.08-.04.09.05.03-.08.24.1-.04.06-.16.13-.26.26-.25.03.49.39.16.21-.09.4-.36.6-.44-.04.16-.21.29-.21.29-.01.16.05.17.16.1-.06.07-.08.14-.12.24.06,0,.22-.29.2-.13-.07.09-.17.23-.25.31.1-.04.25-.17.35-.21-.08.15-.17.2-.25.28.1-.03.24-.03.41-.25v-.11s-.1.2-.14.23c-.17.15-.03-.13.02-.21l.07-.03c.26-.51-.21-.02-.27-.1l.25-.33-.26.24c.04-.1.14-.31.22-.34.05-.21-.13.1-.06-.13.01-.03.03-.05.04-.06l-.12.07c.06-.07.14-.26.14-.19.01-.27-.33.17-.21-.13l.02-.02c-.22.03-.17.26-.45.51l.29-.7-.16.26s-.03-.06.03-.16c-.16.15-.05.12-.18.28.06-.29-.26,0-.06-.43-.13.19,0,.19-.16.3.22-.48-.14.04-.1-.21.14-.23.15-.07.18-.32-.25.39-.09-.15-.2-.1-.16.33-.2.08-.35.14.06-.11-.11-.27-.15-.43l.03-.05c-.17.33-.24.22-.34.26.09-.2.14-.27.21-.35l-.07-.03c-.06.1-.11.15-.17.17l.12-.25c-.1-.03-.3.21-.35,0-.1.24-.17.69-.36.81.05-.13.13-.35.18-.39-.02.01-.08.09-.08.03l.13-.2c-.02-.11-.1.17-.13.14.07-.18.02-.14.08-.29.02-.01,0,.09.05.02-.04-.05-.05-.18-.02-.33-.04.11-.1.25-.14.26-.1-.02.05-.23.03-.35-.07.12-.08-.03-.18.24-.03-.01.02-.14.03-.22-.09.11-.24-.04-.29.27v.02s0,0,0,0h0,0c-.25.22-.27-.27-.47-.2l.03-.09c-.13.08-.23,0-.35.17-.03,0-.01-.19.03-.3-.09.05-.13.15-.19-.04.12-.15.02-.16.11-.1-.07-.11-.05-.26-.23-.03.1-.24.01-.32-.05-.26l.02.19c-.06.02-.1,0-.14-.04l.11-.32c-.1-.44-.52.58-.52-.11-.1.21.07.18-.04.44-.08-.06-.07-.55-.1-.56-.09-.21-.22.45-.32.29,0,.12-.06.43-.17.52-.08-.06-.01-.51.06-.59.02,0,.03.03.02.07.04-.04.09-.08.08-.21l-.04.11c-.02-.13-.15-.15-.08-.33-.09.09-.07.18-.03.26-.09-.19-.18-.05-.28-.18,0,.07,0,.21-.02.2-.15-.17-.12.21-.24.25-.04-.19.1-.42-.05-.29-.06-.13.03-.31.08-.4-.15.21-.19-.18-.25-.23l.07-.09c-.04.05-.07.05-.1.04v.24s-.06-.05-.04-.15c-.06.15-.03.39-.13.6-.03-.13-.16.11-.13-.2.13.13.03-.32.16-.35-.03.03-.06.03-.09-.02,0-.04.01-.06.03-.08-.11-.3-.11.34-.25.32.04-.17,0-.34-.02-.3.06.01,0,.3-.08.43-.08-.15-.11.09-.16.07l.05.07c-.04.17-.08.14-.15.19,0-.14.07-.09.05-.15-.1.3-.13-.34-.25-.15-.04-.13.03-.33,0-.42-.13.22-.1-.25-.24-.07.02.24.03.18-.07.41l.21-.16-.15.34c.06,0,.13-.14.17-.1-.08.19-.06.13-.05.33-.05-.36-.17.2-.24-.04l.04-.59c-.12-.27-.27.29-.44.14l.05.1c-.04.23-.11.03-.17.12.01-.2-.02-.27-.04-.39,0,.15-.13-.02-.16.37l-.07-.26c-.14-.11-.18.56-.31.48.04-.21-.02-.36.08-.5-.05,0-.09-.04-.09.09-.03-.12-.13.26-.17.07-.02.09-.03.29-.08.27,0-.04,0-.1,0-.1,0,.1-.08.14-.03.35-.15-.61-.39.06-.53-.46-.1.07-.22.14-.31.16,0-.06,0-.1.01-.08-.14-.18-.05.57-.2.37-.09-.31.07-.18.01-.29-.06-.65-.17.1-.29-.28l.02-.04c-.09-.22-.16.25-.29.21,0,0,0-.06,0-.1-.05.33-.2.46-.3.57,0-.26.04-.14-.01-.39-.05.04.06.41-.04.5-.05-.13-.13-.24-.18-.52l.1-.03c-.09-.35-.13.03-.18-.03v-.16c-.16.07-.11.46-.27.46l.03.11c-.03.4-.1-.21-.15.09l-.08-.39c-.04.1-.15.41-.23.49.01-.3.11-.46.16-.64-.06,0-.19.06-.19.25.02-.04.03-.14.06-.08-.02.32-.09.48-.2.49-.11-.76-.33-.15-.52-.71-.15.32-.43-.03-.66.07.21.56-.07.03.09.62-.04.05-.07.05-.08,0l-.25-.32c-.08-.16.02-.14-.02-.28-.13-.02-.11-.24-.23-.38.07.21.03.31-.06.25l.17.25c-.09.35-.27-.46-.36-.11v-.2c-.05.13-.32.07-.27.58-.03-.06-.1-.22-.08-.27-.23,0-.3.65-.55.41l-.03-.15c-.03.05.02.29-.07.16-.02-.06-.03-.15-.05-.15,0,.06-.02.28-.1.22v-.17c-.27-.12-.18.49-.31.64-.15-.41-.36-.5-.46-.53l-.02-.06c-.25.05-.25.5-.39.75-.31-.39-.51,0-.83-.15.07.06.14.31.12.37-.09-.06,0,.33-.17-.04h.02c-.2-.34-.26-.21-.34-.18l.22.48c-.54-.58-.38.52-.8-.03.02.14-.04.17-.03.31l-.13-.25c-.17,0-.25.01-.38.16l-.07-.19c-.1.04.29.77.22.83l-.24-.35c-.16.08-.5-.12-.45.3-.03-.05-.09-.16-.08-.19-.08.04-.43-.05-.09.41-.21-.31-.18.07-.16.26l-.14-.24c.13.34.18.42.15.57-.04-.02-.15-.17-.08-.13-.16-.07.09.26-.08.19l-.07-.17c-.09.03-.03.11.05.3.02.12-.18.04-.34-.16.08.13.16.32.07.3-.06-.07-.08-.13-.09-.16-.24-.07.02.4-.23.25-.06-.07-.09-.1-.12-.12.1-.07.18-.12.19-.1-.15-.21-.26-.18-.41-.51.05.21.2.63.05.59-.02-.02-.04-.03-.06-.06v-.03s-.04.03-.03.07c-.05-.01-.09-.02-.11,0-.14-.16-.16-.02-.21,0,.18.22.1.22.3.36-.02-.01-.01-.03,0-.06,0-.01,0-.02,0-.04v.02s.06-.06.1-.09c.06.14.1.26-.04.17.09.16.19.32.23.4-.3-.26-.53-.34-.7-.52-.02.22-.21.31.07.77.01.08-.14-.08-.21-.13-.02-.06.01-.07-.03-.13.02.16-.16.2.07.49-.19-.05-.19-.29-.25-.15l-.06-.1c-.62-.21.32,1.01-.43.7.05.02.07.02.12.06-.49.04-.3.73-.92.66-.15.01.03.17.13.34l-.25-.18.2.31c.11.28-.74-.26-.48.19l.18.11c-.07.03-.04.24-.22.09.03.03.16.15.05.1l-.13-.09.11.29c-.17.03-.49-.39-.64-.25,0,.09.25.43.35.47.02-.02.13,0,.26.09l.03.1c.37.28.74.58,1.09.66l-.17-.24.2.11-.04.07c.2.09.07-.05-.02-.15.1.06.18.1.23.11l-.3-.34c.15.1.26.25.38.26-.14-.16-.35-.21-.42-.35.2.09.33.2.22.05.1.07.15.12.18.17-.08-.13.03-.14-.15-.31.24.12.05-.18.39.1-.07-.08-.22-.28-.2-.33.36.4.13-.11.55.26-.33-.35-.03-.31-.16-.56.02.03.07.09.05.08.07-.02.18.06.28.09-.29-.26-.29-.39-.43-.59.33.2.31.34.6.57-.24-.21-.14-.3-.36-.46.21.12.12.04.38.24-.35-.34-.02-.09-.21-.33.23.11.35.3.3.13.14.07.21.25.21.25ZM44.05,57.41h0s-.02.04-.03.05c0,0,.01-.02.02-.05ZM44.19,57.29s-.05.02-.07.04c-.06-.07-.12-.16-.1-.16.03.06.1.07.17.12ZM42.67,56.02c0-.05.04-.02.08.03,0,.01-.02.03-.02.06l.02.03s-.06-.09-.08-.12Z"/>
    <path class="cls-5" d="M42.85,56.35s0,.02,0,.02c.02.01.04.03.05.04l-.05-.08h-.01Z"/>
    <path class="cls-5" d="M60.37,53.68h0s0,.02,0,.03c0-.01,0-.02,0-.03Z"/>
    <polygon class="cls-5" points="46.64 56.38 46.61 56.31 46.62 56.38 46.64 56.38"/>
    <path class="cls-5" d="M61.03,54.96s-.01.05-.02.07c0-.02.01-.04.02-.07Z"/>
    <path class="cls-5" d="M61.41,55.21v.12c.01-.06,0-.1,0-.12Z"/>
    <path class="cls-5" d="M61.66,55.48s.04-.08.06-.1h0s-.06.1-.06.1Z"/>
    <path class="cls-5" d="M56.41,54.3s0,0-.01.01c-.04.05-.01.03.01-.01Z"/>
    <path class="cls-5" d="M58.12,53.91s-.05.09-.08.12c.02.03.05.04.08-.12Z"/>
    <polygon class="cls-5" points="54.62 54.53 54.62 54.53 54.61 54.53 54.62 54.53"/>
    <path class="cls-5" d="M57.97,54.01c.02.06.04.06.07.02-.02-.02-.04-.06-.07-.02Z"/>
    <path class="cls-5" d="M62.88,56.32v.02s.03-.03.03-.04l-.03.02Z"/>
    <path class="cls-5" d="M62.92,56.3l.03-.02s-.01,0-.03.02Z"/>
    <path class="cls-5" d="M63.02,56.24l-.07.04s.02.02.07-.04Z"/>
    <path class="cls-5" d="M62.57,55.98l-.06.09s.03-.05.06-.09Z"/>
    <path class="cls-5" d="M62.43,55.93s-.04.23.03.2l.04-.07c-.09.12.04-.26-.08-.13Z"/>
    <path class="cls-5" d="M62.53,54.52s.05.09.07.13c.03-.11.08-.25.14-.24.01-.37-.08.23-.21.11Z"/>
    <path class="cls-5" d="M62.24,54.22c.08-.02.07-.14.1-.2-.08.07-.1.09-.1.2Z"/>
    <path class="cls-5" d="M59.61,53.18l.08-.24c-.06.02-.03.09-.08.24Z"/>
    <polygon class="cls-5" points="58.76 54.33 58.76 54.49 58.84 54.27 58.76 54.33"/>
    <polygon class="cls-5" points="58.89 52.49 58.93 52.46 58.82 52.53 58.89 52.49"/>
    <path class="cls-5" d="M54.07,52.08l.02.31c.03-.06.03-.41-.02-.31Z"/>
    <path class="cls-5" d="M52.04,52.57c-.04-.15-.12-.25-.13-.09.05.02.11.13.13.09Z"/>
    <polygon class="cls-5" points="45.95 53.88 45.94 53.76 45.91 53.88 45.95 53.88"/>
  </g>
</svg>