<?xml version="1.0" encoding="UTF-8"?>
<svg id="Layer_1" data-name="Layer 1" xmlns="http://www.w3.org/2000/svg" viewBox="0 0 684 1080">
  <defs>
    <style>
      .cls-1 {
        stroke-dasharray: 0 0 5.47 8.21;
      }

      .cls-1, .cls-2, .cls-3, .cls-4, .cls-5, .cls-6, .cls-7, .cls-8 {
        fill: none;
        stroke-miterlimit: 10;
        stroke-width: 1.37px;
      }

      .cls-1, .cls-4, .cls-7 {
        stroke: #8cd5e9;
      }

      .cls-2 {
        stroke-dasharray: 0 0 5.47 8.21;
      }

      .cls-2, .cls-3, .cls-6 {
        stroke: #fdc52b;
      }

      .cls-3 {
        stroke-dasharray: 0 0 5.49 8.23;
      }

      .cls-4 {
        stroke-dasharray: 0 0 5.49 8.23;
      }

      .cls-5 {
        stroke: #fbc498;
      }

      .cls-8 {
        stroke: #8ac65b;
      }
    </style>
  </defs>
  <g>
    <g>
      <line class="cls-7" x1="9.81" y1="413.69" x2="12.54" y2="413.63"/>
      <line class="cls-1" x1="20.75" y1="413.43" x2="673.11" y2="397.66"/>
      <line class="cls-7" x1="677.21" y1="397.56" x2="679.94" y2="397.49"/>
    </g>
    <g>
      <line class="cls-6" x1="11.37" y1="483.19" x2="14.1" y2="483.12"/>
      <line class="cls-2" x1="22.31" y1="482.93" x2="674.67" y2="467.16"/>
      <line class="cls-6" x1="678.77" y1="467.06" x2="681.5" y2="466.99"/>
    </g>
    <g>
      <line class="cls-7" x1="12.93" y1="552.69" x2="15.66" y2="552.62"/>
      <line class="cls-1" x1="23.87" y1="552.42" x2="676.23" y2="536.65"/>
      <line class="cls-7" x1="680.34" y1="536.55" x2="683.07" y2="536.49"/>
    </g>
    <g>
      <line class="cls-6" x1="14.5" y1="622.19" x2="17.23" y2="622.12"/>
      <line class="cls-2" x1="25.43" y1="621.92" x2="677.79" y2="606.15"/>
      <line class="cls-6" x1="681.9" y1="606.05" x2="684.63" y2="605.99"/>
    </g>
    <g>
      <line class="cls-7" x1="16.06" y1="691.68" x2="18.79" y2="691.62"/>
      <line class="cls-1" x1="26.99" y1="691.42" x2="679.36" y2="675.65"/>
      <line class="cls-7" x1="683.46" y1="675.55" x2="686.19" y2="675.48"/>
    </g>
    <g>
      <line class="cls-6" x1="17.62" y1="761.18" x2="20.35" y2="761.12"/>
      <line class="cls-2" x1="28.56" y1="760.92" x2="680.92" y2="745.15"/>
    </g>
    <g>
      <line class="cls-7" x1="19.18" y1="830.68" x2="21.91" y2="830.61"/>
      <line class="cls-1" x1="30.12" y1="830.42" x2="682.48" y2="814.64"/>
    </g>
    <g>
      <line class="cls-6" x1="20.75" y1="900.18" x2="23.48" y2="900.11"/>
      <line class="cls-2" x1="31.68" y1="899.91" x2="684.04" y2="884.14"/>
    </g>
    <g>
      <line class="cls-7" x1="22.31" y1="969.68" x2="25.04" y2="969.61"/>
      <line class="cls-1" x1="33.24" y1="969.41" x2="685.61" y2="953.64"/>
    </g>
    <g>
      <line class="cls-6" x1="23.87" y1="1039.17" x2="26.6" y2="1039.11"/>
      <line class="cls-2" x1="34.81" y1="1038.91" x2="687.17" y2="1023.14"/>
    </g>
    <g>
      <line class="cls-6" x1="2" y1="66.2" x2="4.73" y2="66.14"/>
      <line class="cls-2" x1="12.94" y1="65.94" x2="665.3" y2="50.17"/>
      <line class="cls-6" x1="669.4" y1="50.07" x2="672.13" y2="50"/>
    </g>
    <g>
      <line class="cls-7" x1="3.56" y1="135.7" x2="6.29" y2="135.64"/>
      <line class="cls-1" x1="14.5" y1="135.44" x2="666.86" y2="119.67"/>
      <line class="cls-7" x1="670.96" y1="119.57" x2="673.69" y2="119.5"/>
    </g>
    <g>
      <line class="cls-6" x1="5.12" y1="205.2" x2="7.85" y2="205.13"/>
      <line class="cls-2" x1="16.06" y1="204.93" x2="668.42" y2="189.16"/>
      <line class="cls-6" x1="672.52" y1="189.06" x2="675.25" y2="189"/>
    </g>
    <g>
      <line class="cls-7" x1="6.69" y1="274.7" x2="9.42" y2="274.63"/>
      <line class="cls-1" x1="17.62" y1="274.43" x2="669.98" y2="258.66"/>
      <line class="cls-7" x1="674.09" y1="258.56" x2="676.82" y2="258.5"/>
    </g>
    <g>
      <line class="cls-6" x1="8.25" y1="344.19" x2="10.98" y2="344.13"/>
      <line class="cls-2" x1="19.18" y1="343.93" x2="671.55" y2="328.16"/>
      <line class="cls-6" x1="675.65" y1="328.06" x2="678.38" y2="327.99"/>
    </g>
    <g>
      <line class="cls-7" x1="125.17" y1="1071.49" x2="125.11" y2="1068.76"/>
      <line class="cls-4" x1="124.92" y1="1060.53" x2="101.89" y2="35.87"/>
      <line class="cls-7" x1="101.8" y1="31.75" x2="101.74" y2="29.02"/>
    </g>
    <g>
      <line class="cls-6" x1="58.16" y1="1073.11" x2="58.1" y2="1070.38"/>
      <line class="cls-3" x1="57.91" y1="1062.15" x2="34.88" y2="37.49"/>
      <line class="cls-6" x1="34.79" y1="33.37" x2="34.73" y2="30.64"/>
    </g>
    <g>
      <line class="cls-6" x1="192.18" y1="1069.87" x2="192.12" y2="1067.14"/>
      <line class="cls-3" x1="191.94" y1="1058.91" x2="168.91" y2="34.25"/>
      <line class="cls-6" x1="168.81" y1="30.13" x2="168.75" y2="27.4"/>
    </g>
    <g>
      <line class="cls-7" x1="259.2" y1="1068.25" x2="259.14" y2="1065.52"/>
      <line class="cls-4" x1="258.95" y1="1057.29" x2="235.92" y2="32.63"/>
      <line class="cls-7" x1="235.83" y1="28.51" x2="235.76" y2="25.78"/>
    </g>
    <g>
      <line class="cls-6" x1="326.21" y1="1066.63" x2="326.15" y2="1063.9"/>
      <line class="cls-3" x1="325.96" y1="1055.67" x2="302.93" y2="31.01"/>
      <line class="cls-6" x1="302.84" y1="26.89" x2="302.78" y2="24.16"/>
    </g>
    <g>
      <line class="cls-7" x1="393.22" y1="1065.01" x2="393.16" y2="1062.28"/>
      <line class="cls-4" x1="392.98" y1="1054.05" x2="369.94" y2="29.39"/>
      <line class="cls-7" x1="369.85" y1="25.27" x2="369.79" y2="22.54"/>
    </g>
    <g>
      <line class="cls-6" x1="460.24" y1="1063.39" x2="460.17" y2="1060.66"/>
      <line class="cls-3" x1="459.99" y1="1052.43" x2="436.96" y2="27.77"/>
      <line class="cls-6" x1="436.86" y1="23.65" x2="436.8" y2="20.92"/>
    </g>
    <g>
      <line class="cls-7" x1="527.25" y1="1061.77" x2="527.19" y2="1059.04"/>
      <line class="cls-4" x1="527" y1="1050.81" x2="503.97" y2="26.15"/>
      <line class="cls-7" x1="503.88" y1="22.03" x2="503.82" y2="19.3"/>
    </g>
    <g>
      <line class="cls-6" x1="594.26" y1="1060.15" x2="594.2" y2="1057.42"/>
      <line class="cls-3" x1="594.02" y1="1049.19" x2="570.98" y2="24.53"/>
      <line class="cls-6" x1="570.89" y1="20.41" x2="570.83" y2="17.68"/>
    </g>
    <g>
      <line class="cls-7" x1="661.27" y1="1058.53" x2="661.21" y2="1055.8"/>
      <line class="cls-4" x1="661.03" y1="1047.57" x2="638" y2="22.91"/>
      <line class="cls-7" x1="637.9" y1="18.79" x2="637.84" y2="16.06"/>
    </g>
  </g>
  <line class="cls-5" x1="91.66" y1="1072.3" x2="68.23" y2="29.83"/>
  <line class="cls-7" x1="158.68" y1="1070.68" x2="135.24" y2="28.21"/>
  <line class="cls-5" x1="225.69" y1="1069.06" x2="202.26" y2="26.59"/>
  <line class="cls-7" x1="292.7" y1="1067.44" x2="269.27" y2="24.97"/>
  <line class="cls-5" x1="359.72" y1="1065.82" x2="336.28" y2="23.35"/>
  <line class="cls-7" x1="426.73" y1="1064.2" x2="403.3" y2="21.73"/>
  <line class="cls-5" x1="493.74" y1="1062.58" x2="470.31" y2="20.11"/>
  <line class="cls-7" x1="560.76" y1="1060.96" x2="537.32" y2="18.49"/>
  <line class="cls-5" x1="627.77" y1="1059.34" x2="604.34" y2="16.87"/>
  <line class="cls-8" x1="10.59" y1="448.44" x2="680.72" y2="432.24"/>
  <line class="cls-7" x1="12.15" y1="517.94" x2="682.28" y2="501.74"/>
  <line class="cls-8" x1="13.72" y1="587.44" x2="683.85" y2="571.24"/>
  <line class="cls-7" x1="15.28" y1="656.93" x2="685.41" y2="640.73"/>
  <line class="cls-8" x1="16.84" y1="726.43" x2="686.97" y2="710.23"/>
  <line class="cls-7" x1="18.4" y1="795.93" x2="688.53" y2="779.73"/>
  <line class="cls-8" x1="19.96" y1="865.43" x2="690.09" y2="849.23"/>
  <line class="cls-7" x1="21.53" y1="934.93" x2="691.66" y2="918.73"/>
  <line class="cls-8" x1="23.13" y1="1006.18" x2="693.26" y2="989.98"/>
  <line class="cls-7" x1="2.78" y1="100.95" x2="672.91" y2="84.75"/>
  <line class="cls-8" x1="4.34" y1="170.45" x2="674.47" y2="154.25"/>
  <line class="cls-7" x1="5.91" y1="239.95" x2="676.04" y2="223.75"/>
  <line class="cls-8" x1="7.47" y1="309.45" x2="677.6" y2="293.25"/>
  <line class="cls-7" x1="9.03" y1="378.94" x2="679.16" y2="362.74"/>
</svg>