<?xml version="1.0" encoding="UTF-8"?>
<svg id="Layer_1" data-name="Layer 1" xmlns="http://www.w3.org/2000/svg" xmlns:xlink="http://www.w3.org/1999/xlink" viewBox="0 0 1920 1080">
  <defs>
    <style>
      .cls-1 {
        fill: none;
      }

      .cls-1, .cls-2, .cls-3, .cls-4, .cls-5, .cls-6, .cls-7, .cls-8 {
        stroke-width: 0px;
      }

      .cls-2 {
        fill: url(#New_Pattern);
      }

      .cls-3 {
        fill: #0992d1;
      }

      .cls-4 {
        fill: #8cd5e9;
      }

      .cls-5 {
        fill: #8ac65c;
      }

      .cls-6 {
        fill: #fffbe3;
      }

      .cls-7 {
        fill: #ffc62b;
      }

      .cls-8 {
        fill: #f48783;
      }
    </style>
    <pattern id="New_Pattern" data-name="New Pattern" x="0" y="0" width="247.14" height="425.23" patternTransform="translate(111.19 1001.96)" patternUnits="userSpaceOnUse" viewBox="0 0 247.14 425.23">
      <g>
        <rect class="cls-1" y="0" width="247.14" height="425.23"/>
        <g>
          <polygon class="cls-4" points="216.37 401.51 213.26 406.23 218.57 408.67 212.85 409.01 214.43 414.63 210.41 410.33 207.08 414.9 207.79 409.2 202.05 409.28 206.95 406.46 203.12 402 208.53 404.19 209.5 398.54 211.34 404.09 216.37 401.51"/>
          <polygon class="cls-5" points="205.06 325.07 200.13 332.54 208.53 336.39 199.49 336.94 201.99 345.82 195.63 339.02 190.36 346.24 191.48 337.23 182.4 337.35 190.15 332.9 184.1 325.84 192.65 329.31 194.18 320.37 197.09 329.14 205.06 325.07"/>
          <polygon class="cls-8" points="251.28 308.89 248.17 313.61 253.48 316.04 247.76 316.39 249.35 322 245.33 317.71 242 322.27 242.7 316.57 236.96 316.65 241.86 313.84 238.04 309.37 243.44 311.56 244.41 305.92 246.25 311.46 251.28 308.89"/>
          <polygon class="cls-5" points="176.37 395.16 173.26 399.88 178.56 402.32 172.85 402.66 174.43 408.27 170.41 403.98 167.08 408.54 167.79 402.85 162.05 402.92 166.95 400.11 163.12 395.64 168.52 397.84 169.49 392.19 171.33 397.73 176.37 395.16"/>
          <polygon class="cls-8" points="234.11 361 231 365.72 236.3 368.16 230.59 368.5 232.17 374.11 228.15 369.82 224.82 374.38 225.53 368.68 219.79 368.76 224.69 365.95 220.86 361.48 226.27 363.67 227.23 358.03 229.07 363.57 234.11 361"/>
          <polygon class="cls-3" points="162.46 359.07 157.54 366.54 165.93 370.39 156.89 370.94 159.4 379.82 153.04 373.02 147.77 380.24 148.88 371.23 139.8 371.35 147.55 366.9 141.5 359.84 150.05 363.31 151.58 354.37 154.49 363.14 162.46 359.07"/>
        </g>
        <g>
          <polygon class="cls-7" points="84.42 397.46 79.49 404.92 87.89 408.78 78.85 409.32 81.35 418.2 74.99 411.41 69.72 418.63 70.84 409.62 61.76 409.74 69.51 405.29 63.46 398.22 72.01 401.69 73.54 392.76 76.45 401.53 84.42 397.46"/>
          <polygon class="cls-8" points="40.81 348.77 35.89 356.24 44.29 360.1 35.24 360.64 37.75 369.52 31.39 362.73 26.12 369.95 27.24 360.94 18.16 361.06 25.91 356.61 19.85 349.54 28.41 353.01 29.94 344.08 32.85 352.85 40.81 348.77"/>
          <polygon class="cls-8" points="89.23 336.57 84.31 344.04 92.71 347.9 83.66 348.44 86.17 357.32 79.81 350.53 74.54 357.75 75.65 348.73 66.57 348.85 74.33 344.41 68.27 337.34 76.82 340.81 78.35 331.87 81.27 340.65 89.23 336.57"/>
          <polygon class="cls-7" points="20.66 397.99 17.55 402.71 22.86 405.15 17.14 405.49 18.72 411.11 14.7 406.81 11.37 411.38 12.08 405.68 6.34 405.76 11.24 402.95 7.41 398.48 12.82 400.67 13.78 395.02 15.62 400.57 20.66 397.99"/>
          <polygon class="cls-8" points="4.14 308.89 1.03 313.61 6.34 316.04 .62 316.39 2.21 322 -1.81 317.71 -5.14 322.27 -4.44 316.57 -10.18 316.65 -5.28 313.84 -9.1 309.37 -3.7 311.56 -2.73 305.92 -.89 311.46 4.14 308.89"/>
          <polygon class="cls-7" points="126.02 383.94 122.91 388.66 128.22 391.1 122.5 391.44 124.08 397.05 120.06 392.76 116.73 397.32 117.44 391.63 111.7 391.7 116.6 388.89 112.77 384.42 118.18 386.62 119.15 380.97 120.98 386.51 126.02 383.94"/>
        </g>
        <g>
          <polygon class="cls-4" points="122.34 234.37 117.42 241.84 125.82 245.69 116.77 246.24 119.28 255.12 112.92 248.32 107.65 255.54 108.76 246.53 99.68 246.65 107.43 242.2 101.38 235.14 109.93 238.61 111.46 229.67 114.37 238.44 122.34 234.37"/>
          <polygon class="cls-7" points="172.46 247.03 169.35 251.75 174.66 254.19 168.94 254.53 170.53 260.15 166.51 255.85 163.18 260.42 163.88 254.72 158.14 254.8 163.04 251.98 159.22 247.52 164.62 249.71 165.59 244.06 167.43 249.61 172.46 247.03"/>
          <polygon class="cls-4" points="92.8 188.9 89.69 193.62 95 196.06 89.28 196.4 90.86 202.01 86.84 197.72 83.51 202.28 84.22 196.58 78.48 196.66 83.38 193.85 79.55 189.38 84.96 191.57 85.93 185.93 87.77 191.47 92.8 188.9"/>
          <polygon class="cls-4" points="182.8 286.93 179.69 291.65 185 294.09 179.28 294.43 180.86 300.04 176.84 295.75 173.51 300.31 174.22 294.62 168.48 294.69 173.38 291.88 169.55 287.41 174.96 289.61 175.93 283.96 177.77 289.5 182.8 286.93"/>
          <polygon class="cls-7" points="207.99 184.84 203.06 192.31 211.46 196.16 202.42 196.71 204.93 205.59 198.56 198.8 193.29 206.01 194.41 197 185.33 197.12 193.08 192.68 187.03 185.61 195.58 189.08 197.11 180.14 200.02 188.91 207.99 184.84"/>
          <polygon class="cls-7" points="65.28 245.01 60.36 252.48 68.76 256.33 59.71 256.87 62.22 265.75 55.86 258.96 50.59 266.18 51.7 257.17 42.62 257.29 50.38 252.84 44.32 245.77 52.87 249.24 54.41 240.31 57.32 249.08 65.28 245.01"/>
          <polygon class="cls-8" points="164.38 136.16 159.46 143.63 167.86 147.48 158.81 148.03 161.32 156.91 154.96 150.11 149.69 157.33 150.81 148.32 141.73 148.44 149.48 143.99 143.42 136.93 151.98 140.4 153.51 131.46 156.42 140.23 164.38 136.16"/>
          <polygon class="cls-8" points="146.38 262.45 141.46 269.92 149.86 273.78 140.81 274.32 143.32 283.2 136.96 276.41 131.69 283.63 132.81 274.62 123.73 274.74 131.48 270.29 125.42 263.22 133.98 266.69 135.51 257.76 138.42 266.53 146.38 262.45"/>
          <polygon class="cls-8" points="212.8 123.96 207.88 131.43 216.28 135.28 207.23 135.82 209.74 144.7 203.38 137.91 198.11 145.13 199.22 136.12 190.14 136.24 197.9 131.79 191.84 124.72 200.39 128.19 201.92 119.26 204.84 128.03 212.8 123.96"/>
          <polygon class="cls-5" points="31.28 218.7 26.35 226.16 34.75 230.02 25.7 230.56 28.21 239.44 21.85 232.65 16.58 239.87 17.7 230.86 8.62 230.98 16.37 226.53 10.32 219.46 18.87 222.93 20.4 214 23.31 222.77 31.28 218.7"/>
          <polygon class="cls-5" points="81.49 112.45 76.56 119.92 84.96 123.78 75.91 124.32 78.42 133.2 72.06 126.41 66.79 133.63 67.91 124.62 58.83 124.74 66.58 120.29 60.53 113.22 69.08 116.69 70.61 107.76 73.52 116.53 81.49 112.45"/>
          <polygon class="cls-7" points="144.23 185.38 141.12 190.1 146.43 192.54 140.71 192.88 142.29 198.49 138.27 194.2 134.94 198.76 135.65 193.06 129.91 193.14 134.81 190.33 130.98 185.86 136.39 188.05 137.35 182.41 139.19 187.95 144.23 185.38"/>
          <polygon class="cls-7" points="85.23 277.93 82.12 282.65 87.43 285.09 81.71 285.43 83.29 291.04 79.27 286.75 75.94 291.31 76.65 285.62 70.91 285.69 75.81 282.88 71.98 278.41 77.39 280.61 78.35 274.96 80.19 280.5 85.23 277.93"/>
          <polygon class="cls-8" points="127.71 96.27 124.6 100.99 129.91 103.43 124.19 103.77 125.78 109.39 121.76 105.09 118.43 109.65 119.13 103.96 113.39 104.03 118.29 101.22 114.47 96.76 119.87 98.95 120.84 93.3 122.68 98.85 127.71 96.27"/>
          <polygon class="cls-7" points="249.59 171.32 246.48 176.05 251.79 178.48 246.07 178.83 247.65 184.44 243.63 180.14 240.3 184.71 241.01 179.01 235.27 179.09 240.17 176.28 236.34 171.81 241.75 174 242.72 168.35 244.56 173.9 249.59 171.32"/>
          <polygon class="cls-5" points="52.8 182.54 49.69 187.26 54.99 189.7 49.28 190.04 50.86 195.66 46.84 191.36 43.51 195.93 44.22 190.23 38.48 190.31 43.38 187.5 39.55 183.03 44.95 185.22 45.92 179.57 47.76 185.12 52.8 182.54"/>
          <polygon class="cls-5" points="121.8 305.93 118.69 310.65 123.99 313.09 118.28 313.43 119.86 319.04 115.84 314.75 112.51 319.31 113.22 313.62 107.48 313.69 112.38 310.88 108.55 306.41 113.95 308.61 114.92 302.96 116.76 308.5 121.8 305.93"/>
          <polygon class="cls-8" points="110.54 148.38 107.43 153.1 112.73 155.54 107.02 155.88 108.6 161.5 104.58 157.2 101.25 161.77 101.96 156.07 96.22 156.14 101.12 153.33 97.29 148.87 102.69 151.06 103.66 145.41 105.5 150.96 110.54 148.38"/>
          <polygon class="cls-3" points="226.89 236.21 221.97 243.68 230.36 247.54 221.32 248.08 223.83 256.96 217.46 250.17 212.19 257.39 213.31 248.37 204.23 248.49 211.98 244.05 205.93 236.98 214.48 240.45 216.01 231.51 218.92 240.29 226.89 236.21"/>
          <polygon class="cls-3" points="38.89 146.45 33.97 153.92 42.36 157.78 33.32 158.32 35.83 167.2 29.46 160.41 24.19 167.63 25.31 158.62 16.23 158.74 23.98 154.29 17.93 147.22 26.48 150.69 28.01 141.76 30.92 150.53 38.89 146.45"/>
        </g>
        <polygon class="cls-7" points="2.45 171.32 -.66 176.05 4.65 178.48 -1.07 178.83 .51 184.44 -3.51 180.14 -6.84 184.71 -6.13 179.01 -11.87 179.09 -6.97 176.28 -10.8 171.81 -5.39 174 -4.42 168.35 -2.59 173.9 2.45 171.32"/>
        <g>
          <polygon class="cls-4" points="245.91 21.75 240.99 29.22 249.39 33.08 240.34 33.62 242.85 42.5 236.49 35.71 231.22 42.93 232.33 33.91 223.25 34.04 231.01 29.59 224.95 22.52 233.5 25.99 235.03 17.06 237.95 25.83 245.91 21.75"/>
          <polygon class="cls-7" points="188.85 32.39 183.93 39.86 192.33 43.72 183.28 44.26 185.79 53.14 179.43 46.35 174.16 53.56 175.27 44.55 166.19 44.67 173.95 40.23 167.89 33.16 176.44 36.63 177.98 27.69 180.89 36.46 188.85 32.39"/>
          <polygon class="cls-5" points="154.85 6.08 149.92 13.55 158.32 17.4 149.27 17.95 151.78 26.83 145.42 20.03 140.15 27.25 141.27 18.24 132.19 18.36 139.94 13.91 133.89 6.85 142.44 10.32 143.97 1.38 146.88 10.15 154.85 6.08"/>
          <polygon class="cls-7" points="208.8 65.31 205.69 70.03 211 72.47 205.28 72.81 206.86 78.43 202.84 74.13 199.51 78.7 200.22 73 194.48 73.08 199.38 70.27 195.55 65.8 200.96 67.99 201.93 62.34 203.76 67.89 208.8 65.31"/>
          <polygon class="cls-5" points="245.37 93.31 242.26 98.03 247.56 100.47 241.85 100.81 243.43 106.43 239.41 102.13 236.08 106.7 236.79 101 231.05 101.08 235.95 98.27 232.12 93.8 237.52 95.99 238.49 90.34 240.33 95.89 245.37 93.31"/>
        </g>
        <g>
          <polygon class="cls-4" points="-1.23 21.75 -6.15 29.22 2.25 33.08 -6.8 33.62 -4.29 42.5 -10.65 35.71 -15.92 42.93 -14.81 33.91 -23.89 34.04 -16.14 29.59 -22.19 22.52 -13.64 25.99 -12.11 17.06 -9.2 25.83 -1.23 21.75"/>
          <polygon class="cls-7" points="48.89 34.42 45.78 39.14 51.09 41.58 45.37 41.92 46.96 47.53 42.94 43.24 39.61 47.8 40.31 42.1 34.57 42.18 39.47 39.37 35.65 34.9 41.05 37.09 42.02 31.45 43.86 36.99 48.89 34.42"/>
          <polygon class="cls-4" points="59.23 74.31 56.12 79.03 61.43 81.47 55.71 81.81 57.29 87.43 53.27 83.13 49.94 87.7 50.65 82 44.91 82.08 49.81 79.27 45.98 74.8 51.39 76.99 52.36 71.34 54.2 76.89 59.23 74.31"/>
          <polygon class="cls-8" points="22.81 49.84 17.89 57.31 26.29 61.16 17.24 61.71 19.75 70.59 13.39 63.79 8.12 71.01 9.24 62 .16 62.12 7.91 57.67 1.85 50.61 10.41 54.08 11.94 45.14 14.85 53.91 22.81 49.84"/>
          <polygon class="cls-5" points="-1.77 93.31 -4.89 98.03 .42 100.47 -5.3 100.81 -3.71 106.43 -7.73 102.13 -11.06 106.7 -10.36 101 -16.09 101.08 -11.19 98.27 -15.02 93.8 -9.62 95.99 -8.65 90.34 -6.81 95.89 -1.77 93.31"/>
          <polygon class="cls-3" points="103.32 23.6 98.4 31.07 106.79 34.92 97.75 35.46 100.26 44.34 93.89 37.55 88.62 44.77 89.74 35.76 80.66 35.88 88.41 31.43 82.36 24.36 90.91 27.83 92.44 18.9 95.35 27.67 103.32 23.6"/>
        </g>
      </g>
    </pattern>
  </defs>
  <rect class="cls-6" x="-15" y="-11" width="1963" height="1102"/>
  <rect class="cls-2" x="-28" y="-12" width="1963" height="1102"/>
</svg>