<?xml version="1.0" encoding="UTF-8"?>
<svg id="Layer_1" data-name="Layer 1" xmlns="http://www.w3.org/2000/svg" viewBox="0 0 100 100">
  <defs>
    <style>
      .cls-1 {
        fill: #fbc498;
      }

      .cls-2 {
        fill: #404041;
      }

      .cls-3 {
        fill: #fffbe3;
      }

      .cls-4 {
        fill: #f27021;
      }

      .cls-5 {
        fill: #585859;
      }
    </style>
  </defs>
  <g>
    <g>
      <g>
        <path class="cls-4" d="M74.24,69.04c2.78,4.6,1.16,10.68-3.63,13.58-4.79,2.9-10.93,1.51-13.71-3.09l17.34-10.49Z"/>
        <path class="cls-4" d="M56.41,79.62c-.83,5.32-5.98,8.93-11.51,8.07s-9.34-5.87-8.51-11.18l20.02,3.11Z"/>
        <path class="cls-4" d="M35.96,76.27c-4.05,3.54-10.32,3-14-1.22-3.68-4.21-3.38-10.5.67-14.04l13.34,15.25Z"/>
        <path class="cls-4" d="M22.44,60.55c-5.38.11-9.83-4.34-9.95-9.93-.11-5.59,4.15-10.22,9.53-10.33l.41,20.26Z"/>
        <path class="cls-4" d="M22.19,39.82c-4.19-3.37-4.74-9.64-1.23-14,3.51-4.36,9.75-5.16,13.94-1.78l-12.71,15.78Z"/>
        <path class="cls-4" d="M35.32,23.78c-1.04-5.28,2.56-10.44,8.05-11.52s10.78,2.32,11.83,7.6l-19.88,3.92Z"/>
        <path class="cls-4" d="M55.69,19.94c2.59-4.71,8.67-6.35,13.57-3.65,4.9,2.7,6.77,8.71,4.18,13.42l-17.75-9.77Z"/>
        <path class="cls-4" d="M73.77,30.08c5.02-1.94,10.72.71,12.74,5.93,2.02,5.22-.41,11.02-5.43,12.96l-7.32-18.9Z"/>
        <path class="cls-4" d="M81.09,49.48c5.09,1.74,7.76,7.44,5.95,12.73-1.81,5.3-7.4,8.18-12.49,6.44l6.54-19.18Z"/>
      </g>
      <polygon class="cls-1" points="55.38 19.56 34.87 23.59 21.74 39.86 22.15 60.77 35.89 76.52 56.55 79.75 74.44 68.94 81.21 49.16 73.68 29.66 55.38 19.56"/>
    </g>
    <circle class="cls-3" cx="42.71" cy="41.89" r="10.89"/>
    <circle class="cls-3" cx="60.46" cy="41.39" r="9.39"/>
    <circle class="cls-2" cx="42.16" cy="40.12" r="3.3"/>
    <circle class="cls-2" cx="60.22" cy="41.63" r="3.3"/>
  </g>
  <g>
    <g>
      <path class="cls-5" d="M70.03,52.79c0-.09-.05-.28-.09-.23l.04.33.05-.1Z"/>
      <path class="cls-5" d="M69.59,52.25c-.02.17-.02.46.08.75-.01-.32.03-.2,0-.58.04-.05.1.09.12.21,0-.09.09.06.07-.15-.12-.24-.19-.23-.23,0-.03-.07-.03-.16-.04-.22Z"/>
      <path class="cls-5" d="M64.98,52.68l.04.03s-.02-.03-.04-.03Z"/>
      <path class="cls-5" d="M62.15,53.02s.02-.05.02-.08c-.02.02-.03.05-.02.08Z"/>
      <path class="cls-5" d="M61.6,52.75s.02.01.03.02c-.02-.03-.03-.04-.03-.02Z"/>
      <path class="cls-5" d="M64.98,52.68l-.09-.09c.02.11.05.07.09.09Z"/>
      <path class="cls-5" d="M69.14,53.17s.02-.05.02-.09c0,.02-.02.03-.03.04v.05Z"/>
      <path class="cls-5" d="M66.16,52.17h.02s0-.09,0-.14v.14Z"/>
      <path class="cls-5" d="M67.09,51.93s.03.27.04.39c-.01-.12,0-.17,0-.2-.01-.05-.03-.11-.05-.19Z"/>
      <path class="cls-5" d="M68.69,52.1l.02-.04-.02.04Z"/>
      <path class="cls-5" d="M65.47,52.25s-.02-.08-.03-.1c0,.03.02.07.03.1Z"/>
      <path class="cls-5" d="M38.9,57.68s0-.03,0-.05c0,.03,0,.05,0,.05Z"/>
      <polygon class="cls-5" points="37.71 56.34 37.72 56.33 37.72 56.17 37.71 56.34"/>
      <path class="cls-5" d="M60.67,52.55h0s0-.02,0,0Z"/>
      <path class="cls-5" d="M52.65,53.95c.12.24-.11.34.06.6-.03-.11.07-.45-.06-.6Z"/>
      <path class="cls-5" d="M69.11,53.14s-.02.01-.04.01c.02,0,.03,0,.04-.01Z"/>
      <path class="cls-5" d="M52.72,54.55h0s.02.03.02.03c0-.01-.01-.02-.02-.03Z"/>
      <path class="cls-5" d="M58.68,53.05s.03.08.04.12c0-.03-.02-.06-.04-.12Z"/>
      <path class="cls-5" d="M60.25,53.19l-.04-.03s.03.03.04.03Z"/>
      <path class="cls-5" d="M57.96,53.56s-.04-.06-.06-.01c0,.01,0,.02.01.03,0-.04.01-.06.04-.02Z"/>
      <path class="cls-5" d="M57.15,53.69s.02.04.02.05l.02-.02-.05-.03Z"/>
      <path class="cls-5" d="M41.42,57.39c-.02-.08-.04-.16-.05-.25.03.2-.09.28.05.25Z"/>
      <path class="cls-5" d="M69.1,53.01c.01.07.01.11,0,.12,0,0,.02-.01.02-.02,0-.04-.01-.08-.03-.1Z"/>
      <path class="cls-5" d="M58.27,55.76l-.14-.02s.09.03.14.02Z"/>
      <path class="cls-5" d="M47.37,56.86l-.03.04s.02,0,.03-.04Z"/>
      <path class="cls-5" d="M57.75,55.84c-.04-.09-.07-.15-.1-.18,0,.02,0,.04,0,.07l.11.11Z"/>
      <path class="cls-5" d="M41.36,57.14h0s0,0,0,0Z"/>
      <path class="cls-5" d="M40.54,57.86c.13,0,.04-.36.05-.58.14-.11.09.27.15.45.09-.1.14-.45.21-.44,0,.06.02.08.01.16.08-.3.29-.03.38-.41.01.03.02.06.02.09-.03-.18-.05-.37-.05-.5.06-.01.09-.24.13,0-.03,0-.03.09-.04.17l.05-.11c.08.34-.07.12-.06.38.11-.12.22-.42.32-.32.04.34-.2.13-.06.42l-.15-.12c.14.53-.09-.03.05.53.19.09.19-.18.38-.1.03-.19-.03-.28,0-.47.23-.36.26.84.42.37.03-.23.02-.66.17-.44l-.02.39c.18.03.06-.56.26-.31-.02.15-.13.14-.1.18.14.29.07-.22.16-.23l.04.34c.18-.07.37-.33.57-.4,0,.1-.03.21.03.31.25-.19.56,0,.82.18l.07-.3s.05.13.03.19c.11.1-.01-.19.03-.3.05-.03.09.16.06.25.15-.26.44-.58.65-.28l-.03.09c.15.11.11-.61.26-.35l-.02.05c.32.1.63-.19.9.22,0-.43.32.16.28-.43.2.27.16.38.43.56.07.02.06-.38.14-.44l.03.31.08-.33.09.36.07-.09s-.08-.13-.08-.22c.1-.15.31.19.33.34l.26-.29c0,.12-.04.17-.07.25.12-.33.06.32.17.02-.03-.07,0-.18-.01-.25.09.18.24.16.35.07v.21c.21.03.43-.15.66-.17-.09-.09-.11-.46-.05-.5l.06.32c.02-.21-.08-.11-.02-.37.09.03.1.36.06.47l.09-.12c.02.1,0,.15,0,.27.02-.21.22.31.24-.05l.02.1c.23-.02.33-.14.52-.18-.03-.28.05-.23.09-.46.15.07.33.27.49.23.1-.15,0-.24.04-.41.04.25.2.21.14.4.2-.07.25-.08.48-.32-.04-.1-.08-.14-.07-.23.04-.05.12.09.13.22v.03c.23-.42.74.66.91.11v.03s.19-.31.19-.31c.11.03-.04.2.06.35.2-.46.41,0,.58-.3.26.73.57-.13.85.32l-.04-.17c.03-.18.08.09.13.13-.02-.14-.08-.15-.06-.25.45-.27,1.02.12,1.54.21.19.02-.03-.93.26-.54l-.02.34c.31-.44.74-.09,1.05-.48-.01.08,0,.18-.03.18.11.23.28-.03.25-.22.06.01.04.17.09.27.1.13.14-.33.22-.1.01.04,0,.08-.02.1.03-.12.23,0,.14-.27.15.11.24-.16.37-.01.02-.32.25.11.21-.32.06.45.29.33.34.1,0,.14.09.13.09.32.1-.02.17-.12.12-.35.26.51.29-.49.49.18.25-.29.48-.49.72-.64.06.45-.28.09-.19.56.21-.22.29-.63.55-.56.07.05,0,.2-.01.28.21-.22.48-.04.65-.32,0,.04,0,.09-.03.13.04-.02.11.05.07-.15l-.03.06c-.12-.28.06-.64.05-.8.03.59.24.11.25.86.02-.04.04-.14.01-.28.05.03.07.11.06.27.13-.14.04-.34.18-.36.02.1,0,.14,0,.26.04-.2.07-.41.2-.34,0,.06.03.13,0,.14.2-.06.25-.57.5-.42.01.44.1.13.18.49l.1-.13-.08-.17c.1-.01.15-.3.26-.19l-.05.17.18-.1-.13-.12c.07-.21-.09-.46.06-.39-.02.04.1-.01.2.19h0c.03-.13.06-.26.15-.18.04.11.06.41.08.49,0-.32.23-.13.23-.47,0,.08.03.27.04.31v-.26c.06.07.07.11.09.26.15.02-.13-.46.08-.29,0,.02,0,.06-.02.1.19.07.3-.22.48-.12.12.36-.12.12,0,.42.21-.11.39-.53.62-.48l-.05-.03c-.07-.53.21.23.28-.04-.02.04.02.3.02.24.17.05.28-.19.48-.39v.14c.11.1.24.02.35.07,0-.14.06-.13-.01-.32.44.7.48-.51.87.06-.03,0-.05.13-.03.13l.2-.17c-.06-.22-.06-.13-.14-.3,0-.14.04-.26.1-.27-.07.17.07.36.14.48-.02-.07-.02-.15-.04-.22.2.38-.07-.46.14-.22l.02.12c.05-.07.07-.24.14-.22.08.26-.04.14,0,.35.09-.03.08-.53.21-.29-.02.08-.08.09-.1.17.15.29.15.21.22.24h0s.18.1.18.1l-.06-.08c-.03-.71.2-.17.26-.65-.06.45.03.25.08.55.06.07.13.15.13.24.02-.25.16.16.19-.21.02.09.08,0,.11.24.08-.09-.06-.16-.07-.28.07-.35.42.32.53-.17.14-.22.1-.55.23-.75.09.14.03.36.03.36.12.12.18.08.24-.05,0,.09.03.15.08.26.06-.04-.03-.36.09-.24,0,.11.02.28.02.4.06-.1.1-.3.16-.4.06.16,0,.26,0,.38.08-.09.21-.2.18-.47l-.08-.08s.07.22.05.28c-.03.22-.13-.07-.16-.16l.05-.07c-.18-.55-.22.14-.34.13l-.04-.42-.05.36c-.05-.1-.12-.32-.07-.4-.13-.18-.04.16-.16-.05-.02-.03-.02-.05-.01-.07l-.06.14c0-.09-.08-.28-.01-.24-.2-.2-.17.36-.3.06v-.03c-.17.18.05.3-.03.69l-.26-.71.04.3s-.07-.02-.09-.14c-.04.22.04.13.04.33-.16-.25-.26.19-.38-.28.01.23.13.16.06.34-.14-.51-.11.11-.25-.1-.03-.27.09-.15-.05-.37.04.46-.2-.06-.26.04.07.36-.14.18-.25.33-.02-.12-.29-.14-.44-.25v-.06c.04.36-.1.32-.18.42-.04-.22-.04-.3,0-.41l-.09.02c0,.12-.01.19-.06.24l-.03-.27c-.11.04-.17.37-.35.21.04.25.26.68.13.87-.03-.13-.08-.37-.05-.43,0,.02-.03.12-.06.07l.02-.24c-.09-.09,0,.2-.06.19-.04-.19-.07-.13-.09-.29.01-.02.06.07.07,0-.07-.02-.16-.12-.22-.27.03.11.05.26.01.29-.11.04-.09-.23-.17-.31,0,.14-.1.01-.05.3-.03,0-.07-.13-.1-.2-.03.14-.27.09-.15.39l.02.02s0,0,0,.01h0,0c-.14.33-.44-.09-.61.08l-.02-.1c-.1.13-.25.12-.29.34-.03,0-.11-.16-.12-.28-.08.09-.06.2-.22.07.06-.19-.06-.14.07-.14-.13-.06-.19-.21-.26.07,0-.26-.15-.3-.19-.21l.11.16c-.06.05-.11.04-.17.02l-.03-.33c-.31-.36-.3.76-.6.12-.02.24.16.14.15.42-.12-.02-.32-.47-.35-.47-.18-.15-.05.5-.23.41.04.11.12.42.02.55-.12-.02-.22-.47-.17-.57.02-.01.04.02.05.06.03-.05.06-.11,0-.23v.12c-.07-.11-.22-.07-.21-.27-.06.13,0,.2.07.25-.17-.14-.22.04-.38-.05.03.06.08.19.06.2-.24-.11-.05.24-.19.31-.11-.16-.05-.43-.16-.26-.11-.11-.07-.31-.05-.41-.09.25-.27-.11-.35-.13l.05-.11c-.03.06-.07.07-.1.07l.08.23s-.08-.03-.1-.13c-.02.16.1.38.05.61-.07-.11-.14.16-.21-.15.19.08-.07-.31.06-.38-.02.04-.06.05-.1.01-.01-.03,0-.07,0-.08-.21-.25-.01.36-.18.39,0-.18-.1-.33-.12-.28.07,0,.08.29.04.43-.13-.12-.1.12-.16.12l.08.05c0,.18-.05.17-.12.23-.03-.14.05-.11.02-.16-.03.32-.24-.29-.32-.06-.07-.11-.06-.33-.12-.4-.09.25-.18-.22-.29,0,.08.23.08.17.02.42l.2-.2-.09.37c.07,0,.12-.17.17-.14-.04.2-.04.14.02.33-.15-.34-.15.24-.3.01l-.09-.58c-.2-.23-.24.35-.47.23l.08.09c0,.24-.13.05-.18.16-.02-.2-.08-.26-.13-.38.03.14-.16.01-.11.4l-.14-.24c-.19-.08-.11.59-.28.55.02-.22-.08-.35,0-.52-.06,0-.11-.02-.09.11-.05-.12-.11.29-.19.11,0,.09.01.29-.05.29-.01-.04-.01-.1-.01-.1.01.1-.08.15.01.35-.26-.58-.47.11-.69-.39-.11.08-.24.17-.35.2,0-.06-.01-.1,0-.08-.18-.16,0,.57-.21.4-.13-.3.07-.18,0-.3-.12-.64-.19.12-.36-.24l.02-.04c-.12-.21-.18.28-.33.25,0,0,0-.06-.01-.1-.05.34-.22.48-.35.59,0-.26.04-.14-.02-.39-.06.04.08.41-.04.5-.06-.13-.17-.24-.22-.51l.11-.03c-.11-.34-.15.03-.22-.02v-.16c-.19.07-.13.46-.33.46l.04.11c-.05.4-.12-.2-.18.1l-.09-.39c-.06.1-.19.41-.31.5.03-.3.16-.47.22-.65-.07,0-.23.06-.24.26.02-.04.04-.14.08-.09-.04.32-.13.49-.27.5-.08-.76-.38-.14-.56-.72-.21.31-.5-.06-.77.02.18.58-.08.03.01.63-.06.05-.09.04-.1,0l-.25-.34c-.07-.17.05-.14.02-.28-.15-.03-.09-.25-.21-.4.05.21-.01.32-.1.24l.15.27c-.16.35-.24-.49-.4-.14l.04-.2c-.09.13-.38.04-.43.54-.03-.07-.07-.23-.03-.28-.26-.04-.49.58-.72.31v-.15s-.05.29-.12.15c0-.06,0-.15-.02-.16-.02.05-.09.27-.16.2l.03-.17c-.26-.17-.33.45-.52.58-.05-.44-.26-.56-.36-.62v-.06c-.29-.02-.44.41-.69.61-.21-.46-.57-.14-.86-.38.05.08.03.34-.01.39-.07-.08-.14.32-.17-.08h.02c-.09-.38-.2-.26-.3-.27l.04.53c-.33-.74-.65.35-.85-.33-.05.14-.13.14-.18.28l-.02-.28c-.18-.06-.27-.08-.47,0l.02-.21c-.12,0-.08.83-.19.85l-.07-.42c-.21.03-.45-.33-.63.07,0-.06,0-.18.03-.2-.1,0-.41-.25-.32.32-.03-.38-.22-.02-.32.16v-.28c-.07.36-.07.46-.19.57-.03-.03-.05-.22,0-.15-.12-.14-.06.27-.2.13l.03-.18c-.11-.01-.09.08-.14.29-.06.12-.21-.05-.25-.3,0,.15-.05.36-.12.3-.02-.09,0-.16.01-.18-.2-.17-.24.34-.39.08,0-.09-.02-.14-.03-.16.14,0,.26,0,.25.02-.02-.26-.14-.29-.08-.65-.08.2-.21.63-.33.52,0-.02-.01-.05-.02-.09v-.03s-.04,0-.06.05c-.04-.04-.06-.07-.1-.07-.03-.21-.14-.1-.2-.11.03.28-.05.24.03.47-.01-.02,0-.03.05-.05,0,0,.02-.01.02-.03v.02s.08-.02.14-.03c-.04.15-.07.27-.15.12-.02.18-.04.37-.05.46-.11-.39-.28-.58-.32-.82-.17.17-.41.13-.48.67-.05.07-.07-.15-.09-.23.03-.05.06-.05.07-.13-.09.14-.3.07-.29.44-.14-.16.05-.34-.12-.27l.02-.11c-.38-.57-.5.97-.93.24.03.04.04.07.05.13-.46-.31-.88.37-1.34-.13-.13-.1-.13.14-.19.32l-.04-.3-.11.35c-.17.26-.35-.72-.56-.23l.04.2c-.08-.03-.25.13-.25-.1,0,.04-.02.21-.05.11v-.16s-.2.28-.2.28c-.16-.11,0-.63-.24-.65-.08.07-.22.47-.18.58.03,0,.09.09.1.25l-.07.09c0,.47-.03.95.18,1.26l.12-.29.05.22-.11.02c.07.21.11.02.14-.11.02.12.04.2.07.25l.11-.45c.03.18-.04.36.05.46.05-.21-.08-.4.02-.55.07.21.06.38.13.2.02.12,0,.2-.02.25.06-.15.17-.07.2-.32.08.26.22-.08.24.36.02-.11.1-.35.16-.37-.08.53.23.02.23.59.06-.48.29-.23.42-.5,0,.04-.02.12-.03.09.09.03.12.18.18.26-.01-.39.11-.49.17-.74.12.37-.03.46.02.82-.02-.32.16-.33.11-.59.09.23.07.11.13.43-.02-.49.07-.09.11-.39.13.23.06.46.17.3.07.15-.03.33-.03.33ZM43.42,56.81h0s-.05.02-.06.03c.01,0,.03-.01.06-.03ZM43.66,56.79s-.07,0-.11,0c-.02-.1-.01-.2.01-.19,0,.07.05.12.1.2ZM42.99,54.89s.05.01.06.07c-.02,0-.04.02-.06.04v.03c0-.05,0-.1,0-.14Z"/>
      <path class="cls-5" d="M42.95,55.26s0,.02-.01.02c.01.02.02.04.03.06v-.09s-.01,0-.01,0Z"/>
      <path class="cls-5" d="M65.02,52.72h0s.01.01.02.03c0-.01,0-.02-.01-.03Z"/>
      <polygon class="cls-5" points="47.11 57.03 47.1 56.96 47.09 57.02 47.11 57.03"/>
      <path class="cls-5" d="M66.54,53.4s.02.05.03.07c0-.02-.02-.04-.03-.07Z"/>
      <path class="cls-5" d="M67.12,53.35l.1.08s-.08-.07-.1-.08Z"/>
      <path class="cls-5" d="M67.6,53.39s-.01-.09-.02-.12h0s.02.12.02.12Z"/>
      <path class="cls-5" d="M60.59,55.04s-.01,0-.02.02c-.03.06,0,.03.02-.02Z"/>
      <path class="cls-5" d="M62.59,54.03c-.01.05-.03.11-.04.14.04.01.07.01.04-.14Z"/>
      <polygon class="cls-5" points="58.29 55.76 58.28 55.76 58.27 55.76 58.29 55.76"/>
      <path class="cls-5" d="M62.44,54.19s.08.03.1-.01c-.03-.01-.08-.03-.1.01Z"/>
      <path class="cls-5" d="M69.54,53.11h.02s0-.03,0-.04l-.02.04Z"/>
      <path class="cls-5" d="M69.55,53.07l.02-.04s-.02,0-.02.04Z"/>
      <path class="cls-5" d="M69.6,52.95l-.03.08s.04,0,.03-.08Z"/>
      <path class="cls-5" d="M68.92,53.11v.1s0-.05,0-.1Z"/>
      <path class="cls-5" d="M68.75,53.18s.15.19.2.11v-.08c0,.15-.19-.21-.2-.03Z"/>
      <path class="cls-5" d="M67.75,52.1l.16.05c-.05-.1-.11-.24-.05-.28-.25-.28.09.23-.11.23Z"/>
      <path class="cls-5" d="M67.26,52.04c.07-.07-.03-.15-.04-.22-.03.11-.04.13.04.22Z"/>
      <path class="cls-5" d="M63.94,52.7l-.04-.25c-.05.05.02.1.04.25Z"/>
      <polygon class="cls-5" points="63.54 54.12 63.63 54.26 63.62 54.03 63.54 54.12"/>
      <polygon class="cls-5" points="62.84 52.39 62.86 52.35 62.77 52.46 62.84 52.39"/>
      <path class="cls-5" d="M57.26,53.42l.07.31c.03-.06-.01-.41-.07-.31Z"/>
      <path class="cls-5" d="M54.87,54.09c-.05-.15-.13-.24-.15-.08.06.01.13.13.15.08Z"/>
      <polygon class="cls-5" points="47.51 54.45 47.55 54.34 47.47 54.44 47.51 54.45"/>
    </g>
    <g>
      <path class="cls-5" d="M68.8,52.73c-.07-.06-.25-.12-.24-.05l.29.17-.04-.12Z"/>
      <path class="cls-5" d="M68.07,52.87c.12.13.34.32.64.4-.26-.19-.13-.16-.45-.38-.01-.07.14-.06.25,0-.07-.05.11-.06-.07-.17-.27-.03-.32.06-.17.24-.08,0-.15-.06-.2-.09Z"/>
      <path class="cls-5" d="M65.16,58.2l.05-.02s-.04,0-.05.02Z"/>
      <path class="cls-5" d="M63.48,61.55s-.02-.05-.05-.07c0,.03.02.06.05.07Z"/>
      <path class="cls-5" d="M62.89,61.96s.02-.02.04-.02c-.03,0-.05,0-.04.02Z"/>
      <path class="cls-5" d="M65.16,58.2l-.14.05c.1.05.09-.01.14-.05Z"/>
      <path class="cls-5" d="M68.46,53.95s-.03-.05-.06-.08c0,.02.01.04.01.06l.05.02Z"/>
      <path class="cls-5" d="M65.58,56.58v-.03s-.06-.05-.1-.08l.1.11Z"/>
      <path class="cls-5" d="M66.04,55.4s.23.14.34.2c-.1-.06-.14-.1-.15-.13-.05-.02-.11-.04-.19-.07Z"/>
      <path class="cls-5" d="M67.3,53.75l-.02-.05s.01.03.02.05Z"/>
      <path class="cls-5" d="M65.16,57.39s-.07-.03-.1-.03c.03.01.06.02.1.03Z"/>
      <path class="cls-5" d="M38.83,59.45s.02-.02.04-.03c-.03.01-.04.03-.04.03Z"/>
      <polygon class="cls-5" points="38.88 57.41 38.9 57.42 39.02 57.32 38.88 57.41"/>
      <path class="cls-5" d="M62.06,62.81h0s-.02-.03,0,0Z"/>
      <path class="cls-5" d="M55.04,67.58c.07.27-.23.28-.11.59,0-.11.22-.41.11-.59Z"/>
      <path class="cls-5" d="M68.42,53.97s0,.03-.02.05c.02-.02.02-.03.02-.05Z"/>
      <path class="cls-5" d="M54.93,68.18h0s.01.03.01.03c0-.01,0-.02-.01-.03Z"/>
      <path class="cls-5" d="M60.89,65s.08.04.11.05c-.02-.02-.06-.03-.11-.05Z"/>
      <path class="cls-5" d="M62.25,63.65l-.06.02s.05-.01.06-.02Z"/>
      <path class="cls-5" d="M60.59,65.99s-.07-.02-.06.03c.01,0,.02.01.03.02-.02-.03-.02-.06.03-.05Z"/>
      <path class="cls-5" d="M59.88,66.67s.03.02.05.03v-.03s-.05,0-.05,0Z"/>
      <path class="cls-5" d="M41.31,61.77c.04-.07.08-.15.14-.22-.12.16-.29.1-.14.22Z"/>
      <path class="cls-5" d="M68.32,53.89c.06.03.09.06.1.08,0-.01,0-.03,0-.04-.04-.02-.07-.04-.1-.04Z"/>
      <path class="cls-5" d="M62.18,67.53l-.17.11c.06-.02.12-.06.17-.11Z"/>
      <path class="cls-5" d="M47.62,66.67h-.05s.03.02.05,0Z"/>
      <path class="cls-5" d="M61.62,68.09c-.09-.05-.16-.07-.21-.07,0,.02.01.04.03.07h.18Z"/>
      <path class="cls-5" d="M41.45,61.54h0s0,0,0,0Z"/>
      <path class="cls-5" d="M40.14,61.21c.12.12.31-.2.49-.33.22.07-.12.26-.21.44.16.02.46-.16.52-.08-.04.05-.04.08-.11.12.3-.12.29.26.66.1-.01.03-.03.06-.05.08.11-.15.23-.29.33-.39.06.05.26-.08.12.12-.03-.04-.1.03-.17.07l.13-.02c-.19.3-.16.01-.34.2.19.02.51-.07.53.09-.21.27-.28-.1-.37.23l-.04-.22c-.26.49-.06-.1-.35.4.11.24.31.06.43.29.17-.1.17-.22.34-.32.48-.03-.37.81.12.65.2-.13.5-.43.48-.14l-.3.25c.15.18.46-.33.48.03-.13.09-.22-.02-.23.03-.08.33.23-.09.32-.01l-.2.27c.22.12.59.11.84.24-.08.07-.18.12-.2.24.37.09.54.5.68.87l.28-.15s-.04.14-.1.16c.03.17.12-.14.24-.19.07.03-.03.19-.12.23.34-.05.85-.03.85.37l-.09.04c.08.21.53-.35.51-.03l-.06.02c.25.34.77.39.77.93.29-.31.22.39.58-.08.03.37-.09.42.08.77.06.07.31-.23.44-.22l-.17.26.3-.19-.14.35h.13s0-.17.06-.24c.21-.03.21.39.13.53h.46c-.07.09-.15.09-.23.13.34-.16-.14.29.17.15.02-.07.11-.15.15-.2-.02.21.16.32.33.33l-.14.17c.21.2.56.22.84.39-.05-.14.16-.45.26-.43l-.13.3c.15-.14-.02-.16.21-.31.08.09-.12.36-.23.42l.18-.03c-.04.09-.1.12-.17.22.15-.15.06.41.31.15l-.04.09c.28.16.47.13.71.24.13-.25.2-.14.37-.31.13.16.23.46.45.54.21-.06.14-.2.28-.32-.1.24.13.31-.06.43.27.08.36.1.76.04,0-.11-.02-.17.03-.24.07-.02.1.15.04.27l-.03.02c.49-.22.65,1.02,1.13.61l-.02.02.4-.18c.14.08-.14.16-.07.35.46-.32.57.19.93-.03.13.79.86.06,1.16.55v-.18c.08-.17.09.11.15.15,0-.14-.09-.16-.03-.26.72-.2,1.54.2,2.39.13.3-.04-.1-.91.36-.63v.35c.42-.56,1.14-.44,1.44-1.03.01.08.06.17.02.2.23.14.38-.22.27-.38.08-.03.12.14.22.19.18.04.06-.42.25-.27.03.02.02.08.01.11,0-.14.31-.19.08-.37.25-.02.21-.34.44-.32-.13-.3.36-.12.08-.46.3.34.5,0,.43-.23.07.12.18.02.28.18.1-.11.12-.27-.07-.4.58.15,0-.67.63-.35.07-.48.15-.88.26-1.24.37.26-.19.35.21.61.05-.4-.16-.77.1-1,.1-.04.14.15.19.21.03-.39.38-.55.32-.93.04.02.06.07.07.12.02-.06.13-.09-.06-.18l.02.08c-.3-.07-.43-.5-.57-.59.47.37.27-.18.85.31-.02-.05-.08-.14-.2-.2.06-.03.14-.01.25.11,0-.24-.23-.27-.14-.44.09.05.1.1.2.17-.13-.17-.26-.35-.11-.45.05.04.13.05.1.1.1-.26-.25-.64.04-.83.35.26.17-.03.52.12l-.03-.19-.19-.02c.07-.12-.13-.35.03-.41l.1.16.04-.27-.19.08c-.12-.21-.44-.18-.26-.31.02.05.06-.12.29-.1h0c-.08-.11-.17-.23-.04-.28.12.02.37.19.45.2-.26-.19.05-.33-.22-.54.06.06.24.14.28.15l-.21-.15c.1-.03.14-.02.28.05.12-.16-.46-.13-.18-.26.01.02.05.03.07.08.19-.17.03-.47.23-.61.37.09.01.2.33.27.06-.3-.16-.75.04-.98l-.06.03c-.47-.25.33-.09.16-.33.02.05.25.16.2.13.16-.15.04-.43.01-.77l.11.09c.16-.06.19-.26.3-.35-.11-.09-.06-.15-.26-.19.87-.05-.08-.85.65-.91-.02.04.07.14.08.11v-.32c-.22-.07-.14-.02-.33-.04-.11-.09-.17-.21-.14-.28.09.18.34.15.48.15-.07-.02-.13-.07-.2-.09.44.02-.42-.21-.08-.29l.11.06c-.02-.1-.14-.23-.08-.29.26.08.08.13.28.22.03-.12-.37-.42-.08-.41.05.08.02.14.07.22.33.02.27-.03.35-.09h0s.21-.12.21-.12h-.1c-.58-.4,0-.32-.33-.69.32.35.22.13.49.27.1-.01.22-.05.28,0-.19-.19.24-.07-.03-.34.09.03.05-.09.27.03-.02-.14-.17-.04-.27-.1-.23-.31.55-.25.24-.68-.08-.29-.36-.47-.42-.73.17,0,.3.2.3.2.18-.05.19-.15.13-.29.07.06.14.06.26.07.01-.09-.3-.2-.12-.25.09.06.24.16.32.24-.04-.13-.16-.3-.2-.44.17.04.21.16.3.25-.02-.14-.01-.36-.24-.5l-.12.03s.22.07.25.12c.15.18-.15.1-.24.07l-.03-.1c-.56-.16-.04.33-.14.46l-.35-.23.25.29c-.11-.01-.34-.08-.36-.18-.23.02.09.15-.15.15-.04,0-.05-.02-.06-.03l.07.15c-.07-.06-.28-.1-.19-.14-.3.09.16.42-.16.36l-.02-.03c.02.31.27.15.51.48l-.75-.18.27.15s-.07.06-.17,0c.15.18.13.04.28.17-.31.01-.03.4-.49.23.19.14.22-.05.31.15-.5-.17.01.19-.26.21-.23-.14-.05-.2-.32-.18.39.25-.19.18-.15.32.33.15.05.27.09.48-.11-.06-.32.23-.5.32l-.05-.03c.32.18.19.3.21.45-.2-.09-.27-.15-.33-.25l-.05.11c.1.07.14.13.15.22l-.24-.14c-.05.15.17.42-.08.53.23.11.72.14.79.4-.13-.05-.35-.14-.38-.21,0,.02.08.11.01.11l-.18-.17c-.13.04.16.12.11.18-.18-.08-.15,0-.29-.08-.01-.02.1-.03.04-.08-.07.06-.21.1-.36.07.11.04.24.11.24.17-.05.15-.24-.05-.37,0,.11.09-.06.12.21.24-.02.04-.15,0-.23-.02.09.13-.12.36.21.4h.03s0,0,0,0h0s0,0,0,0c.16.36-.37.43-.36.72l-.09-.04c.04.19-.08.34.07.53-.02.04-.21.03-.31-.04.02.14.12.2-.1.29-.11-.18-.16-.02-.07-.16-.14.11-.3.08-.12.34-.21-.15-.34-.02-.3.08l.21-.03c0,.09-.05.15-.1.21l-.29-.17c-.5.13.4.8-.32.75.18.17.22-.09.44.09-.1.11-.6.06-.62.1-.25.1.37.37.17.5.12.03.42.13.46.32-.1.11-.53-.05-.58-.17,0-.04.05-.03.08-.02-.02-.06-.04-.14-.18-.14l.1.07c-.14.01-.21.2-.37.07.06.15.16.12.25.08-.23.09-.12.26-.31.38.07,0,.21.04.2.06-.25.19.15.21.12.4-.21.02-.37-.22-.32.01-.16.05-.29-.12-.36-.2.13.25-.28.21-.36.28l-.05-.12c.03.07,0,.11-.01.15l.23.06c-.06.03-.08.07-.17.02.11.12.37.14.51.34-.14,0,.01.25-.28.12.2-.14-.29-.13-.25-.31.02.05,0,.09-.07.11-.03,0-.05-.04-.06-.06-.35.05.27.25.16.44-.14-.11-.32-.12-.3-.07.04-.07.28.11.36.24-.19.05.02.18-.03.24l.1-.04c.14.11.09.16.08.27-.12-.06-.04-.12-.11-.12.22.25-.4.05-.29.28-.14,0-.29-.17-.39-.16.11.26-.3.02-.23.26.23.09.18.05.31.28v-.33s.21.34.21.34c.05-.07-.03-.24.03-.26.12.18.07.14.26.21-.37-.09.05.32-.23.3l-.49-.33c-.33.02.05.46-.22.6h.13c.17.16-.07.14-.04.27-.15-.12-.24-.12-.36-.17.12.09-.12.14.17.4l-.27-.07c-.21.09.28.54.09.66-.12-.19-.29-.21-.31-.41-.04.05-.11.07,0,.16-.12-.05.08.32-.11.24.04.08.19.23.12.27-.03-.02-.07-.07-.07-.07.07.07,0,.18.21.28-.58-.28-.41.45-.9.18-.06.15-.17.3-.27.39-.03-.05-.06-.08-.03-.08-.25-.04.24.54-.06.49-.27-.21,0-.2-.13-.27-.38-.53-.16.2-.48-.05v-.05c-.18-.13-.08.34-.26.37,0,0-.02-.05-.04-.09.05.35-.12.55-.25.69-.04-.26.02-.15-.1-.38-.06.06.18.38.06.5-.1-.11-.24-.19-.34-.44l.12-.06c-.19-.31-.16.08-.25.04l-.04-.15c-.18.1-.08.48-.31.52l.05.11c-.04.42-.15-.19-.22.12l-.11-.38c-.06.1-.22.44-.37.52.06-.29.21-.47.27-.66-.08.01-.25.08-.28.27.03-.04.06-.14.1-.08-.05.32-.18.48-.36.49-.02-.76-.45-.18-.57-.77-.29.27-.54-.14-.86-.15.03.6-.1,0-.17.61-.09.03-.12.01-.12-.03l-.17-.41c-.02-.19.1-.12.12-.25-.15-.08-.02-.27-.09-.45-.02.22-.12.3-.19.19l.07.3c-.31.27-.08-.55-.38-.29l.12-.17c-.15.09-.42-.12-.69.31,0-.07.02-.24.09-.27-.25-.16-.81.28-.92-.1l.08-.13c-.07.02-.2.22-.21.06.03-.06.08-.13.06-.15-.05.04-.24.19-.28.07l.13-.13c-.19-.3-.59.19-.87.16.19-.4.04-.63-.03-.74l.03-.05c-.28-.21-.7.05-1.08.03.05-.51-.5-.52-.65-.93,0,.1-.19.29-.26.29-.02-.12-.35.14-.12-.19l.02.02c.16-.37-.04-.36-.14-.44l-.3.43c.14-.83-.89-.24-.66-.92-.14.07-.22,0-.36.07l.16-.23c-.14-.18-.22-.27-.48-.38l.16-.13c-.11-.1-.63.56-.76.49l.21-.37c-.23-.15-.23-.61-.67-.46.04-.05.12-.14.16-.13-.1-.08-.22-.52-.53-.03.22-.3-.2-.2-.42-.16l.19-.21c-.31.21-.38.28-.58.25-.01-.05.11-.2.11-.11-.02-.2-.25.14-.29-.08l.16-.1c-.1-.1-.15-.02-.34.09-.14.03-.17-.22-.03-.43-.11.11-.3.22-.32.11.05-.08.11-.11.14-.12-.07-.29-.48.03-.43-.29.06-.07.08-.12.08-.15.14.12.25.23.22.24.16-.2.08-.33.39-.53-.21.07-.64.27-.68.08.01-.02.02-.05.04-.08h.03c0-.05-.05-.05-.1-.04,0-.06-.01-.11-.04-.14.12-.17-.06-.2-.11-.26-.18.22-.22.12-.3.36,0-.02.03-.02.08,0,.01,0,.03,0,.04,0l-.02.02s.09.06.16.11c-.14.07-.26.12-.23-.05-.15.11-.3.22-.37.28.18-.37.16-.66.3-.86-.28-.03-.47-.28-.93.02-.09,0,.04-.16.08-.24.06-.01.09.02.16-.02-.19.01-.32-.22-.6.03-.01-.23.3-.19.09-.3l.1-.06c.08-.74-1.18.19-1.01-.7,0,.06-.01.08-.05.13-.17-.63-1.06-.6-1.06-1.38-.03-.19-.21-.04-.41.01l.2-.23-.37.12c-.35,0,.27-.8-.29-.7l-.12.17c-.04-.1-.32-.17-.13-.31-.04.02-.18.11-.13.01l.12-.11-.38-.02c-.05-.23.49-.39.32-.63-.12-.04-.55.07-.61.17.02.04,0,.15-.12.26l-.13-.02c-.36.29-.78.54-.86.95l.33-.05-.13.19-.11-.1c-.1.2.07.12.21.08-.08.09-.13.16-.14.22l.45-.16c-.12.14-.32.18-.32.34.21-.08.25-.33.44-.32-.1.2-.25.3-.04.26-.08.09-.15.13-.22.13.17-.03.21.14.42,0-.13.24.25.18-.08.47.1-.05.36-.12.43-.07-.49.25.19.25-.25.6.42-.24.43.15.76.11-.03.02-.1.06-.1.03.05.11-.03.23-.05.34.29-.26.48-.2.71-.31-.17.36-.39.26-.62.55.22-.23.39-.05.55-.27-.09.24-.02.14-.21.41.36-.33.13.01.4-.14-.06.28-.3.35-.07.36-.05.16-.28.18-.28.18ZM43.63,63.24h0s-.06-.03-.07-.04c.02,0,.04.02.08.04ZM43.89,63.44s-.06-.07-.1-.1c.05-.08.13-.15.15-.13-.06.04-.03.13-.05.23ZM44.61,61.51c.06,0,.04.05,0,.1-.02-.01-.05-.02-.09-.03l-.03.02s.07-.07.11-.09Z"/>
      <path class="cls-5" d="M44.31,61.73s-.02,0-.03,0c0,.03-.01.05-.02.07l.07-.06h-.02Z"/>
      <path class="cls-5" d="M65.22,58.18h0s.02,0,.04,0c-.01,0-.02,0-.03,0Z"/>
      <polygon class="cls-5" points="47.23 66.59 47.27 66.53 47.21 66.56 47.23 66.59"/>
      <path class="cls-5" d="M66.82,56.94s.05.01.08,0c-.02,0-.04,0-.08,0Z"/>
      <path class="cls-5" d="M67.19,56.26l.14-.06c-.07.02-.11.04-.14.06Z"/>
      <path class="cls-5" d="M67.55,55.77s-.08-.04-.11-.06h0s.11.06.11.06Z"/>
      <path class="cls-5" d="M63.91,64.54s0,.02,0,.03c.02.08.02.03,0-.03Z"/>
      <path class="cls-5" d="M64.6,61.68s.07.1.08.14c.04-.04.06-.07-.08-.14Z"/>
      <polygon class="cls-5" points="62.2 67.52 62.2 67.51 62.18 67.53 62.2 67.52"/>
      <path class="cls-5" d="M64.62,61.94c.07-.02.08-.07.06-.12-.03.03-.08.06-.06.12Z"/>
      <path class="cls-5" d="M68.7,53.48l.02-.02s-.03-.01-.04-.02l.02.04Z"/>
      <path class="cls-5" d="M68.68,53.44l-.02-.04s0,.03.02.04Z"/>
      <path class="cls-5" d="M68.62,53.31l.04.09s.03-.04-.04-.09Z"/>
      <path class="cls-5" d="M68.26,54.14l.09.05s-.05-.03-.09-.05Z"/>
      <path class="cls-5" d="M68.2,54.37s.26-.04.23-.14l-.07-.04c.12.1-.29.06-.16.18Z"/>
      <path class="cls-5" d="M66.64,54.78l.15-.15c-.11-.01-.27-.03-.25-.12-.4.1.24.05.1.27Z"/>
      <path class="cls-5" d="M66.25,55.28c0-.12-.14-.06-.2-.09.06.1.08.13.2.09Z"/>
      <path class="cls-5" d="M64.46,59.36l-.23-.11c0,.09.09.04.23.11Z"/>
      <polygon class="cls-5" points="65.32 60.67 65.5 60.66 65.3 60.54 65.32 60.67"/>
      <polygon class="cls-5" points="63.45 60.4 63.43 60.35 63.46 60.52 63.45 60.4"/>
      <path class="cls-5" d="M59.85,66.36l.22.22c0-.08-.23-.35-.22-.22Z"/>
      <path class="cls-5" d="M57.54,67.95c-.07-.14-.16-.22-.18-.07.07.01.16.12.18.07Z"/>
      <polygon class="cls-5" points="49.33 64.94 49.44 64.88 49.29 64.89 49.33 64.94"/>
    </g>
  </g>
</svg>